<?xml version="1.0" encoding="UTF-8" standalone="no"?><!DOCTYPE svg PUBLIC "-//W3C//DTD SVG 1.1//EN" "http://www.w3.org/Graphics/SVG/1.1/DTD/svg11.dtd"><svg width="100%" height="100%" viewBox="0 0 35 44" version="1.1" xmlns="http://www.w3.org/2000/svg" xmlns:xlink="http://www.w3.org/1999/xlink" xml:space="preserve" xmlns:serif="http://www.serif.com/" style="fill-rule:evenodd;clip-rule:evenodd;stroke-linejoin:round;stroke-miterlimit:2;"><g><path d="M33.145,37.971c-0,0 -4.697,1.209 -7.612,-1.158c-0.629,-0.979 -1.047,-2.171 -1.248,-3.556l-0.03,-0.189l0.192,-0.026c1.08,-0.14 2.052,-0.289 2.967,-0.451c0.8,-0.138 1.578,-1.595 1.501,-2.48c-0.051,-0.587 -0.444,-0.587 -0.576,-0.587c-0.066,0 -0.136,0.011 -0.215,0.021c-1.231,0.217 -2.505,0.398 -3.898,0.562l-0.2,0.021l-0.011,-0.202c-0.183,-3.956 0.223,-7.861 0.598,-10.822c0.472,-3.779 1.184,-7.469 2.114,-10.964l0.021,-0.045c0.196,-0.336 0.396,-0.674 0.598,-1.016c1.067,-1.785 2.169,-3.635 2.729,-5.524c0.176,-0.585 0.172,-1.089 -0.017,-1.342c-0.128,-0.168 -0.334,-0.236 -0.649,-0.206c-2.029,0.185 -3.195,3.462 -3.82,5.221l-0.094,0.262c-0.242,0.681 -0.482,1.434 -0.74,2.303c-2.082,3.697 -4.339,7.455 -6.912,11.53c-2.58,4.088 -5.058,7.74 -7.579,11.167l-0.057,0.078l-0.1,0c-2.88,-0.104 -3.669,-0.134 -6.506,-0.344l-0.062,-0.004c-1.116,-0 -3.509,2.024 -3.539,2.779c0,0.054 -0.004,0.151 0.266,0.173c2.627,0.2 5.013,0.344 7.293,0.44l0.362,0.015l-0.222,0.287c-1.805,2.348 -3.815,4.758 -6.287,6.472c-0.791,0.551 -1.255,1.344 -1.242,2.134c0.009,0.44 0.296,0.791 0.657,0.791c0.136,-0 0.277,-0.051 0.419,-0.149c3.184,-2.208 5.679,-5.228 8.163,-8.387c0.211,-0.268 0.419,-0.538 0.626,-0.808l0.2,-0.266l0.095,0.002c0.896,0.022 1.791,0.03 2.685,0.03c3.054,0 5.857,-0.121 8.573,-0.372l0.192,-0.017l0.012,0.191c0.141,1.851 0.485,4.402 1.811,6.105l-0,-0c1.855,2.905 7.76,-0.195 9.542,-1.669Zm-10.472,-20.33c-0.717,4.579 -1.042,8.682 -1.002,12.547l0.002,0.172l-0.176,0.015c-2.263,0.179 -4.603,0.266 -7.147,0.266c-0.491,-0 -0.982,-0 -1.472,-0.011l-0.357,0l0.206,-0.298c1.836,-2.569 3.774,-5.453 6.092,-9.073c1.308,-2.033 2.631,-4.16 3.928,-6.321l0.349,0.132c-0.149,0.857 -0.293,1.716 -0.423,2.571Z" style="fill:#fff;"/></g><path d="M31.915,39.889c-0,-0.203 0.052,-0.4 0.157,-0.59c0.1,-0.183 0.243,-0.327 0.427,-0.432c0.185,-0.106 0.382,-0.159 0.592,-0.159c0.21,-0 0.407,0.052 0.591,0.157c0.184,0.105 0.328,0.25 0.433,0.434c0.105,0.183 0.158,0.38 0.158,0.59c-0,0.212 -0.053,0.41 -0.158,0.594c-0.105,0.183 -0.248,0.328 -0.43,0.433c-0.183,0.105 -0.379,0.156 -0.589,0.155c-0.325,0.001 -0.603,-0.112 -0.834,-0.34c-0.231,-0.228 -0.347,-0.509 -0.347,-0.842Zm0.175,-0.002c-0.002,0.174 0.043,0.342 0.135,0.504c0.085,0.156 0.207,0.279 0.364,0.37c0.158,0.09 0.326,0.135 0.505,0.135c0.277,0.002 0.514,-0.097 0.709,-0.295c0.195,-0.199 0.294,-0.437 0.295,-0.714c-0.001,-0.276 -0.1,-0.512 -0.296,-0.708c-0.197,-0.196 -0.432,-0.295 -0.708,-0.296c-0.277,0.001 -0.514,0.099 -0.709,0.292c-0.195,0.194 -0.294,0.431 -0.295,0.712Zm1.548,0.443l-0.044,0.039c-0.135,0.109 -0.282,0.163 -0.441,0.163c-0.185,-0 -0.341,-0.067 -0.467,-0.2c-0.125,-0.133 -0.188,-0.292 -0.188,-0.477c-0.001,-0.179 0.06,-0.336 0.184,-0.47c0.123,-0.135 0.277,-0.203 0.461,-0.205c0.156,0 0.298,0.049 0.426,0.146l0.052,0.041l-0.151,0.156l-0.059,-0.057c-0.078,-0.064 -0.167,-0.098 -0.265,-0.101c-0.132,0.002 -0.242,0.051 -0.332,0.149c-0.089,0.098 -0.133,0.213 -0.131,0.346c-0.002,0.131 0.041,0.245 0.128,0.342c0.087,0.097 0.195,0.145 0.325,0.145c0.108,0.002 0.202,-0.033 0.283,-0.106l0.069,-0.066l0.15,0.155Z" style="fill-rule:nonzero;"/></svg>