<?xml version="1.0" encoding="UTF-8" standalone="no"?>
<!DOCTYPE svg PUBLIC "-//W3C//DTD SVG 1.1//EN" "http://www.w3.org/Graphics/SVG/1.1/DTD/svg11.dtd">
<svg width="310px" height="39px" version="1.1" xmlns="http://www.w3.org/2000/svg" xmlns:xlink="http://www.w3.org/1999/xlink" xml:space="preserve" xmlns:serif="http://www.serif.com/" style="fill-rule:evenodd;clip-rule:evenodd;stroke-linejoin:round;stroke-miterlimit:2;">
    <g transform="matrix(1,0,0,1,-1084.78,-2306.6)">
        <g id="albert-pickering-brunel-logo" transform="matrix(1.31281,0,0,1.31281,1058.23,2289.44)">
            <g transform="matrix(0.208236,0,0,0.180457,-71.1813,-385.249)">
                <g transform="matrix(0.857782,0,0,0.854037,654.016,1632.45)">
                    <path d="M181.409,764.178C180.56,765.832 179.703,767.532 178.824,769.278C172.473,782.074 160.549,802.581 149.62,812.372L147.847,813.966L148.546,811.666C153.22,796.32 167.76,773.733 184.01,756.034C184.811,755.231 186.454,753.081 186.454,753.081C186.454,753.081 185.514,755.766 185.092,756.793C183.92,759.229 182.679,761.673 181.409,764.178M198.441,741.31C216.832,723.793 236.456,709.813 256.787,699.757C266.799,694.77 278.569,689.67 289.001,690.573C292.188,690.846 294.3,692.197 295.269,694.55C298.17,701.593 289.752,715.095 287.107,718.291C270.354,738.525 240.087,749.469 217.636,755.07C214.217,755.92 202.018,763.108 202.304,765.521C202.356,765.938 203.326,766.424 205.896,766.424C208.114,766.424 211.24,766.075 215.194,765.384C246.626,759.874 276.622,742.782 293.473,720.78C299.012,713.547 307.084,698.148 302.206,686.323C300.418,681.989 296.675,679.872 290.752,679.872C284.86,679.872 278.253,682.035 274.69,683.196C251.834,690.649 228.94,704.72 204.709,726.199L202.785,727.907L203.739,725.159C204.115,724.112 204.468,723.064 204.859,722.032L205.025,721.782C206.813,720.036 208.038,717.714 208.069,715.968C208.249,706.633 207.422,704.363 206.919,703.84L206.896,703.84C205.468,703.84 202.477,711.111 201.342,713.851C200.786,715.202 200.304,716.378 199.951,717.114C197.088,722.981 195.088,729.455 193.157,735.716L192.51,737.53C163.551,765.658 142.706,798.688 138.647,823.718C138.436,824.978 138.745,826.352 139.406,827.149C139.759,827.559 140.188,827.779 140.676,827.779C141.135,827.779 141.653,827.589 142.21,827.232C162.029,814.178 177.373,786.097 187.572,765.885C188.82,763.434 190.06,760.975 191.315,758.523C193.781,753.742 195.93,748.52 198.26,741.583L198.441,741.31Z" style="fill:white;fill-rule:nonzero;"/>
                </g>
                <g transform="matrix(0.857782,0,0,0.854037,649.902,1628.58)">
                    <path d="M243.318,767.965C242.132,768.86 241.227,770.439 240.493,771.706C239.811,772.883 238.958,775.258 239.388,776.936C239.551,777.566 239.87,778.029 240.382,778.325C240.515,778.4 240.679,778.461 240.834,778.514L241.101,778.605L241.22,778.856C241.405,779.243 241.635,779.524 241.932,779.706C242.206,779.865 242.51,779.934 242.844,779.934C243.474,779.934 244.112,779.66 244.52,779.425C246.915,778.074 248.657,774.985 248.657,772.086L248.665,771.691C248.679,769.809 248.694,767.851 247.3,766.796C247.026,766.599 246.722,766.5 246.373,766.5C245.239,766.5 243.837,767.57 243.318,767.965" style="fill:white;fill-rule:nonzero;"/>
                </g>
                <g transform="matrix(0.857782,0,0,0.854037,654.016,1632.45)">
                    <path d="M465.234,779.735C465.64,780.077 466.023,780.403 466.399,780.729C466.542,780.858 466.767,780.927 467.075,780.927C467.684,780.927 468.443,780.653 468.924,780.373C470.382,779.576 471.344,778.217 471.908,777.238C472.479,776.259 473.141,774.741 473.111,773.056C473.096,771.94 472.803,771.318 471.923,770.536L471.187,769.884L471.292,769.474C471.683,767.979 471.63,766.635 471.126,765.816C470.818,765.315 470.337,764.996 469.676,764.852C468.947,764.7 468.308,764.616 467.707,764.616C466.73,764.616 465.843,764.829 464.978,765.269C462.205,766.666 459.725,771.174 460.777,774.43C461.468,776.532 463.468,778.225 465.234,779.735" style="fill:white;fill-rule:nonzero;"/>
                </g>
                <g transform="matrix(0.857782,0,0,0.854037,654.016,1628.87)">
                    <path d="M542.104,800.403C541.397,800.919 540.473,801.625 539.436,802.346C536.309,804.509 532.13,806.786 529.65,804.084C527.816,802.096 529.793,799.53 531.258,797.891C534.002,794.81 537.699,793.049 541.457,791.569C543.179,790.901 548.094,787.622 549.206,790.081C549.988,791.781 547.891,794.749 546.967,795.978C545.614,797.8 543.908,799.09 542.104,800.403M539.826,825.92C537.324,830.565 534.017,835.3 529.424,840.75C525.576,845.334 515.693,856.066 506.786,856.066C503.847,856.066 501.337,854.882 499.195,852.567C496.579,849.592 495.67,846.685 496.64,843.877C498.992,836.598 512.867,830.337 539.135,824.903L540.525,824.622L539.826,825.92ZM368.199,804.524C367.8,803.553 367.545,800.798 367.484,799.409C367.469,799.06 367.469,798.787 367.484,798.673C367.845,794.711 371.896,793.064 375.301,792.7C376.925,792.517 378.548,792.517 380.172,792.669C380.773,792.715 384.583,793.648 384.914,793.337C382.377,795.768 379.479,797.92 376.468,799.842C373.743,801.58 370.926,803.129 368.199,804.524M612.875,798.043C608.763,801.124 587.831,805.276 584.472,805.921L584.148,805.921C579.188,806.892 567.546,809.26 559.909,810.824L552.754,812.281L552.912,811.31C553.22,809.761 553.889,801.845 553.994,800.274C554.761,799.022 555.407,797.686 555.745,796.153C555.851,795.69 556.008,790.666 555.993,790.673C561.555,788.153 560.18,786.097 560.18,786.097C556.023,784.23 551.634,782.81 547.034,782.939C541.397,783.106 536.084,785.315 531.213,788.032C527.132,790.309 522.735,793.079 520.909,797.641C519.744,800.517 519.759,803.356 520.668,805.792C515.918,804.881 511.04,803.917 510.634,804.585L510.153,804.054L509.575,803.401C507.38,801.132 506.576,798.012 505.771,794.992C505.351,793.216 504.877,791.326 504.065,789.656C502.51,786.256 499.856,784.586 496.061,784.586C493.986,784.586 491.574,785.072 488.53,786.044C480.893,788.472 475.136,793.109 468.943,798.058C467.019,799.629 464.982,801.246 462.908,802.756C459.12,805.557 457.827,805.397 455.7,804.319L455.053,804.001L455.752,802.801C456.128,802.27 456.451,801.678 456.812,801.192C457.353,800.274 457.992,799.409 458.586,798.498C459.548,797.094 460.503,795.644 461.412,794.187C462.584,792.297 462.479,789.603 461.675,788.199C460.878,786.734 459.548,786.962 457.887,788.571C446.245,800.069 430.92,806.854 415.715,807.226L414.535,807.279L415.113,806.262C416.617,803.515 422.664,793.775 426.084,793.775C426.768,793.775 427.677,794.049 428.211,795.4C428.692,796.47 429.278,797.016 430.083,797.016C431.42,797.016 433.179,795.726 434.517,793.722C435.84,791.681 436.381,789.518 435.84,788.174C434.675,785.207 432.698,783.704 429.917,783.704C428.106,783.704 425.979,784.402 423.784,785.586L423.19,785.958L422.882,785.32C422.341,784.235 421.65,784.235 421.424,784.235C419.462,784.235 416.569,787.688 415.877,789.411C408.669,807.422 386.44,810.793 380.096,810.793C378.443,810.793 376.737,810.733 375.076,810.573L373.317,810.414L376.616,807.985C382.975,803.401 391.679,797.094 395.264,791.22C396.113,789.816 396.804,787.554 396.218,785.937C395.955,785.178 395.369,784.639 394.512,784.374C382.336,780.761 372.565,782.051 365.147,788.252C359.164,793.269 359.112,800.327 359.69,809.116L359.751,809.655L359.209,809.761C356.977,810.414 352.543,811.431 347.95,811.431C341.494,811.431 337.428,809.389 336.15,805.45C335.03,801.898 335.459,798.012 335.835,794.24C336.15,791.705 336.428,789.117 336.203,786.636L336.15,786.157L336.571,785.99C338.39,785.125 340.216,784.222 342.028,783.349C353.933,777.581 366.214,771.593 379.721,771.479C380.465,771.107 384.471,764.967 383.937,762.159C383.832,761.673 383.621,761.127 382.501,761.127C382.336,761.127 382.178,761.127 382.013,761.187C365.147,763.237 349.822,770.515 335.03,777.581L331.453,779.304L330.656,778.219C334.812,773.483 338.608,768.352 342.298,763.396C344.102,760.922 345.921,758.379 347.845,755.966C353.881,748.08 363.851,733.667 365.662,724.674C365.94,723.429 365.722,722.359 365.128,721.585C364.166,720.416 362.46,720.575 361.024,721.919C348.631,734.001 333.009,756.649 322.058,777.839L321.892,778.014C318.736,781.247 315.594,784.321 312.114,787.713L311.911,787.88L311.114,788.146C310.739,788.305 310.355,788.411 309.927,788.571C308.551,789.117 306.951,791.113 305.928,793.709L305.778,793.914L303.05,796.661C297.435,802.43 287.567,808.258 278.164,808.258C273.038,808.258 268.769,806.528 265.462,803.196C264.23,801.944 263.809,800.707 264.132,799.348C265.041,795.644 272.084,792.943 278.112,791.007L278.705,790.84C279.074,790.734 279.773,790.415 280.569,790.028C282.704,789.003 285.643,787.653 287.401,787.653C288.161,787.653 288.687,787.88 289.002,788.366C289.536,789.003 290.025,789.33 290.611,789.33C292.963,789.33 295.895,784.48 296.323,782.545C296.857,780.055 296.699,778.279 295.834,777.202C295.188,776.336 293.97,775.904 292.212,775.904C287.244,775.904 279.773,779.418 275.767,781.292C275.18,781.573 274.699,781.778 274.324,781.945C265.77,785.823 258.578,790.734 249.979,796.775C245.928,799.675 241.862,802.111 237.585,804.213C236.518,804.691 235.616,804.54 234.977,803.773C232.888,801.192 234.872,790.901 235.827,786.582C236.097,785.345 235.939,784.26 235.398,783.562C234.489,782.431 232.625,782.545 231.174,783.88C229.152,785.672 227.183,787.501 225.146,789.33C216.916,796.935 209.182,804.099 199.201,809.283C196.368,810.733 191.828,816.88 192.362,819.15C192.422,819.362 192.58,819.962 193.917,819.962C195.09,819.962 196.751,819.522 198.825,818.709C207.521,815.264 214.466,808.797 221.148,802.536C222.38,801.413 223.545,800.327 224.718,799.196L226.169,797.899L225.845,799.842C224.613,807.128 224.996,812.023 226.913,814.406C227.709,815.423 228.837,815.909 230.34,815.909C232.933,815.909 236.15,814.239 238.495,813.055C238.983,812.782 239.412,812.577 239.773,812.41C244.959,809.822 249.814,806.316 254.511,802.915L256.06,801.792L255.909,803.295C255.586,805.716 256.015,807.879 257.082,809.655C260.442,815.317 266.582,818.391 274.271,818.391C275.443,818.391 276.676,818.33 277.901,818.171C291.46,816.562 302.088,807.773 309.784,800.274L310.844,801.086C308.386,806.475 305.989,811.924 303.591,817.26C302.839,819.043 302.621,820.44 303.155,821.199C303.471,821.791 304.177,821.897 304.651,821.897C306.567,821.897 309.296,820.22 310.521,817.48L313.024,811.757C315.759,805.716 318.533,799.462 321.419,793.269L321.524,793.049L321.742,792.943C323.388,792.191 325.102,791.44 326.755,790.628L327.236,790.415L327.559,790.779C328.146,791.485 328.469,792.457 328.574,793.808C328.777,796.555 328.514,799.303 328.311,801.944C328.146,803.515 328.033,805.132 327.988,806.695C327.717,814.786 331.776,819.681 340.314,821.624C341.434,821.897 342.667,822.003 343.944,822.003C350.092,822.003 356.714,818.93 362.584,816.235L362.907,816.068L363.118,816.137C365.681,816.501 368.244,817.047 370.701,817.533C375.932,818.603 380.893,819.628 386.072,819.628C387.838,819.628 389.491,819.522 391.152,819.263C395.955,818.603 400.547,816.835 404.764,814.027L405.771,813.321L405.771,814.991C405.884,816.88 406.357,817.746 407.372,817.639L407.485,817.639L407.8,817.685C407.86,817.685 407.913,817.746 408.018,817.746L410.258,817.746C422.051,817.746 434.182,814.239 445.23,807.606L446.41,806.9L446.245,808.258C446.087,810.034 446.41,811.484 447.259,812.729C448.65,814.725 450.627,815.757 453.024,815.757C457.083,815.757 461.622,812.896 463.975,811.165C464.606,810.733 465.621,809.822 466.959,808.683C472.776,803.674 483.674,794.392 491.048,794.392C493.122,794.392 494.836,795.159 496.061,796.555C497.662,798.392 498.255,801.246 498.842,804.001C499.105,805.352 499.368,806.581 499.744,807.606C500.924,811.165 503.216,813.807 506.478,815.423C508.124,816.235 510.274,816.357 511.92,813.715C513.43,811.788 531.093,814.171 534.37,812.653C534.851,812.6 535.347,812.63 535.82,812.562C539.443,811.962 542.87,810.353 546.012,808.175C545.884,809.184 545.539,810.824 544.689,813.632L544.584,814.011L542.179,814.49C523.915,818.322 498.992,823.499 490.386,840.484C486.5,848.302 487.876,857.569 493.806,863.018C496.256,865.28 499.255,866.418 502.615,866.418C508.868,866.418 515.166,862.692 519.383,859.625C528.733,852.779 542.074,839.141 549.176,823.119L549.342,822.793L549.657,822.747C554.618,821.723 559.586,820.751 564.547,819.719C571.334,818.429 578.376,817.025 585.216,815.514C594.024,813.571 600.218,810.786 607.32,805.488C610.206,803.333 613.671,798.749 614.415,797.026C614.152,797.193 613.626,797.451 612.875,798.043" style="fill:white;fill-rule:nonzero;"/>
                </g>
            </g>
            <g transform="matrix(0.180457,0,0,0.180457,-39.3831,-385.718)">
                <g transform="matrix(0.857782,0,0,0.854037,654.016,1632.45)">
                    <path d="M740.1,741.896C748.957,736.493 757.286,729.457 763.493,720.322C765.603,717.217 772.44,704.003 770.515,696.87C769.871,694.487 768.331,693.068 765.941,692.69C758.117,691.444 749.065,696.152 741.341,700.805C725.658,710.183 710.364,723.505 695.867,740.402L695.721,740.669C693.71,747.524 691.899,752.671 689.866,757.367C688.831,759.775 687.806,762.191 686.776,764.6C678.35,784.459 666.039,812.176 650.631,824.567C650.199,824.905 649.801,825.077 649.456,825.062C649.088,825.046 648.774,824.812 648.523,824.391C648.054,823.573 647.872,822.19 648.077,820.938C652.056,796.061 668.693,763.581 691.54,736.43L692.093,734.639C693.779,728.446 695.523,722.043 697.896,716.276C698.189,715.552 698.595,714.392 699.063,713.061C700.019,710.36 702.54,703.194 703.615,703.241L703.632,703.242C703.992,703.781 704.531,706.076 704.052,715.398C703.965,717.141 702.956,719.421 701.545,721.107L701.411,721.351C701.079,722.37 700.774,723.405 700.452,724.439L699.632,727.153L701.144,725.51C720.186,704.847 737.946,691.541 755.435,684.847C758.161,683.804 763.216,681.86 767.654,682.055C772.114,682.25 774.855,684.489 776.043,688.878C779.281,700.854 772.634,715.975 768.196,723.02C764.225,729.322 759.413,735.163 753.991,740.382C756.438,740.363 759.058,740.404 761.977,740.433C764.782,740.462 769.988,740.504 773.845,742.818C777.723,745.145 779.311,749.115 778.719,754.934C777.101,770.81 765.55,785.818 758.98,792.181C754.994,796.041 750.746,799.465 746.317,802.427C741.819,805.435 734.425,807.967 726.028,809.995C726.028,809.995 732.233,810.793 743.702,810.793C753.197,810.793 771.097,806.438 777.779,788.427C778.42,786.705 781.103,783.251 782.922,783.251C783.131,783.251 783.772,783.251 784.274,784.337L784.559,784.974L785.11,784.602C787.145,783.418 791.218,781.736 792.897,781.736C794.43,781.736 795.7,782.268 796.705,783.323C797.389,784.042 797.95,785.004 798.388,786.206C798.89,787.55 798.388,789.713 797.162,791.754C795.921,793.758 794.291,795.048 793.05,795.048C792.305,795.048 791.761,794.502 791.315,793.432C790.821,792.081 787.876,792.791 787.242,792.791C784.072,792.791 777.561,803.515 776.168,806.262L775.631,807.279L776.725,807.226C787.725,806.936 797.692,803.939 806.669,797.174C809.368,794.66 812.012,792.023 814.714,789.33C816.602,787.501 818.428,785.672 820.303,783.88C821.648,782.545 823.376,782.431 824.219,783.562C824.721,784.26 824.867,785.345 824.616,786.582C823.731,790.901 821.891,801.192 823.829,803.773C824.417,804.535 825.246,804.689 826.228,804.222C826.234,804.219 826.24,804.216 826.246,804.213C830.212,802.111 836.987,797.213 840.447,793.907C846.129,788.478 849.065,785.672 850.94,783.88C852.285,782.545 854.013,782.431 854.856,783.562C855.358,784.26 855.504,785.345 855.253,786.582C854.368,790.901 851.541,801.192 853.478,803.773C854.906,805.792 856.85,805.115 857.787,804.524C861.819,801.984 865.322,799.029 866.425,798.058C872.167,793.109 877.505,788.472 884.584,786.044C887.407,785.072 889.643,784.586 891.567,784.586C895.086,784.586 897.545,786.256 898.988,789.656C899.74,791.326 900.179,793.216 900.57,794.992C901.285,797.891 901.314,804.126 906.17,807.77C906.458,807.912 906.75,808.065 907.043,808.227C909.893,809.8 915.021,809.43 917.091,808.777L920.302,808.001L920.246,807.462C919.71,798.673 918.855,790.317 924.402,785.3C931.28,779.1 940.339,777.809 951.627,781.422C952.422,781.688 952.965,782.227 953.209,782.986C953.753,784.602 953.111,786.864 952.324,788.268C949,794.142 940.931,800.449 935.036,805.034L931.977,807.462L933.607,807.622C935.147,807.781 936.729,807.842 938.262,807.842C944.143,807.842 964.753,808.405 971.436,790.395C971.48,790.222 971.523,790.054 971.565,789.89L971.886,788.18C982.181,749.186 996.21,722.781 1014.77,707.467C1015.71,706.69 1016.95,706.324 1017.89,706.542C1018.37,706.666 1018.74,706.946 1018.95,707.382C1019.15,707.792 1019.22,708.343 1019.17,709.007C1017.15,732.8 1004.76,751.981 992.768,770.528C991.318,772.787 989.859,775.043 988.412,777.309C985.598,781.743 982.289,786.101 977.666,791.421L977.523,791.71C976.592,795.371 976.002,797.988 975.6,799.894C975.587,799.973 975.573,800.052 975.558,800.132C974.538,805.906 975.149,808.999 975.443,809.98C975.456,810.004 975.465,810.02 975.468,810.023C979.164,815.789 990.286,818.421 993.513,818.635C1014.24,820.008 1038.18,807.314 1054.61,796.408C1057.11,794.744 1068.22,791.274 1069.32,792.885C1069.51,793.165 1069.18,794.067 1067.64,795.696C1066.31,797.101 1064.25,798.875 1061.51,800.971C1039.74,817.623 1012.72,826.503 991.004,824.144C983.866,823.368 966.912,816.728 969.296,805.794C969.426,805.197 969.507,804.685 969.552,804.24C969.556,804.203 969.56,804.167 969.563,804.131C969.622,803.485 969.605,802.987 969.557,802.584L969.431,802.494C967.165,804.749 963.872,807.417 963.872,807.417C963.872,807.417 953.868,815.652 948.512,816.312C946.964,816.503 945.439,816.676 943.802,816.676C939.001,816.676 934.402,815.652 929.552,814.581C927.273,814.096 924.897,815.227 922.521,814.862L922.326,814.794L921.123,813.977C920.428,814.321 919.691,814.766 918.932,815.216C916.778,817.192 912.373,818.251 909.516,818.068C905.243,817.795 896.075,814.117 894.981,807.606C894.801,806.531 894.389,805.352 894.145,804.001C893.601,801.246 893.051,798.392 891.567,796.555C890.431,795.159 888.842,794.392 886.919,794.392C880.083,794.392 869.979,803.674 864.585,808.683C863.345,809.822 862.404,810.733 861.819,811.165C859.983,812.622 856.712,814.879 853.478,815.558C853.065,815.676 852.615,815.745 852.104,815.745L852.103,815.745C851.957,815.753 851.297,815.72 851.108,815.65C850.198,815.463 849.477,815 848.926,814.242C847.149,811.859 844.856,807.128 845.999,799.842L846.299,797.899L844.954,799.196C844.51,799.658 833.082,809.822 828.274,812.41C827.94,812.577 827.543,812.782 827.09,813.055C824.916,814.239 821.933,815.909 819.529,815.909C818.135,815.909 817.09,815.423 816.352,814.406C814.575,812.023 814.219,807.128 815.362,799.842L815.662,797.899L814.317,799.196C813.23,800.327 812.15,801.413 811.007,802.536C810.916,802.628 810.822,802.72 810.724,802.812L809.7,803.948L804.09,807.606C793.846,814.239 782.599,817.746 771.666,817.746L769.59,817.746C769.492,817.746 769.443,817.685 769.387,817.685L769.095,817.639L768.99,817.639C768.05,817.746 767.611,816.88 767.506,814.991L767.506,813.321L766.572,814.027C762.663,816.835 758.405,817.619 753.953,818.28C752.413,818.538 750.88,818.644 749.242,818.644C746.2,818.644 725.285,816.612 708.476,814.851C702.35,815.155 695.392,816.558 689.583,815.071C686.713,814.333 684.524,813.517 683.073,812.646C681.39,811.636 680.953,810.682 681.088,810.168C681.884,807.207 692.794,803.514 695.379,803.854C712.356,806.061 736.624,804.047 755.825,786.741C758.857,784.008 769.863,771.376 770.829,761.921C771.152,758.763 770.319,756.338 768.344,754.764C761.894,749.609 752.281,747.073 743.709,749.008C733.95,756.122 722.968,761.381 711.722,764.12C710.271,764.468 708.868,764.991 707.543,765.679L707.539,765.67C700.516,768.924 688.739,770.945 702.983,760.42C706.671,757.695 710.58,755.281 714.667,753.203C721.486,749.739 734.005,743.587 740.1,741.896ZM682.197,762.69C681.497,764.316 680.789,765.986 680.062,767.701C674.807,780.278 666.549,798.144 657.958,807.566L656.563,809.1L657.174,806.826C661.261,791.646 671.566,771.788 684.456,754.639L686.638,752.066L685.243,755.433C684.27,757.829 683.246,760.23 682.197,762.69ZM927.231,801.573C926.862,800.601 926.625,797.846 926.569,796.457C926.555,796.108 926.555,795.835 926.569,795.721C926.722,793.91 927.59,792.583 928.788,791.641C930.212,790.522 932.102,789.946 933.816,789.748C935.321,789.566 936.827,789.566 938.332,789.718C938.889,789.763 942.422,790.697 942.729,790.386C940.376,792.816 937.69,794.969 934.898,796.89C932.372,798.628 929.76,800.178 927.231,801.573ZM988.713,765.823C989.688,764.291 990.697,762.732 991.734,761.132C995.971,754.671 1000.23,747.921 1003.74,740.744C1006.56,734.982 1008.88,728.946 1010.31,722.564L1010.84,720.236L1009.27,721.934C998.841,733.276 990.56,749.173 983.227,771.948C982.968,772.934 982.149,775.621 982.149,775.621C982.149,775.621 983.634,773.46 984.312,772.56C985.782,770.375 987.229,768.127 988.713,765.823Z" style="fill:white;"/>
                </g>
                <g transform="matrix(12.2877,0,0,12.2877,-50970.2,-26385.9)">
                    <path d="M4273.58,2332.49C4273.58,2331.96 4273.72,2331.45 4273.99,2330.96C4274.25,2330.48 4274.62,2330.11 4275.1,2329.84C4275.58,2329.56 4276.09,2329.42 4276.64,2329.42C4277.18,2329.42 4277.69,2329.56 4278.17,2329.83C4278.65,2330.11 4279.02,2330.48 4279.3,2330.96C4279.57,2331.43 4279.7,2331.94 4279.7,2332.49C4279.7,2333.04 4279.57,2333.55 4279.3,2334.03C4279.02,2334.51 4278.65,2334.88 4278.18,2335.15C4277.7,2335.43 4277.19,2335.56 4276.65,2335.55C4275.81,2335.56 4275.09,2335.27 4274.48,2334.67C4273.89,2334.08 4273.58,2333.35 4273.58,2332.49ZM4274.04,2332.48C4274.03,2332.93 4274.15,2333.37 4274.39,2333.79C4274.61,2334.2 4274.93,2334.52 4275.33,2334.75C4275.74,2334.99 4276.18,2335.1 4276.64,2335.1C4277.36,2335.11 4277.98,2334.85 4278.48,2334.34C4278.99,2333.82 4279.25,2333.2 4279.25,2332.48C4279.25,2331.77 4278.99,2331.16 4278.48,2330.65C4277.97,2330.14 4277.36,2329.88 4276.64,2329.88C4275.92,2329.88 4275.31,2330.14 4274.8,2330.64C4274.3,2331.14 4274.04,2331.76 4274.04,2332.48ZM4278.06,2333.63L4277.94,2333.74C4277.59,2334.02 4277.21,2334.16 4276.8,2334.16C4276.32,2334.16 4275.91,2333.98 4275.59,2333.64C4275.26,2333.29 4275.1,2332.88 4275.1,2332.4C4275.09,2331.94 4275.25,2331.53 4275.57,2331.18C4275.9,2330.83 4276.3,2330.65 4276.77,2330.65C4277.18,2330.65 4277.54,2330.78 4277.88,2331.03L4278.01,2331.14L4277.62,2331.54L4277.47,2331.39C4277.26,2331.22 4277.03,2331.14 4276.78,2331.13C4276.44,2331.13 4276.15,2331.26 4275.92,2331.51C4275.69,2331.77 4275.57,2332.07 4275.58,2332.41C4275.57,2332.75 4275.68,2333.05 4275.91,2333.3C4276.14,2333.55 4276.42,2333.68 4276.75,2333.68C4277.03,2333.68 4277.28,2333.59 4277.49,2333.4L4277.67,2333.23L4278.06,2333.63Z" style="fill:white;fill-rule:nonzero;"/>
                </g>
                <g transform="matrix(4.46886,0,0,4.46886,-17498,-8200.24)">
                    <path d="M4277.15,2339.41C4275.81,2339.41 4274.66,2338.92 4273.7,2337.94C4272.73,2336.96 4272.25,2335.8 4272.25,2334.44C4272.25,2333.07 4272.73,2331.9 4273.71,2330.93C4274.68,2329.97 4275.85,2329.48 4277.21,2329.48C4278.58,2329.48 4279.75,2329.97 4280.72,2330.93C4281.69,2331.9 4282.18,2333.07 4282.18,2334.43C4282.18,2335.82 4281.69,2337 4280.72,2337.96C4279.74,2338.93 4278.56,2339.41 4277.15,2339.41ZM4277.15,2338.7C4278.54,2338.7 4279.65,2338.19 4280.46,2337.17C4281.13,2336.34 4281.47,2335.43 4281.47,2334.44C4281.47,2333.27 4281.05,2332.27 4280.22,2331.44C4279.39,2330.61 4278.38,2330.19 4277.21,2330.19C4276.04,2330.19 4275.04,2330.61 4274.21,2331.44C4273.38,2332.27 4272.96,2333.27 4272.96,2334.44C4272.96,2335.6 4273.37,2336.6 4274.2,2337.44C4275.03,2338.28 4276.01,2338.7 4277.15,2338.7ZM4275.83,2337.33L4275.83,2331.65L4277.48,2331.65C4278.17,2331.65 4278.66,2331.77 4278.96,2332C4279.25,2332.23 4279.4,2332.62 4279.4,2333.15C4279.4,2333.76 4279.2,2334.23 4278.79,2334.57C4278.39,2334.91 4277.82,2335.08 4277.1,2335.08L4276.71,2335.08L4276.71,2337.33L4275.83,2337.33ZM4276.71,2334.43L4277.01,2334.43C4277.49,2334.43 4277.86,2334.33 4278.1,2334.13C4278.34,2333.93 4278.46,2333.63 4278.46,2333.22C4278.46,2332.92 4278.36,2332.69 4278.15,2332.53C4277.94,2332.38 4277.62,2332.3 4277.2,2332.3L4276.71,2332.3L4276.71,2334.43Z" style="fill:white;fill-rule:nonzero;"/>
                </g>
            </g>
            <g transform="matrix(0.112314,0,0,0.112314,-75.6764,-164.811)">
                <path d="M1065.99,1769.88C1071.13,1766.75 1078.09,1761.09 1090.78,1750.3C1085,1762.96 1088.3,1787.85 1113.25,1778.12C1127.29,1772.64 1132.81,1753.81 1135.32,1743.16C1140.93,1750.99 1143.85,1755.2 1147.16,1759.31L1147.16,1759.32C1148.71,1761.25 1150.35,1763.15 1152.38,1765.4C1152.49,1765.53 1152.63,1765.66 1152.77,1765.8C1165.24,1780.15 1165.77,1779.51 1180.19,1772.91L1180.63,1772.68L1180.92,1772.78C1194.56,1774.71 1192.44,1781.97 1206.2,1781.97C1214.2,1781.97 1223.45,1780.38 1230.08,1775.63L1231.37,1774.66L1231.37,1776.96C1231.52,1779.55 1232.12,1780.74 1233.42,1780.59L1233.56,1780.59L1233.96,1780.65C1234.04,1780.65 1234.11,1780.74 1234.24,1780.74L1237.1,1780.74C1252.17,1780.74 1275.7,1773.17 1283.69,1766.56C1283.69,1766.56 1288.23,1762.9 1291.35,1759.81L1291.52,1759.93C1291.59,1760.49 1291.61,1761.17 1291.53,1762.06C1291.53,1762.1 1291.52,1762.15 1291.52,1762.2C1288.79,1789 1326.47,1791.96 1344.67,1789.13C1353.11,1787.81 1361.53,1786.06 1369.64,1783.4C1378.24,1780.59 1386.62,1777.01 1394.62,1772.78C1402.88,1768.42 1410.58,1763.05 1418.25,1757.72C1421.3,1755.6 1424.12,1753.14 1426.7,1750.48C1427.75,1749.4 1430.44,1747.11 1429.02,1746.62C1424.09,1744.92 1412.8,1749.5 1408.74,1751.46C1379.6,1765.55 1357.21,1780.76 1324.54,1781.96C1309.92,1782.49 1297.06,1771.96 1299.79,1756.57C1299.81,1756.46 1299.83,1756.35 1299.85,1756.24C1300.4,1753.62 1301.22,1750.03 1302.5,1745.01L1302.7,1744.61C1321.12,1723.51 1343.43,1683.09 1354.69,1661.82C1356.09,1659.16 1357.65,1656.08 1359.25,1652.72L1386.25,1649.65L1443.34,1644.45C1446.86,1644.09 1449.42,1640.94 1449.06,1637.42C1448.7,1633.9 1445.55,1631.34 1442.04,1631.7L1384.98,1639.01L1364.03,1642.18C1367.79,1633.4 1371.34,1623.82 1373.54,1615.12C1374.58,1610.99 1375.32,1607.06 1375.62,1603.5C1375.97,1598.9 1371.54,1599.59 1369.56,1601.39C1363.15,1607.2 1356.87,1613.25 1351.52,1620.04C1345.28,1627.97 1339.95,1636.61 1334.95,1645.38C1334.7,1645.81 1334.45,1646.24 1334.2,1646.68L1324.31,1648.17L1272.62,1657.31C1272.07,1657.42 1261.86,1659.15 1258.39,1660.71C1255.56,1661.99 1255.26,1664.24 1255.66,1665.39C1256.18,1666.95 1257.87,1667.8 1259.44,1667.28C1260.04,1667.08 1260.53,1666.7 1260.88,1666.23L1273.79,1663.74L1325.55,1656.55L1328.96,1656.16C1314.7,1682.62 1302.36,1711.42 1294.73,1740.17L1294.29,1742.51C1294.23,1742.74 1294.17,1742.97 1294.11,1743.21C1287.06,1762.12 1261.1,1770.28 1242.57,1766.37L1243.31,1764.98C1245.96,1759.77 1252.33,1745.12 1261.45,1746.24C1263.48,1746.49 1264.55,1749.86 1266.58,1749.59C1267.02,1749.53 1279.58,1740.44 1273.93,1737.46C1268.12,1734.39 1260.97,1735.72 1254.87,1735.77C1243.14,1738.96 1244.15,1745.58 1236.15,1755.73C1226.96,1767.37 1206.09,1776.82 1191.59,1769.98C1190.67,1769.55 1191.56,1767.85 1192.11,1767C1194.53,1763.3 1210.39,1753.98 1213.81,1750.75C1217.86,1746.93 1221.99,1743.11 1225.23,1738.59C1232.17,1728.9 1218.11,1727.02 1212.23,1726.74C1199.84,1726.14 1193.96,1727.34 1183.72,1734.52C1175,1740.63 1175.62,1754.4 1176.2,1763.14L1176.28,1763.88L1175.54,1764.03C1171.2,1765.29 1168.69,1766.84 1166.26,1766.53C1164.83,1766.35 1163.37,1765.58 1161.16,1764.18C1158.94,1761.79 1156.11,1759.53 1154.66,1757.76C1147.22,1748.64 1144.61,1743.59 1136.97,1734.58C1137.68,1729.25 1138.28,1723.78 1137.11,1718.55C1136.71,1716.78 1131.8,1710.49 1126.31,1715.38C1119.54,1721.43 1123.35,1728.25 1129.67,1735.72C1127.85,1747.39 1117.74,1769.44 1102.04,1766.39C1093.99,1763.6 1108.09,1739.87 1114.29,1726.4C1128.27,1707.59 1142.13,1688.72 1156.17,1669.93C1169.87,1651.61 1187.99,1632.27 1193.4,1610.77C1195.47,1602.53 1180.68,1604.41 1176.26,1607.06C1166.46,1612.95 1159.04,1624.37 1153.68,1632.76C1125.77,1676.44 1120.46,1683.45 1100.23,1729.68C1090.06,1741.02 1067.83,1758.92 1055.41,1764.65C1052.33,1765.62 1048.67,1766.94 1044.33,1768.71C1043.57,1768.92 1042.81,1769.12 1042.05,1769.29C1038.23,1770.15 1034.34,1770.56 1029.79,1770.47C1022.49,1769.21 1016.97,1764.26 1018.65,1754.81C1018.67,1754.7 1018.69,1754.59 1018.71,1754.49C1019.26,1751.87 1020.08,1748.28 1021.36,1743.26L1021.56,1742.86C1039.97,1721.76 1062.29,1681.34 1073.54,1660.06C1081.14,1645.69 1092.99,1619.12 1094.48,1601.75C1094.82,1597.15 1090.39,1597.84 1088.41,1599.63C1082.01,1605.45 1075.72,1611.49 1070.38,1618.28C1064.14,1626.22 1058.81,1634.86 1053.8,1643.62C1037.05,1672.93 1022.26,1705.71 1013.59,1738.41L1013.15,1740.76C1013.09,1740.98 1013.03,1741.21 1012.97,1741.45C1005.92,1760.37 981.477,1770.23 968.399,1759.61C965.578,1755.22 963.705,1749.87 962.803,1743.66L962.67,1742.81L963.529,1742.7C968.375,1742.07 972.735,1741.4 976.838,1740.67C980.425,1740.05 983.917,1733.52 983.573,1729.55C983.344,1726.92 981.579,1726.92 980.988,1726.92C980.692,1726.92 980.377,1726.97 980.024,1727.01C974.5,1727.99 968.785,1728.8 962.536,1729.53L961.639,1729.63L961.592,1728.72C960.771,1710.98 962.594,1693.46 964.273,1680.18C966.391,1663.22 969.587,1646.67 973.756,1631L973.851,1630.8C974.729,1629.29 975.626,1627.77 976.532,1626.24C981.322,1618.23 986.264,1609.93 988.773,1601.46C989.565,1598.84 989.546,1596.57 988.696,1595.44C988.124,1594.68 987.199,1594.38 985.787,1594.51C976.685,1595.34 971.457,1610.05 968.652,1617.93L968.232,1619.11C967.144,1622.16 966.066,1625.54 964.912,1629.44C955.572,1646.02 945.449,1662.88 933.905,1681.16C922.332,1699.5 911.218,1715.88 899.912,1731.25L899.655,1731.6L899.206,1731.6C886.288,1731.13 882.749,1731 870.022,1730.06L869.745,1730.04C864.736,1730.04 854.003,1739.12 853.87,1742.51C853.87,1742.75 853.851,1743.18 855.062,1743.28C866.845,1744.18 877.549,1744.83 887.777,1745.25L889.399,1745.32L888.406,1746.61C880.306,1757.14 871.291,1767.95 860.205,1775.64C856.655,1778.11 854.576,1781.67 854.633,1785.21C854.671,1787.18 855.959,1788.76 857.581,1788.76C858.191,1788.76 858.821,1788.53 859.46,1788.09C873.743,1778.19 884.934,1764.64 896.077,1750.47C897.021,1749.27 897.956,1748.06 898.882,1746.85L899.779,1745.65L900.208,1745.66C904.225,1745.76 908.241,1745.8 912.248,1745.8C925.948,1745.8 938.523,1745.25 950.706,1744.13L951.565,1744.05L951.622,1744.91C952.254,1753.21 953.795,1764.65 959.743,1772.29L959.743,1772.29C968.065,1785.32 994.554,1771.42 1002.54,1764.81C1002.54,1764.81 1007.08,1761.15 1010.21,1758.05L1010.38,1758.18C1010.45,1758.73 1010.47,1759.41 1010.39,1760.3C1010.38,1760.35 1010.38,1760.4 1010.37,1760.45C1007.65,1787.24 1053.68,1777.94 1065.03,1770.55C1065.36,1770.34 1065.68,1770.12 1065.99,1769.88ZM1187.93,1756.84C1187.5,1755.81 1187.43,1754.66 1187.26,1753.55C1186.91,1751.23 1186.68,1749.23 1187.36,1746.92C1188.85,1741.82 1210.54,1741.89 1210.96,1741.49C1204.28,1747.87 1196.12,1752.67 1187.93,1756.84ZM955.572,1673.61C952.357,1694.15 950.897,1712.56 951.078,1729.89L951.088,1730.67L950.296,1730.73C940.145,1731.54 929.65,1731.93 918.24,1731.93C916.036,1731.93 913.832,1731.93 911.638,1731.88L910.035,1731.88L910.96,1730.54C919.194,1719.02 927.885,1706.08 938.284,1689.84C944.152,1680.72 950.086,1671.18 955.906,1661.49L957.47,1662.08C956.802,1665.92 956.154,1669.78 955.572,1673.61ZM1348.83,1653.9L1339.33,1654.98C1336.43,1659.95 1333.51,1665.26 1330.67,1670.73C1322.54,1686.4 1315.04,1703.43 1310.36,1717.89C1310.01,1719.25 1308.88,1722.93 1308.88,1722.93C1308.88,1722.93 1310.92,1719.97 1311.86,1718.73C1313.88,1715.74 1315.88,1712.65 1317.92,1709.49C1318.63,1708.39 1326.14,1695.65 1333.39,1683.05C1334.16,1681.7 1334.93,1680.36 1335.68,1679.04C1341.41,1669.02 1346.49,1659.89 1347.2,1657.84C1347.44,1657.15 1348.03,1655.74 1348.83,1653.9ZM1036.78,1707.73C1038.12,1705.63 1039.51,1703.49 1040.94,1701.3C1046.78,1692.43 1052.65,1683.17 1057.49,1673.32C1059.76,1668.71 1064.36,1660.96 1066.06,1656.08C1067.27,1652.59 1077.59,1630.59 1078.41,1626.94L1079.14,1623.75L1076.98,1626.08C1062.6,1641.64 1039.33,1684.89 1029.22,1716.14C1028.86,1717.49 1027.73,1721.18 1027.73,1721.18C1027.73,1721.18 1029.78,1718.21 1030.71,1716.98C1032.74,1713.98 1034.74,1710.89 1036.78,1707.73ZM1181.6,1616.27C1177.32,1615.65 1165.08,1630.9 1162.29,1635.31C1146.77,1659.85 1140.4,1670.66 1126.11,1695.67C1140.47,1674.79 1169.19,1637.92 1181.6,1616.27ZM1353.31,1643.79C1354.4,1641.34 1355.5,1638.86 1356.46,1636.63C1358.06,1632.91 1359.29,1629.87 1359.55,1628.7L1360.29,1625.5L1358.12,1627.83C1354.37,1631.9 1350.01,1637.85 1345.43,1644.99L1353.31,1643.79Z" style="fill:white;"/>
            </g>
        </g>
    </g>
</svg>
