<?xml version="1.0" encoding="UTF-8" standalone="no"?>
<!DOCTYPE svg PUBLIC "-//W3C//DTD SVG 1.1//EN" "http://www.w3.org/Graphics/SVG/1.1/DTD/svg11.dtd">
<svg width="752px" height="1277px" version="1.1" xmlns="http://www.w3.org/2000/svg" xmlns:xlink="http://www.w3.org/1999/xlink" xml:space="preserve" xmlns:serif="http://www.serif.com/" style="fill-rule:evenodd;clip-rule:evenodd;stroke-linejoin:round;stroke-miterlimit:2;">
    <g transform="matrix(1,0,0,1,-374.245,-536.891)">
        <g>
            <path d="M410.287,655.225L412.579,655.225C419.107,655.225 426.884,656.162 435.912,658.037C444.94,659.912 451.537,660.85 455.704,660.85C457.926,660.85 459.662,660.641 460.912,660.225C462.162,659.808 463.482,659.079 464.87,658.037C466.259,656.995 467.37,656.266 468.204,655.85L469.245,657.308C463.69,662.447 458.829,666.162 454.662,668.454C450.495,670.745 445.495,671.961 439.662,672.1C434.662,672.239 428.586,671.648 421.433,670.329C414.28,669.009 408.759,668.211 404.87,667.933C402.509,667.794 400.495,667.898 398.829,668.245C397.162,668.593 395.947,668.975 395.183,669.391C394.419,669.808 393.308,670.537 391.85,671.579C390.391,672.62 389.176,673.419 388.204,673.975L387.162,672.725L395.079,663.558C398.968,658.975 403.204,656.266 407.787,655.433C408.343,653.627 408.69,652.447 408.829,651.891C409.384,647.864 409.697,642.933 409.766,637.1C409.836,631.266 409.801,626.544 409.662,622.933C409.523,619.322 409.384,617.03 409.245,616.058C408.69,611.752 406.398,608.627 402.37,606.683C399.176,605.016 395.843,604.739 392.37,605.85L391.537,604.391L407.37,594.6L406.12,569.391C406.537,568.419 406.502,567.065 406.016,565.329C405.53,563.593 404.662,562.655 403.412,562.516C401.884,562.377 400.009,563.002 397.787,564.391L395.704,565.641L394.662,563.766C402.579,560.155 409.523,555.85 415.495,550.85C420.218,547.1 424.87,542.447 429.454,536.891L437.37,545.85C437.648,546.127 438.204,546.752 439.037,547.725C439.87,548.697 440.391,549.322 440.6,549.6C440.808,549.877 441.294,550.468 442.058,551.37C442.822,552.273 443.239,552.864 443.308,553.141C443.377,553.419 443.725,554.009 444.35,554.912C444.975,555.815 445.287,556.44 445.287,556.787C445.287,557.134 445.495,557.829 445.912,558.87C446.329,559.912 446.398,560.676 446.12,561.162C445.843,561.648 445.843,562.447 446.12,563.558C445.565,571.058 441.676,581.197 434.454,593.975L430.287,601.266L429.245,600.433L432.995,593.558C432.995,593.419 433.551,591.961 434.662,589.183C435.773,586.127 436.12,581.752 435.704,576.058C435.287,570.919 433.343,566.614 429.87,563.141L419.037,552.1L419.037,614.808C419.037,620.919 418.343,627.447 416.954,634.391C415.565,641.336 413.343,648.28 410.287,655.225Z" style="fill:white;fill-rule:nonzero;"/>
            <path d="M519.87,611.058C518.482,612.169 517.093,613.141 515.704,613.975C515.704,614.114 515.461,617.447 514.975,623.975C514.489,630.502 514.245,635.364 514.245,638.558C514.245,644.252 514.905,649.704 516.225,654.912C517.544,660.12 519.315,662.725 521.537,662.725C523.065,662.725 524.037,662.586 524.454,662.308L526.12,661.475L526.329,662.516L509.662,671.683L508.204,668.558C505.843,663.558 504.801,657.655 505.079,650.85C503.829,652.516 502.718,653.836 501.745,654.808L486.537,671.475L482.579,666.058C475.218,655.78 471.537,647.03 471.537,639.808C471.537,636.197 472.509,632.655 474.454,629.183C476.398,625.711 478.412,622.933 480.495,620.85C482.579,618.766 485.495,616.127 489.245,612.933C492.995,609.739 495.565,607.447 496.954,606.058C500.704,608.141 504.384,609.53 507.995,610.225C511.884,610.919 515.843,610.989 519.87,610.433L519.87,611.058ZM504.245,617.933C502.995,618.072 500.704,618.141 497.37,618.141C493.62,617.864 490.495,617.308 487.995,616.475C486.051,617.725 484.315,619.773 482.787,622.62C481.259,625.468 480.565,628.072 480.704,630.433C480.843,636.405 482.995,642.447 487.162,648.558L495.079,660.016C497.301,657.794 499.176,655.225 500.704,652.308C502.232,649.53 503.551,643.975 504.662,635.641L504.245,617.933Z" style="fill:white;fill-rule:nonzero;"/>
            <path d="M431.745,790.433L427.579,792.933C424.801,794.6 422.857,795.641 421.745,796.058C419.94,796.614 417.37,796.891 414.037,796.891L399.662,796.891C397.995,796.891 395.843,797.377 393.204,798.35C392.37,798.627 390.704,799.461 388.204,800.85L384.662,802.933L388.829,797.933C388.968,797.655 389.593,796.787 390.704,795.329C391.815,793.87 392.544,792.968 392.891,792.62C393.239,792.273 393.898,791.718 394.87,790.954C395.843,790.19 396.815,789.53 397.787,788.975C400.704,787.586 404.245,786.891 408.412,786.891L435.495,786.891L445.912,782.1C443.829,785.294 442.787,787.308 442.787,788.141C441.676,797.725 441.468,811.058 442.162,828.141C442.857,845.225 442.37,858.35 440.704,867.516C440.426,869.044 439.975,870.572 439.35,872.1C438.725,873.627 437.961,875.086 437.058,876.475C436.155,877.864 435.322,879.044 434.558,880.016C433.794,880.989 432.926,882.065 431.954,883.245C430.982,884.426 430.357,885.155 430.079,885.433L426.12,890.433C435.148,892.516 443.412,893.35 450.912,892.933C456.051,892.794 460.912,892.169 465.495,891.058C464.107,892.725 462.544,894.218 460.808,895.537C459.072,896.857 457.718,897.829 456.745,898.454C455.773,899.079 454.002,900.051 451.433,901.37C448.864,902.69 447.093,903.627 446.12,904.183C442.648,905.294 439.766,905.745 437.475,905.537C435.183,905.329 431.502,904.843 426.433,904.079C421.364,903.315 417.301,902.933 414.245,902.933L410.495,902.933L413.829,900.433C426.051,891.127 431.815,879.53 431.12,865.641C430.704,858.002 429.35,851.336 427.058,845.641C424.766,839.947 421.329,837.03 416.745,836.891C413.829,836.752 411.329,837.482 409.245,839.079C407.162,840.676 405.982,842.794 405.704,845.433C405.426,848.35 406.12,850.919 407.787,853.141C407.509,852.864 407.023,852.412 406.329,851.787C405.634,851.162 405.183,850.676 404.975,850.329C404.766,849.982 404.523,849.426 404.245,848.662C403.968,847.898 403.829,847.03 403.829,846.058C403.829,841.197 406.537,836.961 411.954,833.35C417.37,829.739 422.579,827.933 427.579,827.933L429.662,827.933L429.662,822.1C429.662,820.294 429.558,817.516 429.35,813.766C429.141,810.016 429.037,806.961 429.037,804.6C429.037,802.239 429.245,799.704 429.662,796.995C430.079,794.287 430.773,792.1 431.745,790.433Z" style="fill:white;fill-rule:nonzero;"/>
            <path d="M520.704,875.433C520.982,879.877 521.12,884.947 521.12,890.641C519.037,891.752 516.954,892.933 514.87,894.183C511.676,896.266 509.662,897.586 508.829,898.141C510.079,887.864 510.287,877.586 509.454,867.308C509.315,866.058 509.211,864.287 509.141,861.995C509.072,859.704 509.002,857.759 508.933,856.162C508.864,854.565 508.725,852.933 508.516,851.266C508.308,849.6 508.03,848.35 507.683,847.516C507.336,846.683 506.884,846.336 506.329,846.475C504.94,846.614 501.954,849.808 497.37,856.058C493.343,861.752 490.287,867.655 488.204,873.766L489.245,892.1C488.551,893.072 487.44,893.975 485.912,894.808C484.384,895.641 483.273,896.405 482.579,897.1C482.162,897.377 480.912,897.655 478.829,897.933C479.245,888.766 479.037,877.447 478.204,863.975C477.37,854.114 476.745,847.655 476.329,844.6L470.079,847.516L470.079,845.433C471.329,844.877 472.822,844.114 474.558,843.141C476.294,842.169 477.509,841.544 478.204,841.266C479.315,840.711 480.704,839.982 482.37,839.079C484.037,838.176 485.426,837.516 486.537,837.1L487.995,866.266C490.079,861.822 492.44,857.933 495.079,854.6C499.801,848.627 505.773,843.28 512.995,838.558L517.37,835.641C518.482,844.114 519.315,852.377 519.87,860.433C522.787,857.1 525.218,854.322 527.162,852.1C530.773,848.072 535.704,842.933 541.954,836.683L556.954,846.683L557.162,847.933C556.051,848.627 555.495,849.044 555.495,849.183C554.245,852.655 553.62,860.919 553.62,873.975L553.62,875.016C553.62,877.516 553.655,879.461 553.725,880.85C553.794,882.239 554.002,883.905 554.35,885.85C554.697,887.794 555.391,889.183 556.433,890.016C557.475,890.85 558.759,891.197 560.287,891.058C561.815,890.78 562.787,890.502 563.204,890.225L564.87,888.975L565.495,890.433L555.287,895.641C554.87,895.919 554.176,896.37 553.204,896.995C552.232,897.62 551.364,898.072 550.6,898.35C549.836,898.627 548.968,898.697 547.995,898.558C545.912,898.28 544.593,897.204 544.037,895.329C543.482,893.454 543.134,890.85 542.995,887.516L542.995,886.266C542.857,883.211 542.891,880.294 543.1,877.516C543.308,874.739 543.586,871.648 543.933,868.245C544.28,864.843 544.523,861.822 544.662,859.183L544.87,855.641L533.204,848.141C530.426,850.78 528.065,853.836 526.12,857.308C523.065,862.447 521.259,868.489 520.704,875.433Z" style="fill:white;fill-rule:nonzero;"/>
            <path d="M620.912,875.433C621.19,879.877 621.329,884.947 621.329,890.641C619.245,891.752 617.162,892.933 615.079,894.183C611.884,896.266 609.87,897.586 609.037,898.141C610.287,887.864 610.495,877.586 609.662,867.308C609.523,866.058 609.419,864.287 609.35,861.995C609.28,859.704 609.211,857.759 609.141,856.162C609.072,854.565 608.933,852.933 608.725,851.266C608.516,849.6 608.239,848.35 607.891,847.516C607.544,846.683 607.093,846.336 606.537,846.475C605.148,846.614 602.162,849.808 597.579,856.058C593.551,861.752 590.495,867.655 588.412,873.766L589.454,892.1C588.759,893.072 587.648,893.975 586.12,894.808C584.593,895.641 583.482,896.405 582.787,897.1C582.37,897.377 581.12,897.655 579.037,897.933C579.454,888.766 579.245,877.447 578.412,863.975C577.579,854.114 576.954,847.655 576.537,844.6L570.287,847.516L570.287,845.433C571.537,844.877 573.03,844.114 574.766,843.141C576.502,842.169 577.718,841.544 578.412,841.266C579.523,840.711 580.912,839.982 582.579,839.079C584.245,838.176 585.634,837.516 586.745,837.1L588.204,866.266C590.287,861.822 592.648,857.933 595.287,854.6C600.009,848.627 605.982,843.28 613.204,838.558L617.579,835.641C618.69,844.114 619.523,852.377 620.079,860.433C622.995,857.1 625.426,854.322 627.37,852.1C630.982,848.072 635.912,842.933 642.162,836.683L657.162,846.683L657.37,847.933C656.259,848.627 655.704,849.044 655.704,849.183C654.454,852.655 653.829,860.919 653.829,873.975L653.829,875.016C653.829,877.516 653.864,879.461 653.933,880.85C654.002,882.239 654.211,883.905 654.558,885.85C654.905,887.794 655.6,889.183 656.641,890.016C657.683,890.85 658.968,891.197 660.495,891.058C662.023,890.78 662.995,890.502 663.412,890.225L665.079,888.975L665.704,890.433L655.495,895.641C655.079,895.919 654.384,896.37 653.412,896.995C652.44,897.62 651.572,898.072 650.808,898.35C650.044,898.627 649.176,898.697 648.204,898.558C646.12,898.28 644.801,897.204 644.245,895.329C643.69,893.454 643.343,890.85 643.204,887.516L643.204,886.266C643.065,883.211 643.1,880.294 643.308,877.516C643.516,874.739 643.794,871.648 644.141,868.245C644.489,864.843 644.732,861.822 644.87,859.183L645.079,855.641L633.412,848.141C630.634,850.78 628.273,853.836 626.329,857.308C623.273,862.447 621.468,868.489 620.912,875.433Z" style="fill:white;fill-rule:nonzero;"/>
            <path d="M692.162,898.975L674.454,885.433C674.732,880.989 674.87,875.364 674.87,868.558C674.87,863.419 674.662,857.308 674.245,850.225L695.912,833.141C697.44,835.919 699.801,838.28 702.995,840.225C705.773,841.752 709.037,842.725 712.787,843.141L684.245,864.808L683.62,874.808L695.912,885.225C697.857,886.752 699.593,887.447 701.12,887.308C703.065,887.169 704.87,886.058 706.537,883.975L708.829,881.266L710.079,882.308L692.162,898.975ZM684.245,862.1L698.62,851.266C696.398,850.433 694.384,849.461 692.579,848.35C689.94,846.961 687.718,845.502 685.912,843.975L684.245,862.1ZM683.829,821.058L695.287,804.183L706.12,804.183L683.829,821.058Z" style="fill:white;fill-rule:nonzero;"/>
            <path d="M752.787,837.725C751.537,836.475 749.315,834.391 746.12,831.475C742.926,828.558 740.53,826.266 738.933,824.6C737.336,822.933 735.461,820.711 733.308,817.933C731.155,815.155 729.593,812.308 728.62,809.391C727.648,806.475 727.162,803.35 727.162,800.016C727.023,792.655 732.093,786.544 742.37,781.683C752.648,776.822 762.995,774.53 773.412,774.808C777.995,774.947 782.475,776.475 786.85,779.391C791.225,782.308 793.412,785.85 793.412,790.016C793.412,790.989 793.169,792.134 792.683,793.454C792.197,794.773 791.711,795.884 791.225,796.787C790.739,797.69 789.975,798.975 788.933,800.641C787.891,802.308 787.093,803.558 786.537,804.391L777.995,818.766L781.329,809.6C782.579,806.127 783.134,803.419 782.995,801.475C782.44,795.641 779.766,790.78 774.975,786.891C770.183,783.002 764.94,781.058 759.245,781.058C753.551,781.058 748.62,782.065 744.454,784.079C740.287,786.093 738.273,789.252 738.412,793.558C738.69,797.864 740.218,802.134 742.995,806.37C745.773,810.607 749.072,814.495 752.891,818.037C756.711,821.579 760.495,825.225 764.245,828.975C767.995,832.725 771.19,837.03 773.829,841.891C776.468,846.752 777.787,851.822 777.787,857.1C777.787,859.461 777.509,861.752 776.954,863.975C776.398,866.197 775.877,867.968 775.391,869.287C774.905,870.607 773.794,872.412 772.058,874.704C770.322,876.995 769.176,878.454 768.62,879.079C768.065,879.704 766.468,881.405 763.829,884.183C761.19,886.961 759.662,888.558 759.245,888.975L751.745,897.1L746.537,893.766C734.454,885.989 729.037,876.544 730.287,865.433C730.982,857.655 734.732,851.197 741.537,846.058L752.787,837.725ZM766.745,866.891C766.745,856.614 762.509,847.377 754.037,839.183L750.287,841.683C744.87,845.294 742.162,851.683 742.162,860.85C742.162,870.016 745.773,876.822 752.995,881.266L759.037,885.016L762.37,881.475C765.287,878.419 766.745,873.558 766.745,866.891Z" style="fill:white;fill-rule:nonzero;"/>
            <path d="M812.162,855.85L812.162,882.308C812.162,886.058 813.412,888.002 815.912,888.141C816.884,888.28 817.995,888.002 819.245,887.308L820.495,886.266L821.329,887.516L809.245,895.225C806.745,896.891 805.218,897.655 804.662,897.516C802.579,897.239 801.537,894.877 801.537,890.433L801.745,848.558C800.218,846.614 799.107,845.364 798.412,844.808C796.329,843.28 794.107,842.447 791.745,842.308C794.245,841.058 796.676,839.53 799.037,837.725C801.259,836.058 803.343,834.252 805.287,832.308C806.398,833.558 808.134,835.225 810.495,837.308C813.551,839.53 815.634,840.919 816.745,841.475C816.19,842.03 815.495,843.002 814.662,844.391C812.995,847.586 812.162,851.405 812.162,855.85Z" style="fill:white;fill-rule:nonzero;"/>
            <path d="M878.204,838.141C876.815,839.252 875.426,840.225 874.037,841.058C874.037,841.197 873.794,844.53 873.308,851.058C872.822,857.586 872.579,862.447 872.579,865.641C872.579,871.336 873.239,876.787 874.558,881.995C875.877,887.204 877.648,889.808 879.87,889.808C881.398,889.808 882.37,889.669 882.787,889.391L884.454,888.558L884.662,889.6L867.995,898.766L866.537,895.641C864.176,890.641 863.134,884.739 863.412,877.933C862.162,879.6 861.051,880.919 860.079,881.891L844.87,898.558L840.912,893.141C833.551,882.864 829.87,874.114 829.87,866.891C829.87,863.28 830.843,859.739 832.787,856.266C834.732,852.794 836.745,850.016 838.829,847.933C840.912,845.85 843.829,843.211 847.579,840.016C851.329,836.822 853.898,834.53 855.287,833.141C859.037,835.225 862.718,836.614 866.329,837.308C870.218,838.002 874.176,838.072 878.204,837.516L878.204,838.141ZM862.579,845.016C861.329,845.155 859.037,845.225 855.704,845.225C851.954,844.947 848.829,844.391 846.329,843.558C844.384,844.808 842.648,846.857 841.12,849.704C839.593,852.551 838.898,855.155 839.037,857.516C839.176,863.489 841.329,869.53 845.495,875.641L853.412,887.1C855.634,884.877 857.509,882.308 859.037,879.391C860.565,876.614 861.884,871.058 862.995,862.725L862.579,845.016Z" style="fill:white;fill-rule:nonzero;"/>
            <path d="M910.912,835.641L938.204,835.85L931.329,840.016C928.412,841.683 925.843,842.794 923.62,843.35C922.232,843.766 920.009,843.975 916.954,843.975L910.287,844.183C909.732,856.822 910.079,869.114 911.329,881.058L918.62,888.35C920.148,889.877 921.329,890.641 922.162,890.641C922.579,890.641 923.273,890.364 924.245,889.808L925.912,888.975L926.329,890.641L909.037,898.558L899.245,890.641C899.384,889.53 899.523,888.28 899.662,886.891C899.801,885.502 899.94,884.252 900.079,883.141C900.218,882.03 900.287,880.78 900.287,879.391C900.843,871.614 901.12,860.016 901.12,844.6L890.495,844.808L901.329,838.558L901.329,831.475C901.607,826.197 904.662,821.475 910.495,817.308L916.537,812.933C913.898,816.822 912.509,819.391 912.37,820.641C911.398,828.697 910.912,833.697 910.912,835.641Z" style="fill:white;fill-rule:nonzero;"/>
            <path d="M450.704,1061.06C453.065,1058.97 455.148,1056.61 456.954,1053.97C458.759,1051.34 460.218,1048.63 461.329,1045.85C463.412,1048.63 465.495,1050.71 467.579,1052.1C469.662,1053.63 472.162,1054.95 475.079,1056.06C472.995,1058 470.982,1060.22 469.037,1062.72C467.37,1064.95 465.982,1067.17 464.87,1069.39C462.926,1067.31 460.426,1065.43 457.37,1063.77C455.148,1062.52 452.926,1061.61 450.704,1061.06ZM452.787,1114.39C447.093,1112.45 440.843,1110.92 434.037,1109.81C433.62,1118.84 432.301,1128.14 430.079,1137.73C427.718,1148.98 424.732,1159.11 421.12,1168.14L416.954,1178.56L415.287,1177.73L417.579,1170.64C418.412,1168.42 419.454,1164.18 420.704,1157.93C422.648,1147.1 423.551,1138.98 423.412,1133.56L422.787,1109.18C414.454,1108.49 407.787,1108.9 402.787,1110.43C397.787,1111.96 392.579,1114.88 387.162,1119.18L383.204,1122.31L382.787,1120.02L386.329,1116.89C397.44,1107.31 409.523,1101.61 422.579,1099.81L421.954,1077.52C421.12,1052.38 419.87,1037.17 418.204,1031.89C417.926,1030.78 417.579,1029.88 417.162,1029.18C414.662,1024.88 411.364,1021.13 407.266,1017.93C403.169,1014.74 399.662,1013.14 396.745,1013.14C394.94,1013.14 393.273,1013.84 391.745,1015.23L388.204,1018.14L387.162,1016.68L398.204,1007.73C403.62,1003.14 407.37,1000.78 409.454,1000.64C413.204,1000.36 418.273,1003.32 424.662,1009.5C431.051,1015.68 434.245,1023.42 434.245,1032.72L434.245,1099.18C451.329,1098.77 466.468,1102.17 479.662,1109.39C486.468,1103.56 491.19,1096.82 493.829,1089.18C496.468,1081.54 497.926,1072.79 498.204,1062.93C498.482,1052.79 494.87,1043.8 487.37,1035.95C479.87,1028.11 470.634,1021.61 459.662,1016.48L452.579,1013.14L449.454,1016.89C444.593,1022.73 441.398,1028.7 439.87,1034.81C438.343,1040.92 437.718,1048.42 437.995,1057.31C438.134,1064.11 439.454,1070.92 441.954,1077.72L443.62,1082.31L441.954,1084.18L440.079,1079.18C437.579,1072.79 436.259,1065.43 436.12,1057.1C435.704,1045.15 437.266,1034.7 440.808,1025.75C444.35,1016.79 450.287,1007.93 458.62,999.183C462.37,999.6 466.989,1001.06 472.475,1003.56C477.961,1006.06 483.551,1009.43 489.245,1013.66C494.94,1017.9 499.94,1023.35 504.245,1030.02C508.551,1036.68 511.12,1043.77 511.954,1051.27C514.593,1076.68 504.87,1096.54 482.787,1110.85L468.62,1120.02L452.787,1114.39Z" style="fill:white;fill-rule:nonzero;"/>
            <path d="M576.12,1065.22C574.732,1066.34 573.343,1067.31 571.954,1068.14C571.954,1068.28 571.711,1071.61 571.225,1078.14C570.739,1084.67 570.495,1089.53 570.495,1092.73C570.495,1098.42 571.155,1103.87 572.475,1109.08C573.794,1114.29 575.565,1116.89 577.787,1116.89C579.315,1116.89 580.287,1116.75 580.704,1116.48L582.37,1115.64L582.579,1116.68L565.912,1125.85L564.454,1122.73C562.093,1117.73 561.051,1111.82 561.329,1105.02C560.079,1106.68 558.968,1108 557.995,1108.98L542.787,1125.64L538.829,1120.23C531.468,1109.95 527.787,1101.2 527.787,1093.98C527.787,1090.36 528.759,1086.82 530.704,1083.35C532.648,1079.88 534.662,1077.1 536.745,1075.02C538.829,1072.93 541.745,1070.29 545.495,1067.1C549.245,1063.9 551.815,1061.61 553.204,1060.22C556.954,1062.31 560.634,1063.7 564.245,1064.39C568.134,1065.09 572.093,1065.15 576.12,1064.6L576.12,1065.22ZM560.495,1072.1C559.245,1072.24 556.954,1072.31 553.62,1072.31C549.87,1072.03 546.745,1071.47 544.245,1070.64C542.301,1071.89 540.565,1073.94 539.037,1076.79C537.509,1079.63 536.815,1082.24 536.954,1084.6C537.093,1090.57 539.245,1096.61 543.412,1102.73L551.329,1114.18C553.551,1111.96 555.426,1109.39 556.954,1106.48C558.482,1103.7 559.801,1098.14 560.912,1089.81L560.495,1072.1Z" style="fill:white;fill-rule:nonzero;"/>
            <path d="M609.037,1082.93L609.037,1109.39C609.037,1113.14 610.287,1115.09 612.787,1115.23C613.759,1115.36 614.87,1115.09 616.12,1114.39L617.37,1113.35L618.204,1114.6L606.12,1122.31C603.62,1123.98 602.093,1124.74 601.537,1124.6C599.454,1124.32 598.412,1121.96 598.412,1117.52L598.62,1075.64C597.093,1073.7 595.982,1072.45 595.287,1071.89C593.204,1070.36 590.982,1069.53 588.62,1069.39C591.12,1068.14 593.551,1066.61 595.912,1064.81C598.134,1063.14 600.218,1061.34 602.162,1059.39C603.273,1060.64 605.009,1062.31 607.37,1064.39C610.426,1066.61 612.509,1068 613.62,1068.56C613.065,1069.11 612.37,1070.09 611.537,1071.47C609.87,1074.67 609.037,1078.49 609.037,1082.93Z" style="fill:white;fill-rule:nonzero;"/>
            <path d="M646.12,1109.81C649.593,1106.48 653.551,1101.82 657.995,1095.85C652.995,1088.35 649.037,1082.1 646.12,1077.1C645.287,1075.85 644.384,1075.29 643.412,1075.43C642.44,1075.57 641.364,1076.2 640.183,1077.31C639.002,1078.42 638.273,1079.53 637.995,1080.64C637.857,1081.75 638.204,1082.93 639.037,1084.18L637.787,1084.81C637.093,1083.7 636.745,1082.59 636.745,1081.47C636.607,1079.67 637.093,1078 638.204,1076.47L649.662,1065.64C650.357,1064.95 651.259,1064.6 652.37,1064.6C653.62,1064.6 654.454,1065.15 654.87,1066.27C657.37,1070.57 661.259,1076.82 666.537,1085.02C674.593,1074.32 680.218,1066.82 683.412,1062.52C684.107,1064.6 685.565,1066.27 687.787,1067.52C689.732,1068.35 691.745,1068.63 693.829,1068.35L688.204,1075.64C686.954,1077.59 685.426,1078.56 683.62,1078.56C682.232,1078.56 680.912,1078.14 679.662,1077.31L676.537,1075.02C673.482,1080.02 670.704,1084.25 668.204,1087.72C673.62,1095.78 680.009,1104.11 687.37,1112.73C688.62,1113.98 689.523,1114.53 690.079,1114.39C691.745,1114.25 693.759,1112.65 696.12,1109.6C696.259,1109.46 696.398,1109.29 696.537,1109.08C696.676,1108.87 696.815,1108.73 696.954,1108.66C697.093,1108.59 697.266,1108.45 697.475,1108.25C697.683,1108.04 697.857,1107.86 697.995,1107.73L698.829,1109.81L683.829,1124.18C683.134,1124.88 682.232,1125.23 681.12,1125.23C679.87,1125.23 678.968,1124.6 678.412,1123.35C674.107,1118.07 667.995,1109.81 660.079,1098.56C656.051,1103.84 652.023,1108.49 647.995,1112.52C650.079,1114.46 652.718,1115.92 655.912,1116.89C657.579,1117.59 658.968,1117.93 660.079,1117.93L664.87,1117.93L656.954,1122.31C656.537,1122.59 655.843,1123 654.87,1123.56C653.898,1124.11 653.169,1124.53 652.683,1124.81C652.197,1125.09 651.537,1125.33 650.704,1125.54C649.87,1125.75 649.037,1125.85 648.204,1125.85C647.232,1125.85 645.634,1125.43 643.412,1124.6L632.787,1120.02C638.343,1116.4 642.787,1113 646.12,1109.81Z" style="fill:white;fill-rule:nonzero;"/>
            <path d="M464.245,1337.93C471.19,1339.88 476.815,1338.7 481.12,1334.39C482.648,1332.86 483.725,1331.2 484.35,1329.39C484.975,1327.59 485.252,1325.78 485.183,1323.98C485.114,1322.17 485.079,1320.09 485.079,1317.73L483.412,1243.14L469.662,1241.68L469.454,1240.23C472.37,1239.25 475.009,1238.21 477.37,1237.1C479.87,1235.57 482.023,1233.98 483.829,1232.31C486.19,1233.14 489.176,1233.9 492.787,1234.6C496.954,1235.43 500.565,1235.85 503.62,1235.85L512.787,1235.85L512.787,1237.73L509.245,1238.56C508.829,1238.7 508.169,1238.84 507.266,1238.98C506.364,1239.11 505.704,1239.25 505.287,1239.39C504.87,1239.53 504.315,1239.7 503.62,1239.91C502.926,1240.12 502.336,1240.43 501.85,1240.85C501.364,1241.27 500.912,1241.75 500.495,1242.31C498.134,1245.5 496.954,1252.52 496.954,1263.35L496.954,1320.23C496.954,1335.5 500.287,1342.65 506.954,1341.68C508.62,1341.4 509.662,1341.06 510.079,1340.64L512.995,1338.56L514.037,1339.6L509.037,1343.56C501.954,1349.39 496.607,1352.38 492.995,1352.52C491.051,1352.65 489.35,1350.85 487.891,1347.1C486.433,1343.35 485.704,1339.6 485.704,1335.85L485.704,1331.68L475.495,1343.35C475.079,1343.9 474.211,1344.95 472.891,1346.48C471.572,1348 470.739,1348.9 470.391,1349.18C470.044,1349.46 469.315,1350.02 468.204,1350.85C467.093,1351.68 466.086,1352.1 465.183,1352.1L461.433,1352.1C459.836,1352.1 458.065,1351.79 456.12,1351.16C454.176,1350.54 451.884,1349.74 449.245,1348.77C443.134,1346.54 434.801,1344.46 424.245,1342.52C413.69,1340.57 407.093,1340.36 404.454,1341.89L401.954,1343.35L400.912,1340.43L406.537,1337.52C407.648,1336.82 409.107,1335.29 410.912,1332.93C417.857,1325.57 422.961,1318.21 426.225,1310.85C429.489,1303.49 431.19,1295.09 431.329,1285.64C431.607,1273.14 428.864,1262.83 423.1,1254.7C417.336,1246.58 409.315,1243 399.037,1243.98C392.648,1244.53 387.093,1246.82 382.37,1250.85L375.704,1256.48L374.245,1255.64L382.37,1247.52C391.815,1238.07 402.301,1233.35 413.829,1233.35C420.495,1233.35 426.607,1235.99 432.162,1241.27C437.718,1246.54 441.19,1252.38 442.579,1258.77C446.051,1274.88 443.343,1290.78 434.454,1306.48C432.926,1309.11 431.468,1311.54 430.079,1313.77C428.69,1315.99 427.579,1317.73 426.745,1318.98C425.912,1320.23 424.905,1321.51 423.725,1322.83C422.544,1324.15 421.78,1324.98 421.433,1325.33C421.086,1325.68 420.357,1326.4 419.245,1327.52L417.579,1328.98L421.954,1328.98C425.843,1328.98 430.079,1329.36 434.662,1330.12C439.245,1330.88 443.03,1331.68 446.016,1332.52C449.002,1333.35 452.544,1334.39 456.641,1335.64C460.739,1336.89 463.273,1337.65 464.245,1337.93Z" style="fill:white;fill-rule:nonzero;"/>
            <path d="M550.287,1312.93C553.204,1309.74 555.218,1307.52 556.329,1306.27C559.94,1302.24 564.87,1297.1 571.12,1290.85L586.12,1300.85L586.329,1302.1C585.218,1302.79 584.662,1303.21 584.662,1303.35C583.412,1306.82 582.787,1315.09 582.787,1328.14L582.787,1329.18C582.787,1331.68 582.822,1333.63 582.891,1335.02C582.961,1336.4 583.169,1338.07 583.516,1340.02C583.864,1341.96 584.558,1343.35 585.6,1344.18C586.641,1345.02 587.926,1345.36 589.454,1345.23C590.982,1344.95 591.954,1344.67 592.37,1344.39L594.037,1343.14L594.662,1344.6L584.454,1349.81C584.037,1350.09 583.343,1350.54 582.37,1351.16C581.398,1351.79 580.53,1352.24 579.766,1352.52C579.002,1352.79 578.134,1352.86 577.162,1352.73C575.079,1352.45 573.759,1351.37 573.204,1349.5C572.648,1347.62 572.301,1345.02 572.162,1341.68L572.162,1340.43C572.023,1337.38 572.023,1334.46 572.162,1331.68C572.301,1328.9 572.579,1325.82 572.995,1322.41C573.412,1319.01 573.69,1315.99 573.829,1313.35L574.037,1309.81L562.37,1302.31C559.593,1304.95 557.232,1308 555.287,1311.48C551.815,1317.17 550.079,1322.93 550.079,1328.77L549.87,1345.43L538.412,1352.1C539.662,1340.85 540.287,1329.6 540.287,1318.35C540.287,1311.96 540.009,1305.36 539.454,1298.56L535.079,1300.64L535.287,1298.56C536.398,1298.14 539.037,1296.82 543.204,1294.6C545.287,1293.35 547.787,1291.68 550.704,1289.6L550.287,1312.93Z" style="fill:white;fill-rule:nonzero;"/>
            <path d="M623.829,1310.02L623.829,1336.48C623.829,1340.23 625.079,1342.17 627.579,1342.31C628.551,1342.45 629.662,1342.17 630.912,1341.48L632.162,1340.43L632.995,1341.68L620.912,1349.39C618.412,1351.06 616.884,1351.82 616.329,1351.68C614.245,1351.4 613.204,1349.04 613.204,1344.6L613.412,1302.73C611.884,1300.78 610.773,1299.53 610.079,1298.98C607.995,1297.45 605.773,1296.61 603.412,1296.48C605.912,1295.23 608.343,1293.7 610.704,1291.89C612.926,1290.23 615.009,1288.42 616.954,1286.48C618.065,1287.73 619.801,1289.39 622.162,1291.48C625.218,1293.7 627.301,1295.09 628.412,1295.64C627.857,1296.2 627.162,1297.17 626.329,1298.56C624.662,1301.75 623.829,1305.57 623.829,1310.02Z" style="fill:white;fill-rule:nonzero;"/>
            <path d="M660.704,1295.23L669.87,1309.18C674.315,1304.74 679.28,1300.88 684.766,1297.62C690.252,1294.36 694.176,1292.52 696.537,1292.1C699.593,1291.68 702.44,1292.69 705.079,1295.12C707.718,1297.55 708.968,1300.36 708.829,1303.56C708.69,1306.89 707.857,1310.36 706.329,1313.98C704.801,1317.59 703.308,1320.47 701.85,1322.62C700.391,1324.77 697.995,1328.14 694.662,1332.73L680.912,1351.48L662.37,1322.52C658.759,1328.49 657.162,1334.18 657.579,1339.6C657.995,1344.6 660.357,1350.92 664.662,1358.56L666.537,1361.89L665.704,1362.73L664.454,1360.64C659.176,1352.17 656.398,1344.46 656.12,1337.52C655.843,1331.68 657.509,1325.99 661.12,1320.43L651.745,1305.85C650.912,1304.74 650.009,1304.25 649.037,1304.39C648.204,1304.53 647.162,1305.15 645.912,1306.27C644.662,1307.38 643.968,1308.42 643.829,1309.39C643.69,1310.5 643.968,1311.68 644.662,1312.93L643.62,1313.56C642.787,1312.59 642.37,1311.48 642.37,1310.23C642.093,1308.42 642.648,1306.82 644.037,1305.43L655.287,1294.6C655.982,1293.77 656.884,1293.35 657.995,1293.35C658.551,1293.35 659.454,1293.98 660.704,1295.23ZM671.329,1311.48L688.204,1336.68L691.12,1331.48C694.732,1324.95 696.468,1318.7 696.329,1312.73C696.19,1309.53 695.252,1306.58 693.516,1303.87C691.78,1301.16 689.732,1299.88 687.37,1300.02C684.593,1300.02 679.245,1303.84 671.329,1311.48Z" style="fill:white;fill-rule:nonzero;"/>
            <path d="M739.245,1353.14L721.537,1339.6C721.815,1335.15 721.954,1329.53 721.954,1322.73C721.954,1317.59 721.745,1311.48 721.329,1304.39L742.995,1287.31C744.523,1290.09 746.884,1292.45 750.079,1294.39C752.857,1295.92 756.12,1296.89 759.87,1297.31L731.329,1318.98L730.704,1328.98L742.995,1339.39C744.94,1340.92 746.676,1341.61 748.204,1341.48C750.148,1341.34 751.954,1340.23 753.62,1338.14L755.912,1335.43L757.162,1336.48L739.245,1353.14ZM731.329,1316.27L745.704,1305.43C743.482,1304.6 741.468,1303.63 739.662,1302.52C737.023,1301.13 734.801,1299.67 732.995,1298.14L731.329,1316.27Z" style="fill:white;fill-rule:nonzero;"/>
            <path d="M790.912,1315.23L790.079,1341.27C792.44,1342.24 795.009,1343.14 797.787,1343.98C801.12,1344.95 804.315,1345.5 807.37,1345.64L800.704,1349.6C800.287,1349.74 799.732,1350.12 799.037,1350.75C798.343,1351.37 797.648,1351.82 796.954,1352.1C796.259,1352.38 795.565,1352.52 794.87,1352.52C789.732,1352.52 784.94,1352.1 780.495,1351.27L774.662,1350.23L777.162,1347.1C777.995,1346.27 778.551,1345.5 778.829,1344.81C779.523,1343.28 779.87,1341.2 779.87,1338.56L779.87,1312.1C779.87,1308.07 778.759,1305.02 776.537,1302.93C775.009,1301.68 773.759,1300.99 772.787,1300.85L769.662,1300.23L780.495,1293.56C782.44,1292.45 784.107,1291.89 785.495,1291.89C787.579,1291.89 789.176,1292.97 790.287,1295.12C791.398,1297.27 791.815,1299.67 791.537,1302.31L791.12,1306.68C791.815,1305.85 793.829,1303.56 797.162,1299.81C801.884,1295.09 804.87,1292.79 806.12,1292.93C807.648,1293.07 809.245,1293.73 810.912,1294.91C812.579,1296.09 813.482,1297.52 813.62,1299.18C813.759,1300.57 813.273,1302.38 812.162,1304.6L805.912,1316.27L805.704,1312.93C805.565,1310.71 804.523,1308.59 802.579,1306.58C800.634,1304.57 798.968,1303.77 797.579,1304.18C795.773,1304.6 793.898,1307.38 791.954,1312.52L790.912,1315.23Z" style="fill:white;fill-rule:nonzero;"/>
            <path d="M868.412,1305.23C870.773,1305.78 873.343,1307.41 876.12,1310.12C878.898,1312.83 880.287,1315.71 880.287,1318.77C880.287,1324.18 879.107,1328.9 876.745,1332.93C874.384,1336.96 870.704,1341.68 865.704,1347.1L860.495,1352.73L845.495,1341.89C837.023,1335.78 831.468,1332.65 828.829,1332.52C827.301,1332.52 825.982,1332.79 824.87,1333.35L822.787,1334.6L821.954,1333.56L827.162,1330.02C827.857,1329.6 828.759,1328.94 829.87,1328.04C830.982,1327.13 831.85,1326.44 832.475,1325.95C833.1,1325.47 833.968,1325.02 835.079,1324.6C836.19,1324.18 837.301,1323.9 838.412,1323.77C840.495,1323.49 842.752,1324.11 845.183,1325.64C847.614,1327.17 850.53,1329.39 853.933,1332.31C857.336,1335.23 860.148,1337.38 862.37,1338.77L867.787,1342.1C868.62,1340.15 869.176,1336.54 869.454,1331.27C869.593,1326.27 868.204,1322.17 865.287,1318.98C862.37,1315.78 859.94,1314.32 857.995,1314.6C856.19,1314.88 854.037,1315.64 851.537,1316.89L839.245,1322.93C838.273,1319.18 837.857,1315.64 837.995,1312.31C838.134,1308 838.968,1304.25 840.495,1301.06C844.107,1299.25 848.204,1296.89 852.787,1293.98C855.843,1291.89 859.315,1289.04 863.204,1285.43C864.732,1287.38 866.884,1289.32 869.662,1291.27C873.829,1293.35 877.857,1294.32 881.745,1294.18L868.412,1305.23ZM863.62,1307.73L870.912,1300.23C868.69,1300.5 865.982,1300.23 862.787,1299.39C859.732,1298.56 856.884,1297.17 854.245,1295.23C851.745,1298.42 850.218,1302.03 849.662,1306.06C849.245,1309.53 849.662,1312.73 850.912,1315.64L863.62,1307.73Z" style="fill:white;fill-rule:nonzero;"/>
            <path d="M910.704,1353.14L892.995,1339.6C893.273,1335.15 893.412,1329.53 893.412,1322.73C893.412,1317.59 893.204,1311.48 892.787,1304.39L914.454,1287.31C915.982,1290.09 918.343,1292.45 921.537,1294.39C924.315,1295.92 927.579,1296.89 931.329,1297.31L902.787,1318.98L902.162,1328.98L914.454,1339.39C916.398,1340.92 918.134,1341.61 919.662,1341.48C921.607,1341.34 923.412,1340.23 925.079,1338.14L927.37,1335.43L928.62,1336.48L910.704,1353.14ZM902.787,1316.27L917.162,1305.43C914.94,1304.6 912.926,1303.63 911.12,1302.52C908.482,1301.13 906.259,1299.67 904.454,1298.14L902.787,1316.27Z" style="fill:white;fill-rule:nonzero;"/>
            <path d="M961.745,1285.23C969.107,1279.67 975.773,1272.55 981.745,1263.87C987.718,1255.19 989.732,1249.81 987.787,1247.73C984.454,1244.25 980.461,1242.38 975.808,1242.1C971.155,1241.82 968.134,1242.65 966.745,1244.6C965.079,1246.27 963.69,1250.12 962.579,1256.16C961.468,1262.2 961.051,1268.28 961.329,1274.39L961.745,1285.23ZM998.62,1274.39L998.829,1279.39C1005.91,1273.84 1012.93,1267.45 1019.87,1260.23C1026.82,1253 1032.06,1246.65 1035.6,1241.16C1039.14,1235.68 1040.08,1232.38 1038.41,1231.27C1034.25,1228.49 1027.82,1226.82 1019.14,1226.27C1010.46,1225.71 1005.43,1226.34 1004.04,1228.14C1002.23,1229.95 1000.77,1235.78 999.662,1245.64C998.551,1255.5 998.204,1265.09 998.62,1274.39ZM998.829,1281.89L1000.91,1343.98L1012.37,1350.23L999.037,1357.31L987.162,1350.64L988.829,1349.39C989.662,1320.36 990.148,1299.74 990.287,1287.52L983.204,1291.68L981.745,1290.23L990.287,1285.43C990.148,1282.1 989.94,1277.2 989.662,1270.75C989.384,1264.29 989.245,1260.02 989.245,1257.93C985.912,1262.93 981.572,1268.38 976.225,1274.29C970.877,1280.19 966.051,1284.67 961.745,1287.73L963.62,1343.98L975.079,1350.23L961.745,1357.31L949.87,1350.64L951.537,1349.39C952.648,1331.34 953.273,1312.52 953.412,1292.93L945.704,1296.48L944.454,1295.23C949.593,1292.86 952.579,1291.4 953.412,1290.85C953.412,1287.65 953.239,1282.86 952.891,1276.48C952.544,1270.09 952.405,1265.09 952.475,1261.48C952.544,1257.86 952.857,1255.23 953.412,1253.56C956.19,1246.48 961.676,1241.23 969.87,1237.83C978.065,1234.43 985.287,1233.35 991.537,1234.6C996.676,1226.96 1005.91,1221.82 1019.25,1219.18C1030.5,1217.1 1038.69,1217.73 1043.83,1221.06C1047.3,1223.28 1047.93,1226.34 1045.7,1230.23C1042.09,1236.48 1035.95,1244.77 1027.27,1255.12C1018.59,1265.47 1009.11,1274.39 998.829,1281.89Z" style="fill:white;fill-rule:nonzero;"/>
            <path d="M1049.04,1353.14L1031.33,1339.6C1031.61,1335.15 1031.75,1329.53 1031.75,1322.73C1031.75,1317.59 1031.54,1311.48 1031.12,1304.39L1052.79,1287.31C1054.32,1290.09 1056.68,1292.45 1059.87,1294.39C1062.65,1295.92 1065.91,1296.89 1069.66,1297.31L1041.12,1318.98L1040.5,1328.98L1052.79,1339.39C1054.73,1340.92 1056.47,1341.61 1058,1341.48C1059.94,1341.34 1061.75,1340.23 1063.41,1338.14L1065.7,1335.43L1066.95,1336.48L1049.04,1353.14ZM1041.12,1316.27L1055.5,1305.43C1053.27,1304.6 1051.26,1303.63 1049.45,1302.52C1046.82,1301.13 1044.59,1299.67 1042.79,1298.14L1041.12,1316.27Z" style="fill:white;fill-rule:nonzero;"/>
            <path d="M1095.7,1342.52L1106.95,1325.23C1112.65,1325.36 1117.3,1327.59 1120.91,1331.89C1124.66,1335.92 1126.05,1341.68 1125.08,1349.18C1124.8,1351.82 1124.18,1354.11 1123.2,1356.06C1122.23,1358 1120.7,1360.23 1118.62,1362.73C1116.54,1365.23 1115.08,1367.17 1114.25,1368.56L1100.91,1389.18L1098.41,1388.56L1107.58,1369.18C1107.86,1368.49 1108.45,1367.41 1109.35,1365.95C1110.25,1364.5 1110.88,1363.21 1111.23,1362.1C1111.57,1360.99 1111.75,1359.81 1111.75,1358.56C1111.61,1353.98 1110.01,1350.15 1106.95,1347.1C1103.9,1344.04 1100.15,1342.52 1095.7,1342.52Z" style="fill:white;fill-rule:nonzero;"/>
            <path d="M419.037,1556.27C418.759,1553.21 418.134,1548.35 417.162,1541.68C416.19,1535.02 415.53,1529.29 415.183,1524.5C414.836,1519.7 414.801,1514.32 415.079,1508.35C415.495,1496.4 416.884,1484.74 419.245,1473.35L402.787,1484.6C401.398,1494.74 400.773,1504.95 400.912,1515.23C401.051,1525.36 402.232,1536.61 404.454,1548.98C409.732,1552.03 414.593,1554.46 419.037,1556.27ZM422.579,1473.56C421.329,1527.59 420.565,1555.29 420.287,1556.68C422.787,1557.79 425.565,1558.77 428.62,1559.6C443.482,1564.32 453.204,1566.27 457.787,1565.43C459.176,1565.15 460.322,1564.74 461.225,1564.18C462.127,1563.63 463.169,1562.62 464.35,1561.16C465.53,1559.7 466.329,1558.77 466.745,1558.35C468.69,1556.4 470.912,1553.49 473.412,1549.6L475.704,1550.64C471.398,1556.61 466.884,1561.96 462.162,1566.68C456.607,1571.96 451.051,1576.4 445.495,1580.02C435.773,1577.93 426.884,1575.43 418.829,1572.52C410.773,1569.74 402.162,1566.2 392.995,1561.89C390.357,1549.53 388.759,1535.92 388.204,1521.06C387.787,1511.2 388.065,1501.27 389.037,1491.27L419.87,1469.6C419.87,1469.32 420.114,1468.38 420.6,1466.79C421.086,1465.19 421.502,1463.38 421.85,1461.37C422.197,1459.36 422.37,1457.59 422.37,1456.06L426.329,1457.31C446.884,1463.84 458.829,1466.89 462.162,1466.48C466.884,1465.78 470.634,1464.43 473.412,1462.41C476.19,1460.4 477.718,1458.49 477.995,1456.68L478.204,1455.02L479.662,1455.02L479.454,1456.68C478.898,1460.57 475.044,1465.57 467.891,1471.68C460.739,1477.79 455.079,1480.57 450.912,1480.02C443.551,1479.04 435.495,1477.31 426.745,1474.81L422.579,1473.56Z" style="fill:white;fill-rule:nonzero;"/>
            <path d="M499.897,1474.21L494.912,1418.98L520.038,1418.98L514.952,1474.21L499.897,1474.21Z" style="fill:white;fill-rule:nonzero;"/>
            <path d="M552.996,1580.23L535.288,1566.68C535.566,1562.24 535.705,1556.61 535.705,1549.81C535.705,1544.67 535.496,1538.56 535.08,1531.48L556.746,1514.39C558.274,1517.17 560.635,1519.53 563.83,1521.48C566.607,1523 569.871,1523.98 573.621,1524.39L545.08,1546.06L544.455,1556.06L556.746,1566.48C558.691,1568 560.427,1568.7 561.955,1568.56C563.899,1568.42 565.705,1567.31 567.371,1565.23L569.663,1562.52L570.913,1563.56L552.996,1580.23ZM545.08,1543.35L559.455,1532.52C557.232,1531.68 555.219,1530.71 553.413,1529.6C550.774,1528.21 548.552,1526.75 546.746,1525.23L545.08,1543.35Z" style="fill:white;fill-rule:nonzero;"/>
            <path d="M628.83,1534.81L636.121,1527.31C633.899,1527.59 631.191,1527.31 627.996,1526.48C624.941,1525.64 622.094,1524.25 619.455,1522.31C616.955,1525.5 615.427,1529.11 614.871,1533.14C614.455,1536.61 614.871,1539.81 616.121,1542.73L628.83,1534.81ZM634.871,1518.35C639.038,1520.43 643.066,1521.4 646.955,1521.27L633.621,1532.31C635.982,1532.86 638.552,1534.5 641.33,1537.2C644.107,1539.91 645.496,1542.79 645.496,1545.85C645.496,1551.27 644.316,1555.99 641.955,1560.02C639.594,1564.04 635.913,1568.77 630.913,1574.18L625.705,1579.81L610.705,1568.98C602.232,1562.86 596.677,1559.74 594.038,1559.6C592.51,1559.6 591.191,1559.88 590.08,1560.43L587.996,1561.68L587.163,1560.64L592.371,1557.1C593.066,1556.68 593.969,1556.02 595.08,1555.12C596.191,1554.22 597.059,1553.52 597.684,1553.04C598.309,1552.55 599.177,1552.1 600.288,1551.68C601.399,1551.27 602.51,1550.99 603.621,1550.85C605.705,1550.57 607.962,1551.2 610.392,1552.73C612.823,1554.25 615.739,1556.48 619.142,1559.39C622.545,1562.31 625.357,1564.46 627.58,1565.85L632.996,1569.18C633.83,1567.24 634.385,1563.63 634.663,1558.35C634.802,1553.35 633.413,1549.25 630.496,1546.06C627.58,1542.86 625.149,1541.4 623.205,1541.68C621.399,1541.96 619.246,1542.73 616.746,1543.98L604.455,1550.02C603.482,1546.27 603.066,1542.73 603.205,1539.39C603.344,1535.09 604.177,1531.34 605.705,1528.14C609.316,1526.34 613.413,1523.98 617.996,1521.06C621.191,1518.98 624.594,1516.2 628.205,1512.73L627.788,1507.93C627.232,1501.54 628.934,1495.82 632.892,1490.75C636.85,1485.68 642.58,1482.31 650.08,1480.64C655.635,1479.25 661.052,1479.77 666.33,1482.2C671.607,1484.63 675.913,1488.63 679.246,1494.18C676.469,1496.27 674.871,1498.84 674.455,1501.89C673.482,1509.95 672.996,1514.95 672.996,1516.89L700.288,1517.1L693.413,1521.27C691.191,1522.52 688.552,1523.63 685.496,1524.6C683.83,1525.02 681.607,1525.23 678.83,1525.23L672.371,1525.43C671.816,1538.07 672.163,1550.36 673.413,1562.31L680.705,1569.6C682.232,1571.13 683.413,1571.89 684.246,1571.89C684.663,1571.89 685.357,1571.61 686.33,1571.06L687.996,1570.23L688.413,1571.89L671.121,1579.81L661.33,1571.89C661.469,1570.36 661.642,1568.49 661.85,1566.27C662.059,1564.04 662.232,1562.17 662.371,1560.64C662.927,1552.86 663.205,1541.27 663.205,1525.85L652.58,1526.06L663.413,1519.81L663.413,1512.73C663.691,1507.45 665.774,1503.49 669.663,1500.85C663.83,1493.21 657.719,1489.95 651.33,1491.06C641.469,1492.59 635.288,1496.96 632.788,1504.18L630.08,1513.77C631.052,1515.29 632.649,1516.82 634.871,1518.35Z" style="fill:white;fill-rule:nonzero;"/>
            <path d="M464.245,1792.1C471.19,1794.04 476.815,1792.86 481.12,1788.56C482.648,1787.03 483.725,1785.36 484.35,1783.56C484.975,1781.75 485.252,1779.95 485.183,1778.14C485.114,1776.34 485.079,1774.25 485.079,1771.89L483.412,1697.31L469.662,1695.85L469.454,1694.39C472.37,1693.42 475.009,1692.38 477.37,1691.27C479.87,1689.74 482.023,1688.14 483.829,1686.48C486.19,1687.31 489.176,1688.07 492.787,1688.77C496.954,1689.6 500.565,1690.02 503.62,1690.02L512.787,1690.02L512.787,1691.89L509.245,1692.73C508.829,1692.86 508.169,1693 507.266,1693.14C506.364,1693.28 505.704,1693.42 505.287,1693.56C504.87,1693.7 504.315,1693.87 503.62,1694.08C502.926,1694.29 502.336,1694.6 501.85,1695.02C501.364,1695.43 500.912,1695.92 500.495,1696.48C498.134,1699.67 496.954,1706.68 496.954,1717.52L496.954,1774.39C496.954,1789.67 500.287,1796.82 506.954,1795.85C508.62,1795.57 509.662,1795.23 510.079,1794.81L512.995,1792.73L514.037,1793.77L509.037,1797.73C501.954,1803.56 496.607,1806.54 492.995,1806.68C491.051,1806.82 489.35,1805.02 487.891,1801.27C486.433,1797.52 485.704,1793.77 485.704,1790.02L485.704,1785.85L475.495,1797.52C475.079,1798.07 474.211,1799.11 472.891,1800.64C471.572,1802.17 470.739,1803.07 470.391,1803.35C470.044,1803.63 469.315,1804.18 468.204,1805.02C467.093,1805.85 466.086,1806.27 465.183,1806.27L461.433,1806.27C459.836,1806.27 458.065,1805.95 456.12,1805.33C454.176,1804.7 451.884,1803.9 449.245,1802.93C443.134,1800.71 434.801,1798.63 424.245,1796.68C413.69,1794.74 407.093,1794.53 404.454,1796.06L401.954,1797.52L400.912,1794.6L406.537,1791.68C407.648,1790.99 409.107,1789.46 410.912,1787.1C417.857,1779.74 422.961,1772.38 426.225,1765.02C429.489,1757.65 431.19,1749.25 431.329,1739.81C431.607,1727.31 428.864,1717 423.1,1708.87C417.336,1700.75 409.315,1697.17 399.037,1698.14C392.648,1698.7 387.093,1700.99 382.37,1705.02L375.704,1710.64L374.245,1709.81L382.37,1701.68C391.815,1692.24 402.301,1687.52 413.829,1687.52C420.495,1687.52 426.607,1690.15 432.162,1695.43C437.718,1700.71 441.19,1706.54 442.579,1712.93C446.051,1729.04 443.343,1744.95 434.454,1760.64C432.926,1763.28 431.468,1765.71 430.079,1767.93C428.69,1770.15 427.579,1771.89 426.745,1773.14C425.912,1774.39 424.905,1775.68 423.725,1777C422.544,1778.32 421.78,1779.15 421.433,1779.5C421.086,1779.84 420.357,1780.57 419.245,1781.68L417.579,1783.14L421.954,1783.14C425.843,1783.14 430.079,1783.52 434.662,1784.29C439.245,1785.05 443.03,1785.85 446.016,1786.68C449.002,1787.52 452.544,1788.56 456.641,1789.81C460.739,1791.06 463.273,1791.82 464.245,1792.1Z" style="fill:white;fill-rule:nonzero;"/>
            <path d="M550.287,1767.1C553.204,1763.9 555.218,1761.68 556.329,1760.43C559.94,1756.4 564.87,1751.27 571.12,1745.02L586.12,1755.02L586.329,1756.27C585.218,1756.96 584.662,1757.38 584.662,1757.52C583.412,1760.99 582.787,1769.25 582.787,1782.31L582.787,1783.35C582.787,1785.85 582.822,1787.79 582.891,1789.18C582.961,1790.57 583.169,1792.24 583.516,1794.18C583.864,1796.13 584.558,1797.52 585.6,1798.35C586.641,1799.18 587.926,1799.53 589.454,1799.39C590.982,1799.11 591.954,1798.84 592.37,1798.56L594.037,1797.31L594.662,1798.77L584.454,1803.98C584.037,1804.25 583.343,1804.7 582.37,1805.33C581.398,1805.95 580.53,1806.4 579.766,1806.68C579.002,1806.96 578.134,1807.03 577.162,1806.89C575.079,1806.61 573.759,1805.54 573.204,1803.66C572.648,1801.79 572.301,1799.18 572.162,1795.85L572.162,1794.6C572.023,1791.54 572.023,1788.63 572.162,1785.85C572.301,1783.07 572.579,1779.98 572.995,1776.58C573.412,1773.18 573.69,1770.15 573.829,1767.52L574.037,1763.98L562.37,1756.48C559.593,1759.11 557.232,1762.17 555.287,1765.64C551.815,1771.34 550.079,1777.1 550.079,1782.93L549.87,1799.6L538.412,1806.27C539.662,1795.02 540.287,1783.77 540.287,1772.52C540.287,1766.13 540.009,1759.53 539.454,1752.73L535.079,1754.81L535.287,1752.73C536.398,1752.31 539.037,1750.99 543.204,1748.77C545.287,1747.52 547.787,1745.85 550.704,1743.77L550.287,1767.1Z" style="fill:white;fill-rule:nonzero;"/>
            <path d="M721.329,1700.02C723.412,1696.96 725.218,1693.42 726.745,1689.39L735.079,1688.98C740.634,1688.7 745.391,1689.11 749.35,1690.23C753.308,1691.34 757.579,1693.56 762.162,1696.89C770.357,1702.86 776.016,1710.33 779.141,1719.29C782.266,1728.25 783.169,1737.13 781.85,1745.95C780.53,1754.77 777.509,1763.63 772.787,1772.52C770.565,1776.54 767.127,1780.99 762.475,1785.85C757.822,1790.71 754.593,1794.39 752.787,1796.89L745.287,1807.1L721.745,1805.85C707.857,1805.15 695.912,1800.64 685.912,1792.31C675.912,1783.98 670.218,1773.35 668.829,1760.43C668.69,1756.27 668.551,1753.25 668.412,1751.37C668.273,1749.5 668.516,1746.82 669.141,1743.35C669.766,1739.88 670.287,1737.34 670.704,1735.75C671.12,1734.15 671.815,1731.54 672.787,1727.93C673.759,1724.32 674.523,1721.4 675.079,1719.18L676.745,1712.1L702.37,1695.23C702.232,1694.39 701.989,1692.79 701.641,1690.43C701.294,1688.07 701.051,1686.27 700.912,1685.02L708.204,1665.43C708.343,1669.18 708.482,1674.08 708.62,1680.12C708.759,1686.16 708.829,1689.67 708.829,1690.64L711.12,1689.39L713.412,1692.1L709.037,1695.02C709.037,1696.54 709.072,1699.36 709.141,1703.45C709.211,1707.55 709.245,1710.64 709.245,1712.73C715.079,1707.59 719.107,1703.35 721.329,1700.02ZM744.454,1792.1C751.537,1792.65 757.336,1788.11 761.85,1778.45C766.364,1768.8 768.412,1758.7 767.995,1748.14C767.44,1736.06 764.072,1725.75 757.891,1717.2C751.711,1708.66 743.065,1704.11 731.954,1703.56C730.009,1703.42 727.301,1704.11 723.829,1705.64C720.357,1707.17 717.162,1709.18 714.245,1711.68L709.245,1715.85C709.245,1746.68 708.898,1770.23 708.204,1786.48C710.426,1787.31 712.752,1788.04 715.183,1788.66C717.614,1789.29 720.322,1789.77 723.308,1790.12C726.294,1790.47 728.62,1790.75 730.287,1790.95C731.954,1791.16 734.593,1791.4 738.204,1791.68C741.815,1791.96 743.898,1792.1 744.454,1792.1ZM704.037,1784.39C705.148,1773.42 705.704,1760.71 705.704,1746.27C705.704,1736.27 705.495,1727.38 705.079,1719.6L695.495,1727.52L691.12,1728.98L704.87,1716.68C704.176,1708.9 703.551,1703.07 702.995,1699.18L697.787,1702.73C695.843,1703.98 693.829,1706.2 691.745,1709.39C689.662,1712.59 688.134,1715.99 687.162,1719.6C684.107,1728.9 682.683,1737.93 682.891,1746.68C683.1,1755.43 685.704,1763.9 690.704,1772.1C694.037,1777.79 698.482,1781.89 704.037,1784.39Z" style="fill:white;fill-rule:nonzero;"/>
            <path d="M816.329,1769.39L815.495,1795.43C817.857,1796.4 820.426,1797.31 823.204,1798.14C826.537,1799.11 829.732,1799.67 832.787,1799.81L826.12,1803.77C825.704,1803.9 825.148,1804.29 824.454,1804.91C823.759,1805.54 823.065,1805.99 822.37,1806.27C821.676,1806.54 820.982,1806.68 820.287,1806.68C815.148,1806.68 810.357,1806.27 805.912,1805.43L800.079,1804.39L802.579,1801.27C803.412,1800.43 803.968,1799.67 804.245,1798.98C804.94,1797.45 805.287,1795.36 805.287,1792.73L805.287,1766.27C805.287,1762.24 804.176,1759.18 801.954,1757.1C800.426,1755.85 799.176,1755.15 798.204,1755.02L795.079,1754.39L805.912,1747.73C807.857,1746.61 809.523,1746.06 810.912,1746.06C812.995,1746.06 814.593,1747.13 815.704,1749.29C816.815,1751.44 817.232,1753.84 816.954,1756.48L816.537,1760.85C817.232,1760.02 819.245,1757.73 822.579,1753.98C827.301,1749.25 830.287,1746.96 831.537,1747.1C833.065,1747.24 834.662,1747.9 836.329,1749.08C837.995,1750.26 838.898,1751.68 839.037,1753.35C839.176,1754.74 838.69,1756.54 837.579,1758.77L831.329,1770.43L831.12,1767.1C830.982,1764.88 829.94,1762.76 827.995,1760.75C826.051,1758.73 824.384,1757.93 822.995,1758.35C821.19,1758.77 819.315,1761.54 817.37,1766.68L816.329,1769.39Z" style="fill:white;fill-rule:nonzero;"/>
            <path d="M873.412,1746.06C872.162,1744.81 869.94,1742.73 866.745,1739.81C863.551,1736.89 861.155,1734.6 859.558,1732.93C857.961,1731.27 856.086,1729.04 853.933,1726.27C851.78,1723.49 850.218,1720.64 849.245,1717.73C848.273,1714.81 847.787,1711.68 847.787,1708.35C847.648,1700.99 852.718,1694.88 862.995,1690.02C873.273,1685.15 883.62,1682.86 894.037,1683.14C898.62,1683.28 903.1,1684.81 907.475,1687.73C911.85,1690.64 914.037,1694.18 914.037,1698.35C914.037,1699.32 913.794,1700.47 913.308,1701.79C912.822,1703.11 912.336,1704.22 911.85,1705.12C911.364,1706.02 910.6,1707.31 909.558,1708.98C908.516,1710.64 907.718,1711.89 907.162,1712.73L898.62,1727.1L901.954,1717.93C903.204,1714.46 903.759,1711.75 903.62,1709.81C903.065,1703.98 900.391,1699.11 895.6,1695.23C890.808,1691.34 885.565,1689.39 879.87,1689.39C874.176,1689.39 869.245,1690.4 865.079,1692.41C860.912,1694.43 858.898,1697.59 859.037,1701.89C859.315,1706.2 860.843,1710.47 863.62,1714.7C866.398,1718.94 869.697,1722.83 873.516,1726.37C877.336,1729.91 881.12,1733.56 884.87,1737.31C888.62,1741.06 891.815,1745.36 894.454,1750.23C897.093,1755.09 898.412,1760.15 898.412,1765.43C898.412,1767.79 898.134,1770.09 897.579,1772.31C897.023,1774.53 896.502,1776.3 896.016,1777.62C895.53,1778.94 894.419,1780.75 892.683,1783.04C890.947,1785.33 889.801,1786.79 889.245,1787.41C888.69,1788.04 887.093,1789.74 884.454,1792.52C881.815,1795.29 880.287,1796.89 879.87,1797.31L872.37,1805.43L867.162,1802.1C855.079,1794.32 849.662,1784.88 850.912,1773.77C851.607,1765.99 855.357,1759.53 862.162,1754.39L873.412,1746.06ZM887.37,1775.23C887.37,1764.95 883.134,1755.71 874.662,1747.52L870.912,1750.02C865.495,1753.63 862.787,1760.02 862.787,1769.18C862.787,1778.35 866.398,1785.15 873.62,1789.6L879.662,1793.35L882.995,1789.81C885.912,1786.75 887.37,1781.89 887.37,1775.23Z" style="fill:white;fill-rule:nonzero;"/>
            <path d="M931.329,1769.39L930.495,1795.43C932.857,1796.4 935.426,1797.31 938.204,1798.14C941.537,1799.11 944.732,1799.67 947.787,1799.81L941.12,1803.77C940.704,1803.9 940.148,1804.29 939.454,1804.91C938.759,1805.54 938.065,1805.99 937.37,1806.27C936.676,1806.54 935.982,1806.68 935.287,1806.68C930.148,1806.68 925.357,1806.27 920.912,1805.43L915.079,1804.39L917.579,1801.27C918.412,1800.43 918.968,1799.67 919.245,1798.98C919.94,1797.45 920.287,1795.36 920.287,1792.73L920.287,1766.27C920.287,1762.24 919.176,1759.18 916.954,1757.1C915.426,1755.85 914.176,1755.15 913.204,1755.02L910.079,1754.39L920.912,1747.73C922.857,1746.61 924.523,1746.06 925.912,1746.06C927.995,1746.06 929.593,1747.13 930.704,1749.29C931.815,1751.44 932.232,1753.84 931.954,1756.48L931.537,1760.85C932.232,1760.02 934.245,1757.73 937.579,1753.98C942.301,1749.25 945.287,1746.96 946.537,1747.1C948.065,1747.24 949.662,1747.9 951.329,1749.08C952.995,1750.26 953.898,1751.68 954.037,1753.35C954.176,1754.74 953.69,1756.54 952.579,1758.77L946.329,1770.43L946.12,1767.1C945.982,1764.88 944.94,1762.76 942.995,1760.75C941.051,1758.73 939.384,1757.93 937.995,1758.35C936.19,1758.77 934.315,1761.54 932.37,1766.68L931.329,1769.39Z" style="fill:white;fill-rule:nonzero;"/>
            <path d="M980.079,1807.31L962.37,1793.77C962.648,1789.32 962.787,1783.7 962.787,1776.89C962.787,1771.75 962.579,1765.64 962.162,1758.56L983.829,1741.48C985.357,1744.25 987.718,1746.61 990.912,1748.56C993.69,1750.09 996.954,1751.06 1000.7,1751.48L972.162,1773.14L971.537,1783.14L983.829,1793.56C985.773,1795.09 987.509,1795.78 989.037,1795.64C990.982,1795.5 992.787,1794.39 994.454,1792.31L996.745,1789.6L997.995,1790.64L980.079,1807.31ZM972.162,1770.43L986.537,1759.6C984.315,1758.77 982.301,1757.79 980.495,1756.68C977.857,1755.29 975.634,1753.84 973.829,1752.31L972.162,1770.43Z" style="fill:white;fill-rule:nonzero;"/>
            <path d="M1105.29,1777.52L1103,1693.98L1103,1691.79C1103,1690.75 1102.96,1689.91 1102.89,1689.29C1102.82,1688.66 1102.75,1687.9 1102.68,1687C1102.61,1686.09 1102.48,1685.36 1102.27,1684.81C1102.06,1684.25 1101.78,1683.7 1101.43,1683.14C1101.09,1682.59 1100.63,1682.2 1100.08,1682C1099.52,1681.79 1098.9,1681.75 1098.2,1681.89C1096.95,1682.03 1095.57,1682.86 1094.04,1684.39L1091.12,1686.48L1089.87,1684.39L1097.16,1678.35C1100.08,1675.99 1103.55,1675.5 1107.58,1676.89C1112.02,1678.42 1114.25,1683 1114.25,1690.64L1114.25,1726.27C1114.25,1731.68 1113.27,1739.74 1111.33,1750.43C1109.94,1759.46 1107.93,1768.49 1105.29,1777.52ZM1092.58,1801.27C1094.52,1800.02 1096.95,1798.07 1099.87,1795.43C1101.95,1793.07 1103.62,1790.92 1104.87,1788.98C1106.54,1791.48 1108.48,1793.77 1110.7,1795.85C1113.62,1798.49 1115.84,1800.29 1117.37,1801.27C1114.87,1802.65 1112.65,1804.25 1110.7,1806.06C1108.62,1808 1106.68,1810.57 1104.87,1813.77C1103.48,1810.99 1101.88,1808.7 1100.08,1806.89C1097.72,1804.53 1095.22,1802.65 1092.58,1801.27Z" style="fill:white;fill-rule:nonzero;"/>
        </g>
    </g>
</svg>
