<?xml version="1.0" encoding="UTF-8" standalone="no"?>
<!DOCTYPE svg PUBLIC "-//W3C//DTD SVG 1.1//EN" "http://www.w3.org/Graphics/SVG/1.1/DTD/svg11.dtd">
<svg width="263px" height="72px" version="1.1" xmlns="http://www.w3.org/2000/svg" xmlns:xlink="http://www.w3.org/1999/xlink" xml:space="preserve" xmlns:serif="http://www.serif.com/" style="fill-rule:evenodd;clip-rule:evenodd;stroke-linejoin:round;stroke-miterlimit:2;">
    <g transform="matrix(1,0,0,1,-1302.96,-1781.84)">
        <g transform="matrix(1.08129,-0.177541,0.177541,1.08129,158.324,1012.98)">
            <path d="M925.691,900.61C924.149,903.193 922.774,906.026 921.441,908.318C920.524,909.901 919.566,911.943 918.733,913.526C918.149,914.651 916.358,917.651 915.566,919.818C915.774,916.693 916.358,908.901 916.399,907.86C916.441,906.36 916.816,904.36 916.691,902.61C916.608,901.235 915.691,900.651 912.899,900.443C912.691,900.443 912.483,900.401 912.316,900.401C911.608,900.401 911.274,900.61 911.233,901.568C911.191,902.318 911.233,903.235 911.233,904.151C911.233,904.651 911.233,905.193 911.191,905.651C910.941,909.276 910.899,914.568 910.899,918.026C910.899,919.318 910.858,920.36 910.858,921.193C910.858,922.735 911.066,923.651 912.274,924.485C913.441,925.276 915.108,925.901 916.233,925.901C916.566,925.901 916.816,925.86 917.024,925.735C917.608,924.401 918.816,922.86 919.941,921.11C921.358,918.901 922.483,916.985 923.858,914.651C926.983,909.318 929.733,905.485 929.733,903.61C929.733,902.11 927.649,901.026 925.691,900.61ZM914.024,905.36C914.024,905.693 914.024,905.943 913.983,906.068C913.983,905.651 913.816,903.11 913.816,902.651C913.899,902.943 914.024,904.401 914.024,905.36ZM911.941,907.193C911.858,907.151 911.816,906.735 911.816,906.151C911.816,905.068 911.941,903.485 911.899,903.36C912.024,903.36 912.066,903.985 912.066,904.735C912.066,905.776 911.983,907.026 911.941,907.193ZM926.858,903.526L925.399,906.818L924.316,908.151C924.274,908.11 926.441,904.318 926.858,903.526ZM927.566,905.068C927.358,904.943 928.066,904.026 928.441,903.818C928.483,904.068 927.774,904.985 927.566,905.068ZM914.483,904.235C914.566,904.276 914.608,904.568 914.608,904.985C914.608,905.818 914.441,907.151 914.399,907.151C914.358,906.526 914.358,906.068 914.358,905.651C914.358,904.901 914.399,904.485 914.483,904.235ZM912.691,906.485C912.816,906.526 912.858,906.818 912.858,907.193C912.858,907.776 912.774,908.443 912.691,908.401C912.733,907.776 912.733,907.401 912.733,907.11C912.733,906.776 912.733,906.61 912.691,906.485ZM913.691,906.485C913.774,907.485 913.858,908.526 913.858,909.526C913.733,909.485 913.649,909.443 913.608,909.36C913.608,909.443 913.566,909.401 913.566,909.276L913.566,909.11C913.566,908.485 913.649,907.11 913.691,906.485ZM925.566,909.11C925.524,909.068 925.316,909.318 925.108,909.526C925.274,908.776 926.649,906.818 927.066,907.11L925.566,909.11ZM915.274,908.276L915.358,907.61C915.316,907.651 915.274,907.651 915.274,907.485C915.316,907.485 915.316,907.526 915.358,907.526C915.524,907.651 915.566,907.818 915.566,907.943C915.566,908.151 915.483,908.276 915.274,908.276ZM914.774,908.901C914.774,909.36 914.649,909.901 914.649,910.026L914.566,908.401C914.733,908.401 914.774,908.651 914.774,908.901ZM923.024,910.568C923.149,910.068 923.941,908.943 924.358,908.485C924.316,909.193 923.441,910.443 923.024,910.901L923.024,910.568ZM913.566,909.276C913.566,909.276 913.608,909.318 913.608,909.36C913.649,909.318 913.649,909.276 913.649,909.235L913.649,909.068C913.649,909.026 913.649,908.985 913.608,908.985L913.566,909.11L913.566,909.276ZM913.108,909.651C913.066,909.651 912.858,911.068 912.983,911.235C912.858,911.276 912.816,910.693 912.816,910.11C912.816,909.693 912.816,909.276 912.899,909.11C913.024,909.276 913.066,909.485 913.108,909.651ZM919.608,913.401C919.941,912.568 919.941,912.735 919.941,912.568C919.899,912.485 921.691,909.193 921.941,909.235C921.691,909.901 920.274,913.151 919.608,913.401ZM913.608,909.86C913.816,909.86 913.858,910.151 913.858,910.485C913.858,910.985 913.733,911.61 913.774,911.776C913.608,911.735 913.566,911.36 913.566,910.901C913.566,910.526 913.608,910.11 913.608,909.86ZM915.399,910.776C915.233,910.776 915.149,910.693 915.149,910.526C915.149,910.36 915.233,910.151 915.441,909.86L915.399,910.776ZM924.316,910.151C924.191,910.776 923.774,911.193 923.316,911.568C923.524,911.026 924.024,910.61 924.316,910.151ZM924.941,910.901C924.858,911.026 923.358,912.901 923.358,912.86C923.733,912.443 924.649,910.443 925.149,910.526L924.941,910.901ZM912.566,911.651C912.691,911.651 912.733,912.61 912.733,913.485C912.733,914.11 912.733,914.651 912.649,914.776C912.566,914.735 912.483,913.651 912.483,912.776C912.483,912.235 912.483,911.735 912.566,911.651ZM920.149,913.568C920.316,913.235 921.066,912.11 921.149,912.193C921.066,912.36 920.399,913.735 920.149,913.568ZM914.483,913.151L914.524,913.151L914.524,915.401C914.483,916.11 914.274,913.693 914.233,913.86C914.191,914.11 914.108,913.151 914.483,913.151ZM919.608,916.901C919.691,916.401 921.483,913.276 921.816,913.151C921.691,913.568 919.816,916.651 919.608,916.901ZM917.899,916.11C917.733,915.943 918.858,914.276 918.983,914.11C918.941,914.61 918.274,915.818 917.899,916.11ZM913.274,915.86L913.274,916.151C913.274,916.318 913.274,916.485 913.316,916.651C913.149,916.651 913.024,916.401 913.024,916.11C913.024,915.901 913.066,915.693 913.149,915.526C913.274,915.568 913.274,915.693 913.274,915.86ZM917.066,919.526C917.399,918.318 918.024,917.235 918.608,916.151C918.149,917.318 917.524,918.401 917.066,919.526ZM914.108,918.276C913.983,917.985 913.941,917.401 913.941,916.901C913.941,916.651 913.941,916.401 913.983,916.276C914.108,916.693 914.149,917.318 914.149,917.776C914.149,917.985 914.149,918.193 914.108,918.276ZM912.524,916.401C912.774,916.651 912.774,916.651 912.483,917.11L912.524,916.401ZM912.483,918.401C912.524,918.526 912.608,919.151 912.608,919.526C912.608,919.735 912.608,919.901 912.483,919.901C912.441,919.776 912.399,919.235 912.399,918.818C912.399,918.568 912.399,918.401 912.483,918.401ZM913.441,921.86C913.358,921.443 913.274,920.401 913.233,920.068C913.399,920.401 913.524,921.443 913.441,921.86ZM912.441,920.276L912.608,921.235C912.483,921.026 912.399,920.818 912.399,920.61C912.399,920.485 912.399,920.401 912.441,920.276ZM914.191,921.026C914.149,921.235 914.191,922.61 914.149,922.86C914.024,922.568 913.941,922.151 913.941,921.776C913.941,921.401 914.024,921.068 914.191,921.026ZM913.274,923.36C914.024,923.985 915.108,924.86 915.358,924.985L914.441,924.735C914.483,924.693 913.816,923.943 913.274,923.36ZM916.274,924.735C916.108,924.568 916.066,924.443 916.066,924.318L916.066,924.151C916.233,924.276 916.274,924.401 916.274,924.526L916.274,924.735Z" style="fill:white;"/>
            <path d="M939.691,900.901C938.816,900.526 936.733,900.11 936.149,900.11C935.066,900.11 935.066,900.901 934.149,903.235C932.858,906.61 932.441,908.985 931.483,912.443C930.608,915.568 929.608,917.86 929.108,921.068C929.066,921.401 929.024,921.693 929.024,921.985C929.024,923.401 929.608,924.401 930.733,925.026C931.191,925.276 933.524,926.693 933.858,926.151C933.816,924.068 935.608,916.068 936.066,914.693C936.774,912.568 937.774,909.568 938.399,907.443C939.024,905.36 940.191,902.86 940.649,901.651C940.399,901.276 940.191,901.11 939.691,900.901ZM938.233,901.276C938.108,901.235 938.108,901.151 938.233,900.901C938.441,900.943 938.441,901.11 938.233,901.276ZM937.316,901.193C937.524,901.443 937.441,901.776 937.108,902.151L937.316,901.193ZM936.441,901.526C936.483,901.526 936.524,901.568 936.566,901.61C936.566,901.985 936.524,902.193 936.358,902.193C936.316,902.193 936.274,902.193 936.233,902.151C936.233,901.735 936.316,901.526 936.441,901.526ZM938.983,902.151C938.816,902.026 938.816,901.901 938.983,901.693C939.149,901.735 939.149,901.86 938.983,902.151ZM937.774,901.735C937.774,901.985 937.691,902.193 937.483,902.276C937.441,901.901 937.524,901.735 937.774,901.735ZM935.858,902.401C935.983,902.735 935.733,902.735 935.566,902.985L935.858,902.401ZM936.899,902.443C937.066,902.693 936.983,902.86 936.774,903.068C936.566,902.818 936.566,902.776 936.899,902.443ZM938.858,903.276C938.649,903.235 938.649,903.026 938.899,902.86C939.066,902.901 939.066,903.026 938.858,903.276ZM935.191,903.11C935.274,903.526 935.233,903.818 934.858,904.276L935.191,903.11ZM934.899,907.651C934.733,907.235 935.274,905.776 935.483,905.401C935.858,904.693 935.983,903.901 936.316,903.193C936.524,903.276 935.024,906.943 934.899,907.651ZM937.608,903.61C937.441,904.11 937.483,904.693 937.066,905.068C937.066,904.693 937.274,904.068 937.608,903.61ZM937.816,904.193C937.816,904.693 937.608,905.068 937.399,905.485C937.399,904.985 937.649,904.651 937.816,904.193ZM936.733,904.443C937.108,904.568 936.233,905.86 936.191,905.943L936.733,904.443ZM938.441,905.943C938.358,905.651 938.358,905.651 938.649,905.151L938.441,905.943ZM933.899,905.943C934.149,906.068 933.608,907.776 933.233,907.776L933.899,905.943ZM936.274,908.36C936.274,908.151 936.316,907.985 936.399,907.818C936.608,907.235 936.816,906.735 937.024,906.11C937.108,906.901 936.733,908.11 936.316,908.776C936.274,908.61 936.274,908.485 936.274,908.36ZM935.108,908.11C935.024,907.526 935.358,907.151 935.691,906.86C935.524,907.235 935.441,907.735 935.108,908.11ZM937.608,909.026C937.524,908.735 937.566,908.526 937.858,908.318L937.608,909.026ZM933.816,908.776C933.774,908.86 933.358,910.776 933.191,910.693C933.358,910.026 933.441,909.318 933.816,908.776ZM935.024,909.901C934.608,909.61 935.066,909.36 935.316,909.151L935.024,909.901ZM936.816,911.443C936.774,910.61 936.858,910.36 937.358,909.735L936.816,911.443ZM934.316,910.068C934.233,910.61 934.149,911.068 933.941,911.526C933.899,910.985 934.066,910.526 934.316,910.068ZM933.858,914.401C934.024,913.651 934.066,912.901 934.358,912.151C934.566,912.526 934.024,914.443 933.858,914.401ZM934.441,914.36C934.566,912.985 934.608,912.901 934.899,912.735L934.441,914.36ZM934.649,915.068C934.274,916.235 933.649,917.776 933.733,919.068C933.566,918.985 933.524,918.693 933.524,918.36C933.524,917.068 934.358,914.526 934.733,914.151C934.816,914.443 934.774,914.735 934.649,915.068ZM931.024,915.568C931.233,914.776 931.441,914.193 931.566,914.235L931.024,915.568ZM932.441,914.276L932.233,914.985C931.983,914.901 932.358,914.235 932.441,914.276ZM932.066,921.193C932.191,920.36 933.316,914.526 933.899,914.693C933.816,915.193 933.524,915.568 933.441,916.151C933.316,917.151 932.858,920.693 932.066,921.193ZM931.983,915.693C932.066,915.818 932.108,915.943 932.108,916.068C932.108,916.235 932.024,916.401 931.899,916.735L931.983,915.693ZM931.316,916.026C931.399,916.526 931.191,916.985 931.024,917.443C930.899,916.86 931.233,916.485 931.316,916.026ZM929.816,921.193C929.816,920.985 929.941,920.526 929.941,920.276L929.941,920.193C929.983,919.943 930.399,917.901 930.816,916.276C930.774,917.901 930.358,919.651 929.816,921.193ZM934.316,918.36C934.358,917.776 934.524,917.276 934.774,916.735C934.774,917.36 934.608,917.86 934.316,918.36ZM930.899,918.818C930.899,918.485 930.983,918.235 931.149,917.86C931.149,918.36 930.983,918.693 930.941,919.193C930.899,919.068 930.899,918.943 930.899,918.818ZM934.108,919.901C934.066,919.818 934.066,918.735 934.358,918.776L934.108,919.901ZM930.649,919.943C930.691,920.151 930.733,920.36 930.733,920.485C930.733,920.735 930.649,920.86 930.524,920.86C930.483,920.86 930.441,920.818 930.399,920.818C930.358,920.61 930.316,920.443 930.316,920.318C930.316,920.026 930.399,919.943 930.649,919.943ZM932.566,922.568C932.566,922.276 932.649,920.276 933.024,920.36C932.899,921.068 932.816,921.818 932.566,922.568ZM931.399,921.068C931.358,921.86 931.191,922.651 930.983,923.401C930.858,922.568 931.233,921.818 931.399,921.068ZM929.774,921.943C929.649,921.985 929.608,921.86 929.733,921.651C929.899,921.61 929.899,921.735 929.774,921.943ZM933.066,923.443C932.899,923.401 932.816,923.318 932.816,923.193C932.816,923.026 932.899,922.818 933.066,922.568C933.399,922.568 933.399,922.818 933.066,923.443ZM930.649,923.985C930.608,923.985 930.483,923.943 930.358,923.86C930.358,923.61 930.483,923.568 930.691,923.568C930.816,923.86 930.774,923.985 930.649,923.985ZM931.858,925.026L932.149,923.818C932.524,923.901 931.941,924.985 931.858,925.026ZM931.358,924.776L931.274,924.776C931.191,924.526 931.108,924.318 931.108,924.193C931.108,924.026 931.191,923.985 931.316,923.943C931.483,924.235 931.524,924.443 931.524,924.61C931.524,924.735 931.483,924.776 931.358,924.776ZM932.483,925.068C932.316,925.026 932.358,924.901 932.524,924.776C932.691,924.86 932.691,924.943 932.483,925.068Z" style="fill:white;"/>
            <path d="M958.024,900.61C956.483,903.193 955.108,906.026 953.774,908.318C952.858,909.901 951.899,911.943 951.066,913.526C950.483,914.651 948.691,917.651 947.899,919.818C948.108,916.693 948.691,908.901 948.733,907.86C948.774,906.36 949.149,904.36 949.024,902.61C948.941,901.235 948.024,900.651 945.233,900.443C945.024,900.443 944.816,900.401 944.649,900.401C943.941,900.401 943.608,900.61 943.566,901.568C943.524,902.318 943.566,903.235 943.566,904.151C943.566,904.651 943.566,905.193 943.524,905.651C943.274,909.276 943.233,914.568 943.233,918.026C943.233,919.318 943.191,920.36 943.191,921.193C943.191,922.735 943.399,923.651 944.608,924.485C945.774,925.276 947.441,925.901 948.566,925.901C948.899,925.901 949.149,925.86 949.358,925.735C949.941,924.401 951.149,922.86 952.274,921.11C953.691,918.901 954.816,916.985 956.191,914.651C959.316,909.318 962.066,905.485 962.066,903.61C962.066,902.11 959.983,901.026 958.024,900.61ZM946.358,905.36C946.358,905.693 946.358,905.943 946.316,906.068C946.316,905.651 946.149,903.11 946.149,902.651C946.233,902.943 946.358,904.401 946.358,905.36ZM944.274,907.193C944.191,907.151 944.149,906.735 944.149,906.151C944.149,905.068 944.274,903.485 944.233,903.36C944.358,903.36 944.399,903.985 944.399,904.735C944.399,905.776 944.316,907.026 944.274,907.193ZM959.191,903.526L957.733,906.818L956.649,908.151C956.608,908.11 958.774,904.318 959.191,903.526ZM959.899,905.068C959.691,904.943 960.399,904.026 960.774,903.818C960.816,904.068 960.108,904.985 959.899,905.068ZM946.816,904.235C946.899,904.276 946.941,904.568 946.941,904.985C946.941,905.818 946.774,907.151 946.733,907.151C946.691,906.526 946.691,906.068 946.691,905.651C946.691,904.901 946.733,904.485 946.816,904.235ZM945.024,906.485C945.149,906.526 945.191,906.818 945.191,907.193C945.191,907.776 945.108,908.443 945.024,908.401C945.066,907.776 945.066,907.401 945.066,907.11C945.066,906.776 945.066,906.61 945.024,906.485ZM946.024,906.485C946.108,907.485 946.191,908.526 946.191,909.526C946.066,909.485 945.983,909.443 945.941,909.36C945.941,909.443 945.899,909.401 945.899,909.276L945.899,909.11C945.899,908.485 945.983,907.11 946.024,906.485ZM957.899,909.11C957.858,909.068 957.649,909.318 957.441,909.526C957.608,908.776 958.983,906.818 959.399,907.11L957.899,909.11ZM947.608,908.276L947.691,907.61C947.649,907.651 947.608,907.651 947.608,907.485C947.649,907.485 947.649,907.526 947.691,907.526C947.858,907.651 947.899,907.818 947.899,907.943C947.899,908.151 947.816,908.276 947.608,908.276ZM947.108,908.901C947.108,909.36 946.983,909.901 946.983,910.026L946.899,908.401C947.066,908.401 947.108,908.651 947.108,908.901ZM955.358,910.568C955.483,910.068 956.274,908.943 956.691,908.485C956.649,909.193 955.774,910.443 955.358,910.901L955.358,910.568ZM945.899,909.276C945.899,909.276 945.941,909.318 945.941,909.36C945.983,909.318 945.983,909.276 945.983,909.235L945.983,909.068C945.983,909.026 945.983,908.985 945.941,908.985L945.899,909.11L945.899,909.276ZM945.441,909.651C945.399,909.651 945.191,911.068 945.316,911.235C945.191,911.276 945.149,910.693 945.149,910.11C945.149,909.693 945.149,909.276 945.233,909.11C945.358,909.276 945.399,909.485 945.441,909.651ZM951.941,913.401C952.274,912.568 952.274,912.735 952.274,912.568C952.233,912.485 954.024,909.193 954.274,909.235C954.024,909.901 952.608,913.151 951.941,913.401ZM945.941,909.86C946.149,909.86 946.191,910.151 946.191,910.485C946.191,910.985 946.066,911.61 946.108,911.776C945.941,911.735 945.899,911.36 945.899,910.901C945.899,910.526 945.941,910.11 945.941,909.86ZM947.733,910.776C947.566,910.776 947.483,910.693 947.483,910.526C947.483,910.36 947.566,910.151 947.774,909.86L947.733,910.776ZM956.649,910.151C956.524,910.776 956.108,911.193 955.649,911.568C955.858,911.026 956.358,910.61 956.649,910.151ZM957.274,910.901C957.191,911.026 955.691,912.901 955.691,912.86C956.066,912.443 956.983,910.443 957.483,910.526L957.274,910.901ZM944.899,911.651C945.024,911.651 945.066,912.61 945.066,913.485C945.066,914.11 945.066,914.651 944.983,914.776C944.899,914.735 944.816,913.651 944.816,912.776C944.816,912.235 944.816,911.735 944.899,911.651ZM952.483,913.568C952.649,913.235 953.399,912.11 953.483,912.193C953.399,912.36 952.733,913.735 952.483,913.568ZM946.816,913.151L946.858,913.151L946.858,915.401C946.816,916.11 946.608,913.693 946.566,913.86C946.524,914.11 946.441,913.151 946.816,913.151ZM951.941,916.901C952.024,916.401 953.816,913.276 954.149,913.151C954.024,913.568 952.149,916.651 951.941,916.901ZM950.233,916.11C950.066,915.943 951.191,914.276 951.316,914.11C951.274,914.61 950.608,915.818 950.233,916.11ZM945.608,915.86L945.608,916.151C945.608,916.318 945.608,916.485 945.649,916.651C945.483,916.651 945.358,916.401 945.358,916.11C945.358,915.901 945.399,915.693 945.483,915.526C945.608,915.568 945.608,915.693 945.608,915.86ZM949.399,919.526C949.733,918.318 950.358,917.235 950.941,916.151C950.483,917.318 949.858,918.401 949.399,919.526ZM946.441,918.276C946.316,917.985 946.274,917.401 946.274,916.901C946.274,916.651 946.274,916.401 946.316,916.276C946.441,916.693 946.483,917.318 946.483,917.776C946.483,917.985 946.483,918.193 946.441,918.276ZM944.858,916.401C945.108,916.651 945.108,916.651 944.816,917.11L944.858,916.401ZM944.816,918.401C944.858,918.526 944.941,919.151 944.941,919.526C944.941,919.735 944.941,919.901 944.816,919.901C944.774,919.776 944.733,919.235 944.733,918.818C944.733,918.568 944.733,918.401 944.816,918.401ZM945.774,921.86C945.691,921.443 945.608,920.401 945.566,920.068C945.733,920.401 945.858,921.443 945.774,921.86ZM944.774,920.276L944.941,921.235C944.816,921.026 944.733,920.818 944.733,920.61C944.733,920.485 944.733,920.401 944.774,920.276ZM946.524,921.026C946.483,921.235 946.524,922.61 946.483,922.86C946.358,922.568 946.274,922.151 946.274,921.776C946.274,921.401 946.358,921.068 946.524,921.026ZM945.608,923.36C946.358,923.985 947.441,924.86 947.691,924.985L946.774,924.735C946.816,924.693 946.149,923.943 945.608,923.36ZM948.608,924.735C948.441,924.568 948.399,924.443 948.399,924.318L948.399,924.151C948.566,924.276 948.608,924.401 948.608,924.526L948.608,924.735Z" style="fill:white;"/>
            <path d="M979.899,905.318C979.149,902.735 980.149,900.568 976.733,900.11C976.358,900.068 975.816,900.026 975.149,900.026C972.691,900.026 968.941,900.36 968.233,900.776C967.358,901.11 967.191,901.443 967.191,901.985C967.191,902.318 967.233,902.693 967.233,903.193C967.233,904.068 967.108,904.36 966.649,905.276C965.483,907.735 965.149,908.818 964.191,911.318C964.733,910.11 963.524,913.026 963.608,912.776C963.274,913.568 962.899,914.36 962.733,915.235C962.733,915.193 962.149,918.068 961.733,919.485C961.649,919.818 960.608,922.276 960.608,922.985C960.608,923.86 963.399,924.443 963.858,924.735C964.066,924.86 963.816,925.735 964.608,925.735L965.108,925.735C965.691,925.651 966.566,925.276 967.191,925.11C968.149,924.943 975.608,924.776 975.733,924.11C974.274,922.86 974.899,920.443 972.816,919.901C972.316,919.776 971.816,919.735 971.274,919.735C969.608,919.735 967.858,920.276 966.274,920.485C966.691,919.026 967.108,917.526 967.733,916.443C969.524,916.026 973.399,915.443 975.274,915.526C975.399,915.526 976.108,915.693 976.483,915.693C976.566,915.693 976.608,915.693 976.649,915.651C976.983,915.318 976.316,915.151 976.316,914.943C976.191,913.943 976.108,912.61 975.358,911.818C974.774,911.193 973.899,911.026 972.983,911.026C971.858,911.026 970.649,911.276 969.733,911.276C969.733,911.11 970.066,909.985 970.191,909.61C970.483,908.735 971.024,906.901 971.733,905.276C972.608,905.235 973.483,905.276 974.233,905.318C976.399,905.36 977.274,905.443 978.149,905.568C978.774,905.651 979.774,906.151 980.358,906.026C980.191,905.818 980.024,905.568 979.899,905.318ZM971.899,900.61L969.774,900.943C970.108,900.735 971.316,900.526 971.899,900.61ZM973.441,900.985C973.608,900.985 973.774,901.026 973.941,901.068L972.774,901.193C972.941,901.068 973.191,900.985 973.441,900.985ZM971.358,901.485C970.691,901.735 970.149,901.776 969.566,901.735C969.816,901.568 970.774,901.401 971.358,901.485ZM973.524,901.651L972.399,901.61L972.316,901.61C972.816,901.526 973.316,901.485 973.983,901.526C973.983,901.651 973.774,901.651 973.524,901.651ZM972.066,901.651L972.066,901.693L972.608,901.735C972.608,901.86 972.108,901.86 971.691,901.86L971.066,901.86C971.441,901.776 971.774,901.693 972.066,901.651ZM973.066,902.193L973.858,902.151C973.774,902.235 973.483,902.36 973.274,902.36C973.149,902.36 973.066,902.318 973.066,902.193ZM972.566,902.276C972.733,902.276 972.858,902.318 972.858,902.443C972.483,902.485 972.108,902.526 971.774,902.526L971.358,902.526C971.441,902.526 972.149,902.276 972.566,902.276ZM975.816,902.61C975.149,902.61 974.358,902.568 974.358,902.485C974.524,902.443 975.066,902.401 975.608,902.401C976.149,902.401 976.691,902.443 976.858,902.485C976.858,902.568 976.358,902.61 975.816,902.61ZM969.899,902.651C970.024,902.485 970.149,902.443 970.316,902.443L970.441,902.443C970.483,902.61 970.399,902.693 970.191,902.693C970.108,902.693 970.024,902.693 969.899,902.651ZM978.024,902.735C977.733,902.735 977.483,902.693 977.191,902.568C977.316,902.526 977.483,902.485 977.691,902.485C977.983,902.485 978.316,902.568 978.483,902.693C978.316,902.735 978.191,902.735 978.024,902.735ZM973.274,902.651C973.274,902.776 973.108,902.86 972.899,902.86C972.566,902.86 972.108,902.735 971.941,902.735L973.274,902.651ZM969.108,903.068C969.066,903.235 968.983,903.235 968.816,903.068C968.816,902.943 968.899,902.943 969.108,903.068ZM971.649,903.276C971.941,903.151 972.233,903.11 972.524,903.11L972.816,903.11L972.149,903.485L971.649,903.276ZM973.191,903.36L972.858,903.36C973.066,903.235 973.316,903.151 973.566,903.151C973.691,903.151 973.816,903.151 973.941,903.193C973.691,903.36 973.441,903.36 973.191,903.36ZM977.566,903.318C977.566,903.068 978.191,903.235 978.274,903.318L977.566,903.318ZM968.774,903.485C968.608,903.61 968.733,903.985 968.316,903.985C968.483,903.776 968.441,903.485 968.774,903.485ZM973.566,903.61L972.941,903.61C972.941,903.526 973.566,903.526 973.566,903.61ZM969.399,903.693L969.358,904.11C969.691,903.693 969.691,903.568 969.774,903.568C969.816,903.568 969.858,903.568 969.941,903.61L969.691,904.193C969.566,904.318 969.316,904.151 969.316,904.11L969.024,904.318C969.066,904.068 969.191,903.86 969.399,903.693ZM972.441,903.943L972.441,903.86C972.608,903.776 972.733,903.735 972.816,903.735C972.899,903.735 972.941,903.776 972.983,903.901C972.816,904.026 972.649,904.068 972.566,904.068C972.483,904.068 972.441,904.026 972.441,903.943ZM974.108,904.151C974.024,904.151 973.858,904.151 973.691,904.068C973.608,903.776 973.816,903.735 974.316,903.901C974.358,904.068 974.274,904.151 974.108,904.151ZM978.191,904.068L976.983,904.026C977.108,903.943 977.274,903.901 977.483,903.901C977.691,903.901 977.983,903.943 978.191,904.068ZM977.816,904.526C977.816,904.276 978.024,904.235 978.483,904.485C978.483,904.735 978.274,904.776 977.816,904.526ZM972.733,904.568C972.733,904.401 973.191,904.318 973.566,904.318C973.816,904.318 974.024,904.36 974.024,904.485L972.733,904.568ZM967.149,904.568L967.483,904.401C967.316,905.026 966.899,905.526 966.566,906.068C966.691,905.526 966.899,905.026 967.149,904.568ZM967.983,904.568C968.233,904.901 967.983,904.985 967.733,905.235L967.983,904.568ZM968.858,905.776L968.858,905.276C969.149,905.276 969.274,905.36 969.274,905.443C969.274,905.526 969.149,905.61 968.858,905.776ZM970.316,907.985C969.983,907.901 970.566,905.776 971.024,905.401C970.316,907.318 970.566,907.193 970.316,907.985ZM967.399,905.943L967.608,905.485C967.858,905.568 967.566,905.985 967.399,905.943ZM968.816,908.901C968.733,908.276 969.233,906.901 969.899,905.901L968.816,908.901ZM968.899,906.026C968.858,906.151 968.733,906.818 968.566,906.86L968.441,906.61C968.483,906.318 968.649,906.11 968.899,906.026ZM967.483,907.276C967.524,906.901 967.649,906.568 967.858,906.235C967.899,906.651 967.733,906.985 967.483,907.276ZM967.816,907.401L967.566,908.318C967.358,908.235 967.566,907.36 967.816,907.401ZM968.858,907.86L968.483,908.985C968.149,910.068 968.566,911.026 967.733,912.11C967.566,911.526 968.566,907.776 968.858,907.86ZM966.066,908.151C966.233,908.151 964.149,913.193 964.024,913.36C963.899,913.318 965.941,908.318 966.066,908.151ZM969.733,909.526C969.524,909.443 969.899,908.485 970.108,908.568L969.733,909.526ZM967.358,909.235C967.524,909.443 966.399,912.651 966.108,912.776C965.983,912.651 967.149,909.235 967.358,909.235ZM966.524,909.526C966.566,909.735 965.274,914.151 965.066,914.276C965.149,914.11 966.483,909.235 966.524,909.526ZM968.774,910.235C968.774,910.693 968.524,911.276 968.441,911.61C968.441,911.818 968.316,911.901 968.108,911.901L968.691,909.901C968.733,909.985 968.774,910.11 968.774,910.235ZM967.608,910.776C967.858,910.86 967.441,911.818 967.399,912.026C967.191,911.943 967.608,910.901 967.608,910.776ZM975.358,912.401C975.233,912.235 975.108,912.151 974.941,912.026C975.191,912.068 975.316,912.193 975.358,912.401ZM969.108,912.36C969.024,912.36 968.941,912.318 968.858,912.318C968.941,912.11 969.108,912.11 969.316,912.11C969.274,912.318 969.191,912.36 969.108,912.36ZM973.608,912.11C972.733,912.401 970.191,912.61 969.316,912.693C969.316,912.36 973.024,912.193 973.608,912.11ZM967.649,914.526C967.649,913.901 968.233,912.401 968.524,912.318L967.649,914.526ZM970.399,912.735C970.399,912.901 969.274,913.026 969.233,913.026C969.191,912.818 970.274,912.776 970.399,912.735ZM968.983,913.526C970.399,912.901 973.149,912.776 974.108,912.776C973.483,913.318 972.441,912.651 968.983,913.526ZM968.274,914.485C968.399,914.36 968.608,913.443 968.858,913.401C968.733,913.693 968.566,914.485 968.316,914.485L968.274,914.485ZM974.483,913.568C973.858,913.693 972.274,913.735 971.691,913.86C971.649,913.776 974.441,913.36 974.483,913.568ZM963.774,915.36C964.441,915.068 964.149,913.943 964.691,913.526C964.608,914.485 964.066,915.318 963.649,916.11C963.358,915.985 963.524,915.485 963.774,915.36ZM969.649,913.985L970.774,913.735C970.774,913.818 970.108,914.068 969.816,914.068C969.733,914.068 969.649,914.026 969.649,913.985ZM963.983,914.068C964.066,914.276 964.066,914.443 963.983,914.61C963.691,914.61 963.733,914.443 963.983,914.068ZM964.399,920.943C964.274,920.276 966.233,914.151 966.566,914.276C965.149,918.193 964.691,921.026 964.399,920.943ZM972.983,914.485C971.483,914.818 969.983,914.943 968.483,915.276C968.983,915.068 972.858,914.151 972.983,914.485ZM970.399,914.526C969.858,914.735 968.774,914.985 968.399,914.943C968.691,914.776 970.024,914.526 970.399,914.526ZM970.316,915.193C970.608,914.985 972.441,914.776 973.149,914.735C972.858,914.943 970.816,915.193 970.316,915.193ZM964.733,915.36L964.608,915.901C964.399,915.776 964.524,915.36 964.691,915.36L964.733,915.36ZM963.108,922.86C962.983,920.776 964.024,917.36 964.899,915.985C964.774,917.235 964.108,918.651 963.733,919.86C963.441,921.526 963.358,922.86 963.108,922.86ZM963.983,916.651C963.941,916.943 963.316,919.943 963.108,919.943C963.233,918.901 963.316,917.485 963.983,916.651ZM963.149,918.401C963.191,918.568 963.191,918.693 963.191,918.776C963.191,919.026 963.108,919.151 962.941,919.151L962.816,919.151C962.774,918.86 962.899,918.61 963.149,918.401ZM962.274,918.901C962.233,919.36 962.149,919.776 961.983,920.193C961.983,919.735 962.024,919.276 962.274,918.901ZM971.649,919.901C972.191,919.901 972.733,920.151 973.233,920.193C973.191,920.235 971.274,920.151 971.274,919.943C971.399,919.901 971.524,919.901 971.649,919.901ZM962.649,919.985C962.941,919.985 962.983,920.193 962.691,920.61C962.608,920.485 962.608,920.36 962.608,920.276C962.608,920.151 962.608,920.068 962.649,919.985ZM965.399,920.735C965.358,920.735 965.316,920.735 965.274,920.693C965.274,920.443 965.316,920.36 965.441,920.401C965.483,920.651 965.441,920.735 965.399,920.735ZM969.316,920.568L967.733,920.901C967.691,920.651 969.066,920.61 969.316,920.568ZM962.274,922.068C962.191,921.943 962.149,921.818 962.149,921.651C962.149,921.36 962.316,921.026 962.358,920.693C962.441,920.735 962.483,920.86 962.483,921.026C962.483,921.401 962.316,922.026 962.274,922.068ZM970.566,920.818L970.816,920.818C970.816,921.026 969.941,921.026 969.816,921.068C969.816,920.86 970.274,920.818 970.566,920.818ZM966.441,920.86C966.566,920.86 966.691,920.901 966.816,920.901C966.649,920.985 966.524,921.068 966.399,921.068C966.274,921.068 966.191,921.026 966.066,920.985C966.191,920.901 966.316,920.86 966.441,920.86ZM966.316,921.36L966.066,921.36C966.108,921.193 966.483,921.193 966.774,921.193L966.983,921.193C966.774,921.318 966.524,921.36 966.316,921.36ZM969.566,921.86C969.316,921.86 969.149,921.86 969.149,921.776L970.858,921.526C970.899,921.735 970.066,921.86 969.566,921.86ZM962.858,921.776L962.691,922.568C962.608,922.193 962.649,922.11 962.858,921.776ZM964.233,922.735C964.108,922.61 964.024,922.485 964.024,922.401C964.024,922.235 964.149,922.068 964.399,921.943L964.233,922.735ZM966.858,922.651C967.108,922.235 968.941,922.151 969.441,922.026C969.441,922.485 967.233,922.61 966.858,922.651ZM964.608,922.276C964.608,922.151 964.691,922.11 964.858,922.151C964.858,922.318 964.816,922.36 964.608,922.276ZM967.399,922.193C966.816,922.276 966.316,922.651 965.733,922.568C966.233,922.235 966.816,922.11 967.399,922.193ZM968.274,922.735C969.233,922.443 970.233,922.318 971.233,922.276C970.274,922.61 969.274,922.735 968.274,922.735ZM963.691,922.651C963.899,922.651 963.899,922.776 963.691,923.026C963.524,922.985 963.524,922.86 963.691,922.651ZM968.608,923.151C968.816,922.943 969.441,922.818 970.024,922.818C970.233,922.818 970.399,922.818 970.566,922.86L968.608,923.151ZM966.816,922.86C966.608,923.11 966.066,923.235 965.691,923.235L965.566,923.235C965.524,923.026 966.691,922.901 966.816,922.86ZM963.649,923.61L963.899,922.901C963.983,923.318 963.983,923.318 963.649,923.61ZM967.941,922.985L966.941,923.193C967.108,923.026 967.274,922.943 967.524,922.943C967.649,922.943 967.774,922.943 967.941,922.985ZM962.816,924.026C962.566,923.901 962.608,923.693 962.941,923.151C962.983,923.485 962.899,923.735 962.816,924.026ZM964.233,923.651L964.149,923.651C964.066,923.36 964.108,923.235 964.316,923.235C964.399,923.526 964.358,923.651 964.233,923.651ZM969.066,923.61C969.066,923.401 969.899,923.443 970.024,923.401C970.024,923.568 969.191,923.61 969.066,923.61ZM967.941,923.943L967.733,923.943C967.899,923.818 968.108,923.735 968.399,923.735L968.524,923.735C968.316,923.901 968.149,923.943 967.941,923.943ZM965.149,924.568C965.108,924.11 967.233,923.735 967.524,923.818C966.774,924.193 965.899,924.235 965.149,924.568ZM966.233,923.818L966.441,923.818C966.483,923.985 965.441,924.11 965.316,924.151C965.608,923.901 965.899,923.818 966.233,923.818Z" style="fill:white;"/>
            <path d="M1003.11,924.318C1002.19,922.901 1002.73,920.193 1000.27,919.818C999.941,919.776 999.649,919.735 999.316,919.735C997.733,919.735 996.066,920.276 994.524,920.61C995.899,914.401 996.774,910.526 998.858,904.651C999.233,903.276 999.358,902.651 999.816,901.61C998.899,900.901 997.566,900.318 996.483,900.318C995.983,900.318 995.524,900.443 995.191,900.693C994.316,901.276 993.816,903.568 993.524,904.568C992.274,908.526 991.358,912.568 990.399,916.568C990.108,917.651 989.649,918.693 989.483,919.776C989.399,920.276 989.024,921.276 989.024,922.36C989.024,922.568 989.066,922.818 989.108,923.068C989.233,923.568 989.649,923.693 990.399,924.193C990.816,925.401 991.483,926.068 992.649,926.068C992.899,926.068 993.149,926.026 993.441,925.985C994.649,925.735 997.774,925.193 998.899,925.11C999.441,925.026 1003.19,924.443 1003.11,924.318ZM998.816,902.36C998.983,902.401 998.149,905.068 997.941,905.318C997.774,905.235 998.649,902.568 998.816,902.36ZM995.774,902.443C995.816,902.526 995.816,902.651 995.816,902.776C995.816,903.943 994.774,906.735 994.691,906.693C994.691,906.61 995.733,902.568 995.774,902.443ZM994.733,902.776C994.774,903.276 993.358,907.651 993.024,908.235C993.399,906.693 994.233,904.276 994.733,902.776ZM995.149,903.36C995.233,903.36 994.149,907.026 994.108,907.026C994.191,906.443 994.066,905.568 995.149,903.36ZM997.899,905.735C997.649,906.61 997.316,907.485 997.066,908.36C996.983,907.818 997.524,906.193 997.899,905.735ZM993.274,910.026L994.066,907.443C993.983,908.36 993.566,909.651 993.274,910.026ZM992.858,909.11C992.983,909.193 992.316,912.318 991.649,913.443L992.858,909.11ZM996.316,910.86C996.483,910.901 996.024,912.235 996.024,912.318C995.774,912.235 996.274,911.026 996.316,910.86ZM995.233,912.36C994.983,912.318 995.024,912.11 995.399,911.776C995.608,911.86 995.524,912.026 995.233,912.36ZM995.566,914.651C995.608,914.068 995.649,913.776 995.983,913.193C995.983,913.735 995.816,914.318 995.566,914.651ZM994.483,913.693C994.441,914.36 994.233,915.026 994.066,915.693C994.108,914.985 994.233,914.318 994.483,913.693ZM992.608,916.818C992.608,915.776 992.899,914.735 993.108,913.735C993.316,913.776 992.691,916.485 992.608,916.818ZM991.524,914.026C991.524,914.193 991.441,914.36 991.358,914.526C991.316,914.568 991.358,913.985 991.524,914.026ZM994.816,915.651C994.899,915.276 994.983,914.901 995.108,914.568C995.399,914.651 994.899,915.61 994.816,915.651ZM991.524,916.318L991.774,914.818C991.816,914.943 991.816,915.068 991.816,915.235C991.816,915.61 991.733,915.985 991.524,916.318ZM993.858,918.901C993.941,917.526 994.191,916.235 994.524,914.901C994.358,916.235 994.149,917.568 993.858,918.901ZM995.274,915.735C995.066,915.443 995.274,915.151 995.358,914.901C995.358,915.193 995.316,915.443 995.274,915.735ZM992.858,918.568C992.858,918.068 992.983,917.61 993.066,917.11C993.149,916.526 993.274,915.985 993.399,915.401C993.691,915.485 992.983,918.568 992.899,918.985L992.858,918.568ZM990.066,919.235C990.191,918.776 990.816,916.11 991.066,916.151C991.024,916.526 990.233,918.735 990.066,919.235ZM992.858,916.86L992.858,917.151C992.774,917.693 992.691,918.193 992.566,918.693C992.483,918.068 992.691,917.443 992.858,916.86ZM992.149,918.776L992.274,917.985C992.441,918.026 992.316,918.818 992.149,918.776ZM993.358,919.651C993.233,919.318 993.399,918.61 993.691,918.026C993.608,918.568 993.441,919.11 993.358,919.651ZM990.274,920.985C990.233,920.276 990.399,919.568 990.733,918.901C990.566,919.61 990.399,920.276 990.274,920.985ZM992.358,921.235C992.108,921.235 992.358,920.443 992.358,920.318C992.566,920.318 992.649,920.401 992.649,920.568C992.649,920.735 992.566,920.943 992.358,921.235ZM993.358,920.818C993.149,920.651 993.191,920.568 993.399,920.36C993.399,920.568 993.358,920.651 993.358,920.818ZM991.483,921.651C991.441,921.568 991.399,921.401 991.399,921.235C991.399,921.026 991.483,920.818 991.649,920.818L991.483,921.651ZM999.941,920.86C999.774,921.026 997.983,921.401 997.774,921.193C997.983,921.193 999.774,920.86 999.941,920.86ZM998.524,921.901C998.483,921.568 999.316,921.568 1000.27,921.443C1000.19,921.693 998.941,922.11 998.524,921.901ZM998.233,921.568C997.191,921.943 996.066,922.026 994.941,922.11C994.941,921.943 997.899,921.61 998.233,921.568ZM998.316,921.985C998.316,922.151 996.024,922.61 995.941,922.61C995.941,922.401 998.191,922.026 998.316,921.985ZM999.691,922.318C999.816,922.276 1000.15,922.11 1000.36,922.11C1000.48,922.11 1000.57,922.151 1000.57,922.276L999.691,922.318ZM994.483,923.735C994.233,923.735 994.108,923.735 994.108,923.651C994.566,923.36 997.149,922.86 998.191,922.86C998.441,922.86 998.608,922.901 998.608,922.985C998.191,923.235 995.483,923.735 994.483,923.735ZM999.691,923.443C999.524,923.443 999.358,923.401 998.983,923.36C999.149,923.318 999.608,923.276 999.941,923.276C1000.11,923.276 1000.23,923.276 1000.23,923.36C999.983,923.443 999.816,923.443 999.691,923.443ZM993.858,924.943C993.941,924.776 994.108,924.735 994.274,924.818C994.316,925.026 994.191,925.068 993.858,924.943Z" style="fill:white;"/>
            <path d="M1025.19,902.026L1022.86,900.901C1021.57,900.235 1020.57,899.943 1019.65,899.818L1019.61,899.776L1019.57,899.776C1018.82,899.693 1018.15,899.693 1017.4,899.693C1015.98,901.485 1015.36,903.11 1014.73,904.151C1013.82,905.651 1011.86,908.568 1010.98,910.11C1010.57,910.86 1007.07,916.401 1005.11,922.276C1005.02,922.526 1004.98,922.776 1004.98,922.985C1004.98,923.693 1005.52,924.193 1006.86,924.818C1008.19,925.443 1009.4,925.943 1010.02,926.276C1009.94,925.36 1010.98,922.776 1011.77,920.651C1013.02,920.11 1015.86,919.568 1017.4,919.36C1017.07,921.318 1016.86,922.443 1016.86,923.151C1016.86,924.026 1017.19,924.276 1017.94,924.61C1018.19,924.735 1021.07,926.36 1021.44,926.151C1021.9,925.86 1022.07,921.901 1022.19,921.11C1022.65,918.818 1022.98,916.526 1023.48,914.235C1023.73,913.11 1025.44,905.818 1025.44,903.068C1025.44,902.485 1025.36,902.11 1025.19,902.026ZM1023.61,902.651C1023.52,903.068 1020.27,901.651 1020.02,901.526C1021.27,901.61 1022.44,902.193 1023.61,902.651ZM1021.4,902.276C1021.27,902.401 1021.15,902.401 1021.02,902.36C1020.65,902.235 1020.19,902.151 1019.82,901.901C1019.94,901.61 1021.23,902.193 1021.4,902.276ZM1022.94,903.651C1022.65,903.61 1021.19,903.318 1021.36,902.943L1018.23,902.276C1018.94,902.151 1023.27,903.026 1022.94,903.651ZM1016.48,903.735C1016.44,904.235 1014.61,907.86 1013.57,909.401C1014.44,907.485 1015.44,905.651 1016.48,903.735ZM1015.73,903.776C1015.98,903.943 1014.02,906.943 1013.82,907.193C1013.65,906.985 1015.52,904.11 1015.73,903.776ZM1024.65,905.568C1024.52,905.026 1024.77,904.61 1024.94,904.193C1024.9,904.651 1024.82,905.068 1024.65,905.568ZM1020.77,904.401C1020.77,904.818 1020.57,905.193 1020.23,905.36L1020.44,904.485L1020.77,904.401ZM1017.94,915.026C1017.32,915.401 1015.4,915.61 1014.07,915.818C1014.44,914.068 1015.77,912.318 1016.57,910.776C1017.52,908.901 1018.44,906.485 1019.98,905.068C1019.69,907.485 1019.02,909.818 1018.57,912.193C1018.44,912.86 1018.27,914.443 1017.94,915.026ZM1023.77,905.36C1023.73,905.485 1023.61,906.485 1023.44,906.443C1023.48,906.193 1023.4,905.901 1023.4,905.693C1023.4,905.485 1023.44,905.36 1023.65,905.36L1023.77,905.36ZM1020.27,907.401C1020.48,907.151 1020.44,905.443 1020.77,905.485C1020.73,905.985 1019.9,910.568 1019.23,914.651C1019.23,914.193 1020.11,907.776 1020.27,907.401ZM1023.27,905.985C1023.27,906.568 1023.19,907.443 1023.19,907.526C1022.98,907.443 1022.86,907.318 1022.86,907.11L1022.9,906.943C1022.9,906.443 1022.98,905.943 1023.19,905.485C1023.27,905.485 1023.27,905.735 1023.27,905.985ZM1022.36,907.485C1022.36,907.068 1022.52,906.776 1022.82,906.61C1022.69,907.235 1022.77,907.776 1022.48,908.276C1022.4,907.985 1022.36,907.693 1022.36,907.485ZM1024.32,908.651C1024.19,908.401 1024.32,907.693 1024.57,907.235L1024.32,908.651ZM1022.19,908.11C1022.19,909.193 1022.02,910.193 1021.73,911.193C1021.73,910.151 1021.98,909.151 1022.19,908.11ZM1022.57,911.985L1023.07,908.485C1023.23,908.526 1022.77,912.026 1022.57,911.985ZM1023.94,910.651C1023.69,911.11 1023.94,911.86 1023.57,912.318C1023.57,911.943 1023.98,909.526 1024.23,909.193C1024.19,909.485 1023.9,910.276 1023.94,910.651ZM1010.69,915.985L1011.19,914.86C1011.65,913.651 1011.98,912.11 1012.77,911.11C1012.86,911.901 1011.27,916.11 1010.69,915.985ZM1020.27,915.818L1020.82,912.276C1020.77,913.026 1020.65,915.568 1020.27,915.818ZM1022.9,914.735C1022.86,914.61 1022.82,914.485 1022.82,914.36C1022.82,913.735 1023.32,912.985 1023.52,912.568C1023.69,913.068 1023.15,913.86 1022.9,914.735ZM1011.44,916.11C1011.57,914.943 1012.36,913.61 1012.94,912.651C1012.77,913.901 1012.48,915.36 1011.44,916.11ZM1021.9,916.235C1022.07,915.151 1022.15,914.026 1022.44,912.86C1022.44,912.943 1022.48,913.068 1022.48,913.193C1022.48,913.943 1022.23,915.401 1021.9,916.235ZM1021.65,915.818L1021.77,915.11C1021.86,915.11 1021.9,915.86 1021.65,915.818ZM1020.23,916.193C1020.44,916.193 1020.44,916.276 1020.32,916.485C1020.19,916.485 1020.15,916.401 1020.23,916.193ZM1008.65,916.61C1008.82,916.693 1008.11,918.151 1008.07,918.235C1008.15,917.651 1008.32,917.11 1008.65,916.61ZM1008.44,920.776C1008.44,919.651 1009.27,918.026 1009.9,917.068C1010.36,917.193 1008.61,920.485 1008.44,920.776ZM1021.19,920.193C1021.23,919.526 1021.15,917.11 1021.77,917.235L1021.19,920.193ZM1016.36,917.86C1016.4,918.068 1012.98,918.776 1012.61,918.86C1012.52,918.526 1015.94,917.943 1016.36,917.86ZM1020.48,918.11C1020.48,918.235 1020.48,918.443 1020.32,918.401C1020.27,918.151 1020.36,918.068 1020.48,918.11ZM1012.52,919.568L1014.02,918.943C1013.57,919.11 1012.52,919.36 1012.44,919.235C1013.07,918.818 1015.77,918.318 1017.07,918.318C1017.27,918.318 1017.44,918.318 1017.57,918.36L1012.52,919.568ZM1009.15,920.568C1009.36,920.11 1009.61,918.985 1009.94,918.568C1009.86,919.318 1009.69,920.068 1009.15,920.568ZM1020.4,918.776C1020.4,918.985 1020.23,920.651 1020.02,920.86C1019.86,920.735 1019.82,920.526 1019.82,920.276C1019.82,919.735 1020.15,919.026 1020.4,918.776ZM1014.27,918.86C1014.27,918.86 1014.19,918.901 1014.02,918.943C1014.11,918.943 1014.19,918.901 1014.27,918.86ZM1020.57,921.985C1020.44,922.526 1020.57,923.651 1020.02,923.901C1020.07,923.401 1020.77,919.36 1020.9,919.36C1020.86,920.235 1020.77,921.193 1020.57,921.985ZM1017.82,922.318C1017.77,922.11 1017.77,921.943 1017.77,921.776C1017.77,921.151 1017.94,920.568 1018.23,919.735C1018.23,919.985 1018.07,922.068 1017.82,922.318ZM1007.02,921.36C1006.73,921.193 1007.4,919.901 1007.48,919.818C1007.69,920.193 1007.15,920.985 1007.02,921.36ZM1009.82,921.151L1010.36,919.818C1010.4,920.36 1010.23,920.735 1009.82,921.151ZM1019.9,921.193L1020.23,921.485C1019.94,921.443 1019.94,921.443 1019.9,921.193ZM1007.19,922.86L1007.19,923.11C1006.98,922.943 1006.86,922.735 1006.86,922.526C1006.86,922.318 1007.02,922.11 1007.36,922.026C1007.23,922.318 1007.19,922.568 1007.19,922.86ZM1008.4,923.11L1008.4,923.568C1008.4,923.735 1008.4,923.901 1008.36,924.11L1007.94,923.985C1007.9,924.11 1008.32,922.693 1008.48,922.651C1008.4,922.818 1008.4,922.985 1008.4,923.11ZM1021.15,925.443C1021.11,924.985 1021.15,923.693 1021.4,923.36C1021.32,923.776 1021.36,925.068 1021.15,925.443Z" style="fill:white;"/>
            <path d="M1063.94,902.36C1062.98,901.485 1061.36,900.943 1059.9,900.693C1059.48,900.985 1059.11,901.485 1058.65,902.026C1058.19,902.568 1057.07,904.151 1056.36,905.193C1055.65,906.276 1054.57,907.86 1053.15,910.276C1052.07,912.11 1051.73,912.776 1050.69,914.61C1050.15,915.568 1049.4,917.318 1048.4,919.11C1048.15,916.151 1047.77,912.318 1047.77,909.276C1047.77,907.651 1047.77,905.901 1047.73,903.526C1047.69,901.443 1047.52,901.151 1047.19,900.985C1046.4,900.61 1044.07,900.11 1042.94,900.11C1042.61,900.11 1042.77,900.276 1042.48,900.818C1041.82,901.985 1041.23,903.068 1040.73,904.443C1040.4,905.36 1039.61,907.651 1038.82,909.651C1038.19,911.235 1037.73,912.985 1036.69,915.735C1036.02,917.485 1034.57,921.651 1034.57,922.735C1034.57,923.818 1035.32,923.985 1035.65,924.276C1036.61,925.11 1037.94,925.86 1038.98,926.193C1039.52,924.193 1040.44,920.485 1040.77,919.318C1041.19,917.86 1041.57,916.61 1042.02,915.151C1042.36,914.068 1043.07,911.651 1043.94,909.11C1043.94,912.36 1044.02,918.818 1044.36,921.36C1044.57,923.026 1044.98,923.776 1046.19,924.36C1047.02,924.776 1048.02,925.193 1049.07,925.401C1050.02,925.61 1049.86,924.735 1051.02,922.735C1053.19,919.068 1056.32,913.36 1058.36,909.568C1057.44,913.61 1056.61,917.151 1056.19,918.61C1055.65,920.61 1055.15,923.068 1055.15,924.318C1055.15,925.943 1056.52,925.776 1059.98,926.568C1060.15,925.276 1060.36,924.235 1060.57,922.818C1061.11,919.151 1061.73,916.068 1062.57,912.443C1062.94,910.818 1063.27,908.86 1063.61,907.526C1064.07,905.651 1064.4,904.443 1064.4,903.61C1064.4,903.026 1064.27,902.651 1063.94,902.36ZM1045.73,902.11C1045.77,902.151 1045.82,902.568 1045.82,903.068C1045.82,904.068 1045.73,905.443 1045.57,905.651C1045.52,905.61 1045.52,905.318 1045.52,904.943C1045.52,903.943 1045.61,902.235 1045.73,902.11ZM1044.4,904.776C1044.15,904.485 1045.07,902.318 1045.23,902.151C1045.19,902.36 1044.44,904.526 1044.4,904.776ZM1061.02,902.36C1061.11,902.443 1059.82,904.485 1059.73,904.526C1059.61,904.443 1060.82,902.443 1061.02,902.36ZM1063.65,903.485C1063.48,903.318 1062.48,902.526 1062.32,902.401C1062.52,902.401 1063.82,903.235 1063.65,903.485ZM1060.86,904.443C1060.9,904.276 1061.36,902.735 1061.48,902.86C1061.44,903.068 1060.98,904.568 1060.86,904.443ZM1059.73,903.276C1059.61,903.526 1058.48,905.485 1058.4,905.36C1058.44,905.068 1059.61,903.068 1059.73,903.276ZM1046.4,903.485C1046.57,903.485 1046.61,904.776 1046.61,905.735C1046.61,906.36 1046.57,906.86 1046.57,906.901C1046.52,905.985 1046.36,905.235 1046.36,904.276C1046.36,904.026 1046.36,903.776 1046.4,903.485ZM1043.94,903.526C1044.11,903.651 1042.98,906.151 1042.9,906.235C1042.94,905.235 1043.65,904.485 1043.94,903.526ZM1047.02,909.276L1046.86,904.36C1047.07,904.36 1047.07,909.193 1047.02,909.276ZM1043.69,905.651L1044.02,904.776C1044.32,904.943 1043.86,905.568 1043.69,905.651ZM1059.98,907.901C1059.94,907.693 1060.73,904.943 1060.9,904.86C1061.02,904.985 1060.23,907.735 1059.98,907.901ZM1059.52,906.235C1059.57,905.735 1059.57,905.735 1059.9,905.651L1059.52,906.235ZM1043.44,907.443C1043.44,907.151 1043.82,906.36 1044.02,906.026C1044.07,906.651 1043.61,906.901 1043.44,907.443ZM1056.57,907.735C1056.86,907.276 1057.15,906.86 1057.48,906.443C1057.69,906.651 1056.61,907.693 1056.57,907.735ZM1056.73,906.568L1055.82,908.068C1055.94,907.61 1056.36,906.776 1056.73,906.568ZM1045.61,907.526C1045.61,907.276 1045.65,906.985 1045.69,906.776C1045.77,906.776 1045.77,907.068 1045.77,907.36C1045.77,907.693 1045.77,908.068 1045.73,908.151C1045.65,907.943 1045.61,907.735 1045.61,907.526ZM1061.61,908.735C1061.4,908.651 1061.77,907.485 1061.9,907.235C1062.02,907.318 1061.61,908.651 1061.61,908.735ZM1061.32,907.318L1060.69,910.026C1060.65,910.026 1060.94,907.401 1061.32,907.318ZM1041.19,910.443C1041.27,910.276 1042.36,907.526 1042.4,907.36C1042.48,907.443 1041.44,910.568 1041.19,910.443ZM1040.36,910.151C1040.57,909.276 1040.86,908.401 1041.4,907.693C1040.94,908.735 1040.94,909.443 1040.36,910.151ZM1042.98,910.151C1042.77,910.026 1043.36,908.86 1043.52,907.86C1043.61,908.568 1043.36,909.818 1042.98,910.151ZM1056.23,910.526C1056.11,910.401 1056.11,910.276 1056.27,910.151C1056.65,909.651 1057.02,909.151 1057.44,908.693C1057.07,909.318 1056.73,909.943 1056.23,910.526ZM1045.69,909.401C1045.82,909.36 1045.86,910.151 1045.86,910.818C1045.86,911.11 1045.86,911.401 1045.82,911.526C1045.69,911.526 1045.61,910.818 1045.61,910.193C1045.61,909.86 1045.65,909.526 1045.69,909.401ZM1059.98,909.651C1060.07,909.818 1059.77,913.151 1059.61,913.193C1059.65,913.11 1059.94,909.776 1059.98,909.651ZM1041.4,912.401C1041.4,912.068 1041.94,910.985 1041.9,910.901C1042.07,910.735 1042.27,909.985 1042.4,909.818C1042.4,910.443 1041.73,911.818 1041.4,912.401ZM1044.32,912.026C1044.32,910.985 1044.36,910.026 1044.4,909.818C1044.4,910.276 1044.57,914.61 1044.57,915.151C1044.36,914.526 1044.32,913.193 1044.32,912.026ZM1056.19,911.735C1056.44,911.318 1056.94,910.068 1057.32,909.818C1057.11,910.026 1056.52,911.651 1056.19,911.735ZM1046.52,910.068C1046.77,910.776 1046.98,914.068 1047.19,916.401C1046.82,915.526 1046.52,911.11 1046.52,910.068ZM1060.23,916.86C1060.23,916.651 1061.36,910.401 1061.48,910.443C1061.48,910.568 1060.4,916.943 1060.23,916.86ZM1054.4,910.485C1054.52,910.568 1053.48,912.318 1053.23,912.026L1054.4,910.485ZM1058.69,910.651C1058.73,912.693 1057.77,915.985 1057.57,916.235C1057.48,916.235 1058.23,912.901 1058.69,910.651ZM1045.07,914.818C1045.02,914.443 1044.98,913.776 1044.98,913.151C1044.98,912.401 1045.02,911.651 1045.11,911.318C1045.19,911.693 1045.23,912.026 1045.23,912.401C1045.23,913.193 1045.07,913.985 1045.07,914.818ZM1054.57,911.693C1054.77,911.818 1053.19,913.943 1053.02,914.193C1052.9,913.151 1053.94,912.485 1054.57,911.693ZM1039.82,913.485C1039.86,912.943 1040.36,912.318 1040.4,912.068C1040.32,912.526 1040.02,913.11 1039.82,913.485ZM1041.07,913.735L1040.86,914.276C1040.57,914.11 1041.48,912.61 1041.52,912.568C1041.61,912.818 1041.15,913.526 1041.07,913.735ZM1054.86,912.651C1054.77,912.943 1054.57,913.151 1054.32,913.318C1054.44,913.026 1054.65,912.818 1054.86,912.651ZM1046.27,914.485C1046.27,914.693 1046.27,914.86 1046.23,914.943C1046.23,914.568 1046.02,913.026 1046.02,912.693C1046.15,912.985 1046.27,913.901 1046.27,914.485ZM1053.65,916.36C1053.9,915.568 1054.65,913.985 1055.27,913.485C1055.52,913.818 1053.9,916.11 1053.65,916.36ZM1039.61,915.776C1039.52,915.485 1039.82,914.36 1040.11,913.943C1039.94,914.61 1039.94,915.235 1039.61,915.776ZM1058.57,918.818L1058.57,918.61C1058.77,917.776 1059.4,914.943 1059.57,914.026C1059.86,914.193 1058.69,918.86 1058.65,919.276C1058.61,919.151 1058.57,919.026 1058.57,918.818ZM1047.48,915.026C1047.61,915.276 1048.11,919.151 1047.9,919.11C1047.82,918.86 1047.36,914.943 1047.48,915.026ZM1050.23,918.61C1050.4,918.151 1052.07,915.026 1052.44,915.401C1052.15,915.818 1050.57,918.818 1050.23,918.61ZM1040.77,916.985C1040.77,916.401 1041.02,915.985 1041.19,915.526C1041.11,916.026 1040.94,916.526 1040.77,916.985ZM1058.73,915.693C1058.77,916.235 1058.57,916.693 1058.44,917.11C1058.36,916.61 1058.57,916.151 1058.73,915.693ZM1039.69,917.36C1039.44,917.235 1039.98,915.943 1040.11,915.776C1040.02,916.36 1039.94,916.86 1039.69,917.36ZM1059.77,915.818C1059.98,915.86 1059.4,917.818 1059.36,917.985C1059.15,918.651 1059.07,920.693 1058.69,921.276C1058.52,919.86 1059.57,917.11 1059.77,915.818ZM1038.36,915.985C1038.11,917.318 1037.57,918.485 1037.11,919.776C1037.36,918.401 1037.9,917.193 1038.36,915.985ZM1037.77,916.151C1037.57,917.86 1036.44,919.86 1036.19,920.943C1036.52,919.318 1037.19,917.61 1037.77,916.151ZM1045.65,918.026C1045.57,918.151 1045.57,918.36 1045.57,918.568C1045.57,919.401 1045.94,920.651 1046.02,921.151C1045.69,921.193 1045.32,916.693 1045.32,916.276L1045.65,918.026ZM1046.07,916.443C1046.11,916.735 1046.52,918.568 1046.36,918.61C1046.11,917.943 1046.02,917.151 1046.07,916.443ZM1039.4,916.485C1039.19,917.443 1039.4,916.86 1038.94,918.026C1038.98,917.818 1039.27,916.651 1039.4,916.485ZM1053.07,918.026C1052.94,917.901 1053.65,917.11 1053.69,917.026C1053.69,917.485 1053.36,917.735 1053.07,918.026ZM1037.65,919.61L1038.27,917.318C1038.27,917.61 1037.94,919.735 1037.65,919.61ZM1046.61,917.401C1046.77,917.401 1046.98,918.568 1046.98,919.276C1046.98,919.526 1046.94,919.693 1046.9,919.776C1046.9,919.61 1046.65,917.568 1046.61,917.401ZM1050.48,917.401C1050.4,917.735 1049.4,919.735 1049.15,919.443C1049.57,918.776 1050.02,918.11 1050.48,917.401ZM1059.23,923.193C1059.02,923.151 1059.98,919.61 1060.23,917.526C1060.52,917.568 1059.52,922.735 1059.23,923.193ZM1038.65,920.943C1038.52,919.86 1038.98,918.943 1039.15,917.985C1039.23,917.776 1039.36,917.735 1039.52,917.86C1039.23,918.86 1038.98,919.86 1038.65,920.943ZM1044.69,917.776L1045.15,920.693C1044.65,920.776 1044.69,918.151 1044.69,917.776ZM1057.48,917.776C1057.61,917.776 1057.11,919.985 1056.98,920.193C1056.82,920.193 1057.36,918.026 1057.48,917.776ZM1051.9,919.86C1051.69,919.735 1052.52,918.485 1052.61,918.36C1052.9,918.61 1052.02,919.61 1051.9,919.86ZM1057.77,918.818C1058.02,918.86 1057.57,919.61 1057.36,921.151C1057.11,921.11 1057.48,919.235 1057.77,918.818ZM1046.27,919.401C1046.48,919.318 1046.82,922.235 1046.73,922.651C1046.52,922.735 1046.19,919.86 1046.27,919.401ZM1037.82,922.11C1037.73,921.693 1037.86,921.235 1038.4,920.11L1037.82,922.11ZM1051.11,921.235C1050.98,920.943 1051.48,920.235 1051.77,920.235C1051.82,920.235 1051.86,920.276 1051.9,920.318L1051.11,921.235ZM1039.73,921.943C1039.69,921.86 1039.61,921.61 1039.61,921.401C1039.61,921.235 1039.65,921.11 1039.77,921.11C1039.82,921.11 1039.86,921.151 1039.9,921.151C1039.82,921.401 1039.77,921.651 1039.73,921.943ZM1049.02,922.735C1049.07,922.568 1049.73,921.401 1049.9,921.568C1049.61,921.985 1049.27,922.36 1049.02,922.735ZM1038.94,921.693L1038.94,921.568C1039.15,921.61 1039.27,921.693 1039.27,921.86C1039.27,921.943 1039.23,922.068 1039.11,922.235C1039.02,922.11 1038.94,921.901 1038.94,921.693ZM1036.07,922.276C1036.07,922.068 1036.19,921.985 1036.48,921.86L1036.15,922.693C1036.11,922.526 1036.07,922.36 1036.07,922.276ZM1057.73,925.526C1057.57,925.36 1058.15,922.443 1058.36,922.11C1058.36,922.276 1057.73,925.318 1057.73,925.526ZM1036.52,923.693C1036.48,923.693 1036.48,923.526 1036.48,923.36C1036.48,923.026 1036.52,922.526 1036.65,922.568L1036.52,923.693ZM1038.02,923.36C1037.98,923.193 1037.98,923.068 1037.98,922.985C1037.98,922.86 1038.02,922.776 1038.15,922.568C1038.11,922.776 1038.11,923.026 1038.02,923.36ZM1048.23,924.651C1048.23,924.526 1045.9,924.068 1045.65,922.943C1046.52,923.818 1048.32,924.526 1048.23,924.651ZM1038.44,924.318L1038.77,923.068C1038.77,923.526 1038.82,924.026 1038.44,924.318ZM1039.07,924.61C1039.15,924.193 1039.15,923.735 1039.44,923.443C1039.44,923.818 1039.27,924.276 1039.07,924.61ZM1038.07,925.026C1037.73,924.943 1037.73,924.943 1038.07,924.526L1038.07,925.026Z" style="fill:white;"/>
            <path d="M1083.02,900.693C1082.32,900.61 1082.02,901.276 1081.65,902.401C1080.77,905.026 1080.32,906.526 1079.52,909.151C1078.9,911.235 1077.61,916.026 1077.32,917.985C1075.61,918.651 1072.65,919.735 1070.57,920.485C1071.52,914.693 1073.65,908.943 1075.94,903.526C1076.07,903.193 1076.15,902.901 1076.15,902.651C1076.15,901.443 1074.69,900.943 1072.23,900.735C1071.15,900.651 1071.36,901.651 1070.69,903.068C1069.61,905.401 1068.69,908.026 1067.98,910.526C1067.15,913.526 1066.4,916.485 1065.77,919.526C1065.65,920.151 1065.57,920.735 1065.57,921.276C1065.57,923.11 1066.36,924.401 1068.23,924.901C1068.86,925.276 1069.4,925.443 1069.94,925.443C1070.9,925.443 1071.82,924.985 1073.07,924.526C1074.36,924.068 1075.61,923.443 1076.82,922.526C1076.73,923.235 1076.73,923.818 1076.73,924.068C1076.73,924.276 1076.57,924.985 1077.23,925.36C1078.15,925.86 1079.57,926.151 1080.82,926.151C1081.19,926.151 1081.52,926.11 1081.86,926.068C1081.86,924.568 1081.9,923.235 1082.15,921.401C1082.48,918.86 1082.77,916.61 1083.4,914.151C1083.94,911.943 1084.61,909.735 1085.27,907.526C1085.65,906.276 1086.19,905.151 1086.61,903.985C1086.82,903.568 1086.9,903.193 1086.9,902.86C1086.9,901.151 1084.48,900.86 1083.02,900.693ZM1084.98,901.61C1084.69,901.735 1084.61,901.735 1084.23,901.526C1084.48,901.526 1084.69,901.568 1084.98,901.61ZM1074.61,901.86C1074.65,901.86 1074.69,901.86 1074.69,901.818C1074.44,901.526 1075.57,901.985 1075.57,902.485C1075.82,902.568 1073.4,901.86 1073.4,901.568C1073.4,901.526 1074.32,901.86 1074.61,901.86ZM1084.9,903.86C1084.77,903.86 1084.69,903.735 1084.69,903.526C1084.69,903.276 1084.86,902.901 1085.23,902.901L1085.36,902.901C1085.19,903.235 1085.02,903.568 1084.9,903.86ZM1074.23,904.11C1074.52,903.318 1074.65,902.985 1074.94,903.026C1074.86,903.193 1074.44,904.193 1074.23,904.11ZM1072.27,903.651C1072.27,903.985 1071.86,905.401 1071.57,905.693C1071.57,905.276 1071.94,903.818 1072.27,903.651ZM1074.73,905.11C1074.69,904.735 1074.77,904.526 1075.23,903.943C1075.11,904.318 1074.98,904.693 1074.73,905.11ZM1082.15,912.443C1082.07,912.401 1082.02,912.318 1082.02,912.11C1082.02,910.693 1083.9,905.318 1084.52,904.901C1084.07,906.693 1083.82,907.11 1083.73,907.485C1083.36,909.235 1083.02,909.36 1082.15,912.443ZM1073.82,904.985C1073.86,905.61 1073.4,906.026 1073.19,906.526C1073.36,905.985 1073.44,905.443 1073.82,904.985ZM1082.57,905.985C1082.82,906.068 1082.73,906.276 1082.4,906.61C1081.94,906.485 1082.52,906.151 1082.57,905.985ZM1084.44,906.818C1084.52,906.61 1084.57,906.443 1084.65,906.276C1085.07,906.401 1084.69,906.568 1084.44,906.818ZM1070.98,906.526C1071.32,906.901 1070.02,909.735 1069.86,910.193L1070.98,906.526ZM1072.61,908.526C1072.65,908.235 1073.11,907.026 1073.27,907.193C1073.11,907.735 1071.44,912.985 1071.86,911.86C1072.19,912.151 1070.94,915.61 1070.86,915.568C1071.27,913.276 1071.61,910.193 1072.61,908.526ZM1081.07,907.818L1080.61,909.151C1080.4,909.151 1080.94,908.11 1081.07,907.818ZM1083.61,910.693C1083.69,910.443 1083.94,909.526 1084.15,909.068C1084.19,909.568 1084.11,910.443 1083.61,910.693ZM1079.07,914.026C1079.11,914.026 1079.65,911.485 1079.69,911.276C1079.98,911.36 1079.23,914.651 1078.94,914.61L1079.07,914.026ZM1069.77,913.276C1069.65,913.776 1069.65,914.193 1069.4,914.651C1069.27,913.86 1069.65,911.901 1070.32,911.401C1070.15,912.026 1069.98,912.651 1069.77,913.276ZM1082.44,914.401C1082.52,913.735 1082.73,913.11 1083.02,912.568C1083.11,912.776 1082.61,914.443 1082.44,914.401ZM1081.57,912.943C1081.65,912.943 1081.69,913.068 1081.69,913.235C1081.69,913.818 1081.32,914.901 1081.27,915.026L1081.57,912.943ZM1068.82,913.651C1068.86,914.151 1068.4,915.943 1068.27,916.318C1068.32,915.943 1068.61,914.068 1068.82,913.651ZM1066.86,918.86C1066.98,918.026 1067.44,914.526 1068.07,913.943C1067.82,915.068 1067.61,915.61 1067.4,917.026C1067.15,918.151 1066.77,919.11 1066.86,918.86ZM1078.23,916.818C1078.15,916.693 1078.11,916.526 1078.11,916.401C1078.11,916.11 1078.23,915.776 1078.44,915.568L1078.23,916.818ZM1079.94,915.735C1079.9,916.11 1079.65,917.526 1079.57,917.86C1079.44,918.36 1079.32,919.485 1079.15,919.901C1078.98,919.11 1079.61,916.693 1079.94,915.735ZM1080.98,923.485C1080.98,921.193 1081.27,919.276 1081.73,916.151C1081.69,918.276 1081.32,923.11 1080.98,923.485ZM1068.69,916.985C1068.48,918.36 1068.23,919.735 1068.02,921.11C1067.94,919.651 1068.27,918.318 1068.69,916.985ZM1069.23,920.901C1069.19,920.776 1069.4,918.651 1069.73,918.318C1069.65,918.985 1069.69,920.61 1069.23,920.901ZM1073.19,920.651C1073.36,920.401 1077.11,918.818 1077.27,919.068C1076.44,919.61 1074.02,920.11 1073.19,920.651ZM1073.02,920.11C1072.52,920.485 1070.86,921.068 1070.23,921.318C1070.73,920.901 1072.44,920.318 1073.02,920.11ZM1075.44,920.443L1071.52,921.943C1071.61,921.735 1075.07,920.568 1075.44,920.443ZM1070.86,923.776C1070.61,923.61 1075.9,921.318 1076.36,921.36C1075.23,922.193 1071.73,923.11 1070.86,923.776ZM1069.15,923.443C1069.15,923.318 1069.19,923.193 1069.32,923.026C1069.36,923.151 1069.36,923.276 1069.36,923.36C1069.36,923.526 1069.32,923.693 1069.23,923.86C1069.19,923.693 1069.15,923.568 1069.15,923.443ZM1069.48,925.235C1069.52,925.026 1067.52,923.943 1067.52,923.735C1068.15,924.235 1069.98,925.11 1069.48,925.235ZM1080.77,925.485C1080.65,925.485 1080.52,925.485 1080.4,925.443C1080.57,925.318 1078.98,924.901 1078.77,924.901C1078.9,924.818 1080.98,925.235 1081.11,925.11C1081.27,925.36 1081.02,925.485 1080.77,925.485Z" style="fill:white;"/>
            <path d="M1092.77,926.36C1096.15,926.36 1101.32,924.36 1101.44,920.61C1101.65,914.068 1093.4,916.61 1093.9,911.985C1093.94,911.61 1093.98,911.193 1094.15,910.693C1094.98,908.235 1097.82,902.735 1100.07,902.61C1100.19,902.985 1100.27,903.401 1100.23,903.943C1100.19,904.485 1100.07,905.11 1099.82,905.818C1099.36,907.068 1097.61,909.61 1097.61,911.11C1097.61,911.318 1097.61,911.526 1097.69,911.693C1098.15,912.568 1099.94,913.276 1100.69,913.443C1100.86,913.485 1101.02,913.485 1101.11,913.485C1102.36,913.485 1103.07,912.526 1103.61,911.068C1104.44,908.86 1104.98,907.61 1105.15,905.235C1105.32,903.11 1104.4,901.651 1102.27,901.276C1101.61,900.36 1100.82,900.068 1098.9,900.068C1097.52,900.068 1095.77,900.443 1094.57,901.151C1091.65,902.86 1089.07,907.11 1088.86,910.818C1088.77,912.235 1088.94,913.61 1089.73,914.735C1090.9,916.36 1093.73,917.11 1095.57,917.693C1096.61,918.026 1097.82,918.485 1097.82,919.318C1097.82,919.693 1097.69,920.318 1097.02,920.735C1096.27,921.193 1095.27,921.401 1094.32,921.401C1093.11,921.401 1091.82,921.11 1090.94,920.818C1090.19,920.568 1089.4,920.151 1088.82,919.693C1087.86,918.943 1088.4,918.318 1088.02,918.318C1086.86,918.318 1085.98,920.61 1085.82,922.151C1085.77,922.568 1085.82,922.901 1085.9,923.11C1086.9,925.61 1090.52,926.36 1092.77,926.36ZM1101.19,900.943L1100.77,900.693C1101.07,900.651 1101.07,900.651 1101.19,900.943ZM1096.48,901.401C1096.98,901.026 1097.52,900.818 1098.15,900.735C1098.19,900.901 1096.57,901.401 1096.48,901.401ZM1097.69,901.651C1097.61,901.526 1097.77,901.401 1097.94,901.401L1098.02,901.443L1097.69,901.651ZM1101.11,902.235L1100.9,901.776C1101.11,901.901 1101.19,901.943 1101.19,902.026C1101.19,902.068 1101.19,902.11 1101.11,902.235ZM1095.4,902.735C1095.57,902.193 1095.94,901.901 1096.52,901.86C1096.15,902.193 1095.77,902.36 1095.4,902.735ZM1096.4,902.61C1096.57,902.235 1096.77,901.985 1097.15,901.901L1096.4,902.61ZM1096.9,903.443C1096.77,903.318 1097.48,902.11 1098.52,901.943C1097.69,902.485 1097.36,903.151 1096.9,903.443ZM1092.98,903.86C1093.4,903.235 1093.98,902.818 1094.57,902.401C1094.07,902.943 1093.57,903.485 1092.98,903.86ZM1102.94,903.86L1102.86,903.026C1103.02,903.193 1103.07,903.36 1103.07,903.526C1103.07,903.61 1103.02,903.735 1102.94,903.86ZM1100.98,903.693C1100.94,903.693 1100.86,903.526 1100.94,903.318C1100.98,903.193 1100.98,903.026 1101.11,903.068L1100.98,903.693ZM1094.44,903.818C1094.32,903.693 1094.65,903.318 1094.86,903.318C1094.9,903.318 1094.9,903.318 1094.9,903.36L1094.44,903.818ZM1095.52,904.068C1095.69,903.735 1095.86,903.485 1096.23,903.401C1096.02,903.693 1095.94,903.985 1095.52,904.068ZM1093.61,905.485C1093.9,904.693 1094.48,904.193 1095.07,903.693C1094.65,904.36 1094.07,904.818 1093.61,905.485ZM1102.36,905.526L1102.57,903.735C1102.65,903.86 1102.65,904.151 1102.65,904.443C1102.65,904.86 1102.52,905.36 1102.36,905.526ZM1095.48,905.818C1095.44,905.651 1095.4,905.526 1095.4,905.401C1095.4,905.11 1095.61,904.86 1095.86,904.651C1096.11,904.318 1096.32,903.86 1096.69,903.818C1096.07,904.651 1095.86,904.86 1095.48,905.818ZM1102.94,906.943L1103.32,904.026C1103.44,904.318 1103.44,904.651 1103.44,904.943C1103.44,905.651 1103.15,906.276 1102.94,906.943ZM1102.07,905.235C1102.02,905.026 1102.02,904.901 1102.02,904.776C1102.02,904.61 1102.11,904.526 1102.23,904.235C1102.27,904.651 1102.19,904.943 1102.07,905.235ZM1091.94,906.651C1092.02,905.985 1092.82,904.693 1093.48,904.36C1093.23,905.11 1092.36,905.985 1091.94,906.651ZM1093.4,906.651C1093.48,906.276 1093.52,906.276 1093.19,906.36L1094.23,904.943C1094.36,905.276 1094.15,905.318 1094.11,905.61C1094.07,905.901 1093.57,906.526 1093.4,906.651ZM1090.57,908.485C1090.48,908.401 1090.44,908.276 1090.44,908.11C1090.44,907.276 1091.86,905.485 1092.11,905.11C1092.19,905.151 1090.86,907.86 1090.61,907.985C1090.52,908.151 1090.57,908.151 1090.57,908.485ZM1102.9,908.068L1103.57,905.276C1103.65,905.443 1103.65,905.651 1103.61,905.86C1103.44,906.61 1103.15,907.526 1102.9,908.068ZM1103.86,906.151L1104.07,905.318C1104.15,905.651 1104.11,905.776 1103.86,906.151ZM1094.15,908.526C1094.15,908.401 1094.98,906.526 1094.94,907.026C1095.07,906.818 1095.15,906.443 1095.4,906.36C1095.19,906.901 1094.57,908.026 1094.15,908.526ZM1100.98,907.693L1101.19,906.735C1101.36,906.818 1101.07,907.735 1100.98,907.693ZM1090.65,911.318C1090.61,911.151 1090.57,910.943 1090.61,910.693C1090.69,910.068 1090.94,909.276 1091.15,908.776C1091.73,908.818 1091.36,907.735 1092.11,907.735C1091.94,908.276 1091.9,908.443 1091.86,908.443L1091.86,908.401C1091.86,908.11 1092.11,907.11 1091.48,909.36C1091.36,909.36 1091.27,909.276 1091.27,909.068C1091.27,909.026 1091.32,908.985 1091.32,908.943C1090.69,909.651 1090.98,910.568 1090.65,911.318ZM1098.9,909.61L1099.48,908.193C1099.48,908.61 1099.19,909.235 1098.9,909.61ZM1100.86,909.568C1100.69,909.36 1100.73,909.276 1101.11,908.86L1100.86,909.568ZM1101.86,910.151L1102.19,909.151C1102.23,909.526 1102.19,909.901 1101.86,910.151ZM1090.11,910.651C1090.07,910.485 1090.07,910.36 1090.07,910.193C1090.07,909.901 1090.19,909.568 1090.36,909.276C1090.48,909.776 1090.11,910.193 1090.11,910.651ZM1098.82,912.026C1098.98,911.443 1099.44,910.693 1099.77,910.151C1099.82,910.526 1099.19,911.943 1098.82,912.026ZM1099.61,911.693L1100.36,910.235C1100.36,910.776 1100.23,911.026 1099.61,911.693ZM1099.86,912.61C1099.98,911.943 1100.65,910.735 1101.11,910.36C1101.07,910.735 1100.32,912.193 1099.86,912.61ZM1093.32,912.401C1093.23,912.193 1093.19,911.943 1093.23,911.693C1093.27,911.318 1093.36,910.901 1093.57,910.693L1093.32,912.401ZM1098.44,912.11C1098.48,911.776 1098.65,911.36 1099.02,910.86L1098.44,912.11ZM1101.61,912.276L1102.23,911.11C1102.15,911.61 1102.02,911.818 1101.61,912.276ZM1101.32,911.985C1101.02,911.901 1101.11,911.651 1101.57,911.276C1101.82,911.401 1101.73,911.651 1101.32,911.985ZM1090.69,912.485C1090.57,912.401 1090.52,912.235 1090.52,912.068C1090.52,911.86 1090.65,911.61 1090.77,911.485C1090.82,911.651 1090.86,911.818 1090.82,911.985L1090.69,912.485ZM1092.32,912.985C1092.15,912.776 1092.11,912.568 1092.11,912.36C1092.11,912.193 1092.19,911.985 1092.27,911.818C1092.32,912.068 1092.36,912.318 1092.36,912.61C1092.36,912.735 1092.36,912.86 1092.32,912.985ZM1100.61,912.818C1100.44,912.818 1100.36,912.735 1100.36,912.61C1100.36,912.401 1100.52,912.193 1100.77,911.901L1100.61,912.818ZM1092.9,914.693C1092.65,914.443 1092.52,914.193 1092.44,913.86C1092.73,914.068 1092.86,914.276 1092.9,914.693ZM1091.61,915.151C1091.27,914.985 1090.94,914.776 1090.86,914.36C1091.23,914.526 1091.52,914.86 1091.61,915.151ZM1094.48,915.318C1094.36,915.443 1093.82,915.151 1093.9,914.985L1094.48,915.318ZM1094.4,915.693C1094.32,915.693 1093.52,915.485 1093.52,915.193L1093.52,915.11L1094.4,915.693ZM1093.02,915.61L1092.65,915.401C1092.86,915.318 1092.94,915.443 1093.02,915.61ZM1097.61,917.526C1096.48,917.401 1095.02,916.818 1093.98,916.36C1094.44,916.276 1094.86,916.36 1095.23,916.61C1096.07,916.901 1096.77,917.193 1097.61,917.526ZM1099.32,918.901C1099.19,918.818 1099.11,918.735 1099.11,918.61C1099.11,918.568 1099.11,918.568 1099.15,918.526C1099.32,918.401 1099.4,918.526 1099.32,918.901ZM1099.4,920.151C1099.36,919.901 1099.44,919.776 1099.57,919.86C1099.61,920.11 1099.57,920.193 1099.4,920.151ZM1089.11,921.068C1088.86,921.026 1088.61,920.985 1088.52,920.651L1089.11,921.068ZM1087.73,921.151C1087.36,921.11 1087.36,921.11 1087.32,920.735L1087.73,921.151ZM1096.23,921.526C1096.15,921.318 1096.32,921.235 1096.69,921.318L1096.23,921.526ZM1091.61,922.11C1091.32,922.11 1089.23,921.735 1089.32,921.401L1091.61,922.11ZM1098.44,921.86C1098.44,921.485 1098.48,921.443 1098.73,921.443L1098.9,921.443L1098.44,921.86ZM1087.65,922.151C1087.44,922.068 1087.36,921.985 1087.36,921.901C1087.36,921.86 1087.44,921.818 1087.48,921.776C1087.65,921.86 1087.73,921.943 1087.73,922.026C1087.73,922.068 1087.69,922.11 1087.65,922.151ZM1096.77,922.276C1096.65,922.11 1096.77,921.985 1097.15,921.943C1097.27,922.151 1097.15,922.276 1096.77,922.276ZM1099.94,922.985C1100.02,922.651 1100.11,922.318 1100.32,922.068C1100.36,922.443 1100.15,922.693 1099.94,922.985ZM1089.57,922.651C1089.44,922.693 1088.52,922.485 1088.57,922.151L1088.57,922.11L1089.57,922.651ZM1092.82,922.86C1091.86,922.86 1090.94,922.735 1090.4,922.443C1091.52,922.526 1092.61,922.735 1093.73,922.735C1094.07,922.735 1094.4,922.735 1094.73,922.693C1094.11,922.818 1093.44,922.86 1092.82,922.86ZM1090.77,923.068C1090.82,922.86 1091.02,922.818 1091.4,923.026C1091.4,923.318 1091.19,923.318 1090.77,923.068ZM1089.4,923.318C1088.98,923.235 1088.52,923.235 1088.23,922.901C1088.61,923.068 1089.07,922.985 1089.4,923.318ZM1094.32,923.068C1094.69,923.026 1095.02,922.985 1095.36,922.901C1095.36,923.026 1094.98,923.068 1094.65,923.068L1094.32,923.068ZM1091.98,923.651C1091.86,923.651 1091.77,923.61 1091.61,923.526L1092.61,923.485C1092.4,923.568 1092.19,923.651 1091.98,923.651ZM1096.82,923.86C1096.73,923.86 1096.69,923.818 1096.57,923.818C1096.82,923.693 1096.98,923.651 1097.15,923.651C1096.98,923.818 1096.9,923.86 1096.82,923.86ZM1094.52,924.318C1094.36,924.318 1094.19,924.276 1094.07,924.235L1095.02,924.193C1094.86,924.276 1094.69,924.318 1094.52,924.318ZM1091.9,924.776C1091.52,924.776 1091.15,924.693 1091.23,924.443C1093.15,924.735 1093.4,924.776 1091.9,924.776ZM1093.98,925.318C1093.69,925.318 1093.44,925.276 1093.32,925.276C1093.82,924.901 1095.4,924.901 1096.02,924.735C1096.07,925.151 1094.82,925.318 1093.98,925.318ZM1092.15,925.526C1091.86,925.526 1091.52,925.485 1091.23,925.443C1091.52,925.36 1091.77,925.318 1092.07,925.318C1092.32,925.318 1092.57,925.401 1092.69,925.443C1092.52,925.485 1092.32,925.526 1092.15,925.526Z" style="fill:white;"/>
            <path d="M1116.4,900.901C1115.52,900.526 1113.44,900.11 1112.86,900.11C1111.77,900.11 1111.77,900.901 1110.86,903.235C1109.57,906.61 1109.15,908.985 1108.19,912.443C1107.32,915.568 1106.32,917.86 1105.82,921.068C1105.77,921.401 1105.73,921.693 1105.73,921.985C1105.73,923.401 1106.32,924.401 1107.44,925.026C1107.9,925.276 1110.23,926.693 1110.57,926.151C1110.52,924.068 1112.32,916.068 1112.77,914.693C1113.48,912.568 1114.48,909.568 1115.11,907.443C1115.73,905.36 1116.9,902.86 1117.36,901.651C1117.11,901.276 1116.9,901.11 1116.4,900.901ZM1114.94,901.276C1114.82,901.235 1114.82,901.151 1114.94,900.901C1115.15,900.943 1115.15,901.11 1114.94,901.276ZM1114.02,901.193C1114.23,901.443 1114.15,901.776 1113.82,902.151L1114.02,901.193ZM1113.15,901.526C1113.19,901.526 1113.23,901.568 1113.27,901.61C1113.27,901.985 1113.23,902.193 1113.07,902.193C1113.02,902.193 1112.98,902.193 1112.94,902.151C1112.94,901.735 1113.02,901.526 1113.15,901.526ZM1115.69,902.151C1115.52,902.026 1115.52,901.901 1115.69,901.693C1115.86,901.735 1115.86,901.86 1115.69,902.151ZM1114.48,901.735C1114.48,901.985 1114.4,902.193 1114.19,902.276C1114.15,901.901 1114.23,901.735 1114.48,901.735ZM1112.57,902.401C1112.69,902.735 1112.44,902.735 1112.27,902.985L1112.57,902.401ZM1113.61,902.443C1113.77,902.693 1113.69,902.86 1113.48,903.068C1113.27,902.818 1113.27,902.776 1113.61,902.443ZM1115.57,903.276C1115.36,903.235 1115.36,903.026 1115.61,902.86C1115.77,902.901 1115.77,903.026 1115.57,903.276ZM1111.9,903.11C1111.98,903.526 1111.94,903.818 1111.57,904.276L1111.9,903.11ZM1111.61,907.651C1111.44,907.235 1111.98,905.776 1112.19,905.401C1112.57,904.693 1112.69,903.901 1113.02,903.193C1113.23,903.276 1111.73,906.943 1111.61,907.651ZM1114.32,903.61C1114.15,904.11 1114.19,904.693 1113.77,905.068C1113.77,904.693 1113.98,904.068 1114.32,903.61ZM1114.52,904.193C1114.52,904.693 1114.32,905.068 1114.11,905.485C1114.11,904.985 1114.36,904.651 1114.52,904.193ZM1113.44,904.443C1113.82,904.568 1112.94,905.86 1112.9,905.943L1113.44,904.443ZM1115.15,905.943C1115.07,905.651 1115.07,905.651 1115.36,905.151L1115.15,905.943ZM1110.61,905.943C1110.86,906.068 1110.32,907.776 1109.94,907.776L1110.61,905.943ZM1112.98,908.36C1112.98,908.151 1113.02,907.985 1113.11,907.818C1113.32,907.235 1113.52,906.735 1113.73,906.11C1113.82,906.901 1113.44,908.11 1113.02,908.776C1112.98,908.61 1112.98,908.485 1112.98,908.36ZM1111.82,908.11C1111.73,907.526 1112.07,907.151 1112.4,906.86C1112.23,907.235 1112.15,907.735 1111.82,908.11ZM1114.32,909.026C1114.23,908.735 1114.27,908.526 1114.57,908.318L1114.32,909.026ZM1110.52,908.776C1110.48,908.86 1110.07,910.776 1109.9,910.693C1110.07,910.026 1110.15,909.318 1110.52,908.776ZM1111.73,909.901C1111.32,909.61 1111.77,909.36 1112.02,909.151L1111.73,909.901ZM1113.52,911.443C1113.48,910.61 1113.57,910.36 1114.07,909.735L1113.52,911.443ZM1111.02,910.068C1110.94,910.61 1110.86,911.068 1110.65,911.526C1110.61,910.985 1110.77,910.526 1111.02,910.068ZM1110.57,914.401C1110.73,913.651 1110.77,912.901 1111.07,912.151C1111.27,912.526 1110.73,914.443 1110.57,914.401ZM1111.15,914.36C1111.27,912.985 1111.32,912.901 1111.61,912.735L1111.15,914.36ZM1111.36,915.068C1110.98,916.235 1110.36,917.776 1110.44,919.068C1110.27,918.985 1110.23,918.693 1110.23,918.36C1110.23,917.068 1111.07,914.526 1111.44,914.151C1111.52,914.443 1111.48,914.735 1111.36,915.068ZM1107.73,915.568C1107.94,914.776 1108.15,914.193 1108.27,914.235L1107.73,915.568ZM1109.15,914.276L1108.94,914.985C1108.69,914.901 1109.07,914.235 1109.15,914.276ZM1108.77,921.193C1108.9,920.36 1110.02,914.526 1110.61,914.693C1110.52,915.193 1110.23,915.568 1110.15,916.151C1110.02,917.151 1109.57,920.693 1108.77,921.193ZM1108.69,915.693C1108.77,915.818 1108.82,915.943 1108.82,916.068C1108.82,916.235 1108.73,916.401 1108.61,916.735L1108.69,915.693ZM1108.02,916.026C1108.11,916.526 1107.9,916.985 1107.73,917.443C1107.61,916.86 1107.94,916.485 1108.02,916.026ZM1106.52,921.193C1106.52,920.985 1106.65,920.526 1106.65,920.276L1106.65,920.193C1106.69,919.943 1107.11,917.901 1107.52,916.276C1107.48,917.901 1107.07,919.651 1106.52,921.193ZM1111.02,918.36C1111.07,917.776 1111.23,917.276 1111.48,916.735C1111.48,917.36 1111.32,917.86 1111.02,918.36ZM1107.61,918.818C1107.61,918.485 1107.69,918.235 1107.86,917.86C1107.86,918.36 1107.69,918.693 1107.65,919.193C1107.61,919.068 1107.61,918.943 1107.61,918.818ZM1110.82,919.901C1110.77,919.818 1110.77,918.735 1111.07,918.776L1110.82,919.901ZM1107.36,919.943C1107.4,920.151 1107.44,920.36 1107.44,920.485C1107.44,920.735 1107.36,920.86 1107.23,920.86C1107.19,920.86 1107.15,920.818 1107.11,920.818C1107.07,920.61 1107.02,920.443 1107.02,920.318C1107.02,920.026 1107.11,919.943 1107.36,919.943ZM1109.27,922.568C1109.27,922.276 1109.36,920.276 1109.73,920.36C1109.61,921.068 1109.52,921.818 1109.27,922.568ZM1108.11,921.068C1108.07,921.86 1107.9,922.651 1107.69,923.401C1107.57,922.568 1107.94,921.818 1108.11,921.068ZM1106.48,921.943C1106.36,921.985 1106.32,921.86 1106.44,921.651C1106.61,921.61 1106.61,921.735 1106.48,921.943ZM1109.77,923.443C1109.61,923.401 1109.52,923.318 1109.52,923.193C1109.52,923.026 1109.61,922.818 1109.77,922.568C1110.11,922.568 1110.11,922.818 1109.77,923.443ZM1107.36,923.985C1107.32,923.985 1107.19,923.943 1107.07,923.86C1107.07,923.61 1107.19,923.568 1107.4,923.568C1107.52,923.86 1107.48,923.985 1107.36,923.985ZM1108.57,925.026L1108.86,923.818C1109.23,923.901 1108.65,924.985 1108.57,925.026ZM1108.07,924.776L1107.98,924.776C1107.9,924.526 1107.82,924.318 1107.82,924.193C1107.82,924.026 1107.9,923.985 1108.02,923.943C1108.19,924.235 1108.23,924.443 1108.23,924.61C1108.23,924.735 1108.19,924.776 1108.07,924.776ZM1109.19,925.068C1109.02,925.026 1109.07,924.901 1109.23,924.776C1109.4,924.86 1109.4,924.943 1109.19,925.068Z" style="fill:white;"/>
            <path d="M1136.65,904.943C1136.27,902.985 1135.48,902.026 1133.52,901.693C1132.23,900.651 1131.02,900.235 1129.94,900.235C1128.19,900.235 1126.73,901.235 1125.44,902.36C1121.4,905.943 1118.48,911.61 1117.4,916.901C1117.19,917.943 1117.02,919.235 1117.02,920.485C1117.02,921.443 1117.11,922.443 1117.4,923.235C1117.61,923.86 1118.36,924.526 1119.11,924.693C1119.19,925.318 1119.98,925.651 1120.23,925.776C1121.15,926.026 1122.11,926.151 1123.02,926.151C1124.65,926.151 1126.23,925.818 1127.86,925.235C1128.94,924.86 1130.4,924.276 1131.11,922.735C1131.61,921.61 1131.23,920.11 1131.52,919.401C1131.36,919.318 1131.15,919.276 1130.98,919.276C1130.73,919.276 1130.52,919.36 1130.36,919.401L1126.52,920.693C1125.36,921.068 1123.9,921.276 1122.07,921.276C1121.98,920.401 1122.27,918.193 1122.4,917.443C1122.9,914.568 1124.19,912.151 1125.77,909.693C1127.32,907.318 1129.4,903.818 1132.23,902.901C1132.27,903.068 1132.27,903.276 1132.27,903.443C1132.27,905.193 1131.23,906.86 1130.4,908.276C1129.65,909.526 1128.73,910.485 1128.73,911.401C1128.73,911.985 1129.15,912.568 1130.19,913.235C1131.02,913.735 1131.57,914.026 1132.07,914.026C1132.73,914.026 1133.23,913.401 1133.98,912.193C1135.02,910.526 1136.73,907.86 1136.73,905.651C1136.73,905.401 1136.69,905.193 1136.65,904.943ZM1130.23,900.776C1130.36,900.776 1130.52,900.86 1130.73,900.985L1130.11,901.235C1130.02,900.943 1130.07,900.776 1130.23,900.776ZM1129.65,900.86C1129.73,900.86 1129.86,900.86 1129.98,900.901C1129.65,900.985 1129.32,901.068 1128.98,901.193C1129.15,900.943 1129.4,900.86 1129.65,900.86ZM1131.23,901.36C1131.57,901.11 1131.57,901.36 1131.82,901.485L1131.23,901.36ZM1129.52,901.693C1129.61,901.443 1129.69,901.318 1129.77,901.318C1129.82,901.318 1129.86,901.36 1129.9,901.443C1129.86,901.61 1129.69,901.693 1129.52,901.693ZM1129.69,902.193C1129.57,901.943 1130.27,901.568 1130.44,901.568C1130.65,901.901 1130.4,902.11 1129.69,902.193ZM1126.4,902.276C1126.36,902.401 1126.02,902.86 1125.82,902.86C1125.77,902.86 1125.77,902.818 1125.73,902.818L1126.4,902.276ZM1134.27,902.276C1134.52,902.318 1134.61,902.401 1134.44,902.526C1134.23,902.485 1134.15,902.401 1134.27,902.276ZM1130.32,902.485C1130.02,902.818 1129.77,902.943 1129.4,903.026C1129.82,902.61 1129.94,902.485 1130.32,902.485ZM1129.19,902.651C1129.19,902.818 1129.07,902.901 1128.82,902.818C1128.9,902.651 1128.98,902.61 1129.19,902.651ZM1128.48,902.693C1128.61,902.693 1128.57,902.818 1128.32,902.943C1128.19,902.86 1128.23,902.735 1128.48,902.693ZM1130.02,903.193C1129.73,902.901 1130.82,902.693 1130.86,902.693L1130.02,903.193ZM1132.98,902.86C1133.07,903.068 1133.11,903.235 1133.11,903.318C1133.11,903.485 1133.02,903.568 1132.9,903.568C1132.82,903.36 1132.73,903.193 1132.73,903.068C1132.73,902.943 1132.82,902.86 1132.98,902.86ZM1128.44,903.318C1128.36,903.651 1128.23,903.776 1128.07,903.776C1128.02,903.776 1127.98,903.776 1127.94,903.735C1128.02,903.443 1128.19,903.318 1128.44,903.318ZM1127.4,903.61C1127.44,903.61 1127.48,903.568 1127.57,903.568C1127.11,903.901 1126.48,904.318 1126.36,904.401C1126.36,904.401 1127.32,903.443 1127.4,903.61ZM1133.15,904.36L1133.32,903.526C1133.65,903.61 1133.27,904.235 1133.15,904.36ZM1129.11,903.651C1128.73,904.193 1128.4,904.735 1127.82,905.193C1128.07,904.485 1128.61,904.068 1129.11,903.651ZM1135.44,904.193C1135.44,904.276 1135.44,904.36 1135.36,904.485L1135.23,903.735C1135.4,903.943 1135.44,904.068 1135.44,904.193ZM1122.02,908.151C1122.82,906.86 1124.27,904.526 1125.57,903.776C1126.11,904.401 1124.52,904.61 1124.36,905.026C1124.73,904.776 1124.86,904.735 1124.86,904.776C1124.86,904.86 1123.73,905.818 1123.57,906.026C1123.07,906.735 1122.61,907.61 1122.15,908.443C1121.94,908.485 1121.9,908.36 1122.02,908.151ZM1126.9,906.943C1126.82,907.068 1126.73,907.485 1126.48,907.485C1126.44,907.485 1126.4,907.443 1126.32,907.401C1127.32,906.193 1128.19,904.985 1129.48,904.026C1128.57,904.901 1127.69,905.901 1126.9,906.943ZM1134.23,904.026C1134.27,904.235 1134.32,904.485 1134.32,904.693C1134.32,905.526 1134.02,906.401 1133.73,907.235L1134.23,904.026ZM1126.57,904.526C1126.73,904.61 1125.82,905.443 1125.73,905.526C1125.57,905.36 1126.44,904.568 1126.57,904.526ZM1133.11,905.485C1133.07,905.193 1133.11,905.068 1133.4,904.651C1133.32,904.985 1133.36,905.235 1133.11,905.485ZM1135.44,905.485C1135.44,905.276 1135.48,905.11 1135.61,905.068L1135.52,905.818C1135.48,905.776 1135.44,905.61 1135.44,905.485ZM1132.69,905.485C1132.73,906.193 1131.52,908.776 1130.61,909.985L1132.69,905.485ZM1135.61,908.235L1136.07,905.485C1136.11,905.693 1136.11,905.901 1136.11,906.11C1136.11,906.818 1135.9,907.61 1135.61,908.235ZM1132.65,907.568C1132.57,908.068 1132.32,908.401 1131.98,908.735C1132.11,908.276 1132.73,905.735 1133.15,905.86L1132.65,907.568ZM1126.94,906.026C1126.19,907.193 1125.32,908.235 1124.57,909.443C1125.02,908.193 1125.94,906.86 1126.94,906.026ZM1122.11,912.86C1122.77,911.318 1124.4,907.36 1125.94,906.693C1125.07,907.86 1124.36,909.11 1123.52,910.276C1123.48,910.61 1122.27,912.901 1122.11,912.86ZM1126.4,908.151C1126.19,907.985 1126.98,907.193 1127.07,907.276L1126.4,908.151ZM1122.52,908.735C1122.69,908.193 1122.86,907.735 1123.36,907.36L1122.52,908.735ZM1132.19,909.151L1132.9,907.401C1132.82,908.026 1132.65,908.61 1132.19,909.151ZM1134.61,907.985C1134.44,907.985 1134.44,907.86 1134.61,907.651C1134.77,907.693 1134.77,907.776 1134.61,907.985ZM1135.19,908.443C1134.86,908.36 1134.9,908.11 1135.4,907.651L1135.19,908.443ZM1124.15,907.943C1123.98,908.193 1122.98,910.11 1122.77,910.026C1123.11,909.276 1123.52,908.485 1124.15,907.943ZM1131.19,909.985C1131.27,909.568 1131.36,909.443 1131.69,908.943C1131.65,909.36 1131.52,909.693 1131.19,909.985ZM1123.86,912.318C1123.52,911.235 1125.52,909.61 1125.82,909.151L1123.86,912.318ZM1131.77,910.36C1131.94,909.651 1131.94,909.651 1132.15,909.568C1132.15,909.86 1131.94,910.068 1131.77,910.36ZM1122.02,910.36C1122.11,909.943 1122.19,909.86 1122.48,909.61C1122.48,909.901 1122.48,909.901 1122.02,910.36ZM1120.65,911.818C1120.86,911.193 1121.11,910.61 1121.44,910.068C1121.86,910.235 1120.65,911.818 1120.65,911.818ZM1118.9,913.568C1119.02,913.401 1119.07,913.235 1119.07,913.026L1119.07,912.86C1119.4,912.61 1119.94,910.651 1120.32,910.193C1120.02,911.026 1119.52,912.86 1118.9,913.568ZM1130.94,911.318C1130.73,911.235 1131.23,910.193 1131.4,910.276L1130.94,911.318ZM1133.86,912.11C1133.69,912.026 1134.52,910.276 1134.77,910.401L1133.86,912.11ZM1129.4,911.86C1129.19,911.818 1130.23,910.526 1130.27,910.443C1130.07,910.985 1129.77,911.485 1129.4,911.86ZM1120.94,910.61L1120.32,912.068C1119.98,911.943 1120.9,910.61 1120.94,910.61ZM1132.23,911.36L1132.57,910.735C1132.52,911.068 1132.52,911.068 1132.23,911.36ZM1119.19,913.818C1119.19,913.776 1119.57,912.401 1119.69,912.401C1119.69,912.526 1119.36,913.86 1119.19,913.818ZM1120.61,913.485C1120.65,913.193 1120.65,912.86 1120.9,912.735C1120.9,912.818 1120.77,913.151 1120.61,913.485ZM1121.36,912.901C1121.36,913.318 1120.86,914.735 1120.57,915.151C1120.52,914.276 1120.98,913.651 1121.36,912.901ZM1120.48,915.735C1120.27,915.735 1120.27,915.651 1120.4,915.443C1120.57,915.443 1120.57,915.485 1120.48,915.735ZM1121.23,917.776C1121.27,917.901 1121.27,918.11 1121.27,918.36C1121.27,918.943 1121.19,919.776 1121.07,920.526C1121.02,920.318 1121.02,920.11 1121.02,919.901C1121.02,919.193 1121.15,918.526 1121.23,917.776ZM1120.02,920.735C1119.9,920.776 1120.11,919.401 1120.19,919.401L1120.02,920.735ZM1119.44,920.401L1119.52,919.693C1119.61,919.693 1119.52,920.401 1119.44,920.401ZM1117.65,922.485C1117.52,922.318 1117.44,921.693 1117.44,921.11C1117.44,920.443 1117.52,919.86 1117.73,919.818L1117.65,922.485ZM1130.73,919.901C1130.4,920.235 1129.65,920.526 1129.19,920.485C1129.69,920.11 1130.27,920.11 1130.73,919.901ZM1130.02,920.526C1129.73,920.735 1129.57,920.818 1129.23,920.818L1128.98,920.818L1130.02,920.526ZM1118.9,922.068C1118.77,921.818 1118.69,921.651 1118.69,921.526C1118.69,921.36 1118.82,921.276 1118.98,921.276C1119.02,921.526 1119.02,921.818 1118.9,922.068ZM1118.11,922.651C1117.94,922.443 1117.86,922.193 1117.86,921.943C1117.86,921.86 1117.86,921.735 1117.9,921.651C1118.15,921.568 1118.23,921.651 1118.23,921.943C1118.23,922.11 1118.19,922.36 1118.11,922.651ZM1125.98,921.61C1126.02,921.901 1124.69,921.901 1124.61,921.901L1125.98,921.61ZM1128.07,921.61C1127.27,922.068 1126.4,922.193 1125.52,922.318C1126.32,921.86 1127.19,921.776 1128.07,921.61ZM1129.07,922.193C1129.27,922.068 1128.9,922.276 1129.52,921.86C1129.4,922.11 1128.86,922.276 1128.61,922.401C1128.52,922.151 1128.65,922.11 1129.07,922.193ZM1130.48,922.401C1130.44,922.401 1130.4,922.401 1130.4,922.36L1130.73,922.151C1130.82,922.276 1130.61,922.401 1130.48,922.401ZM1124.65,922.36C1124.52,922.485 1123.23,922.735 1123.11,922.735C1123.07,922.61 1124.4,922.401 1124.65,922.36ZM1124.94,922.61L1125.27,922.526C1125.27,922.61 1124.94,922.776 1124.94,922.61ZM1123.9,923.86L1128.36,922.568C1128.48,923.151 1124.32,923.818 1123.9,923.86ZM1122.52,923.151C1122.52,922.985 1124.52,922.693 1124.57,922.651C1124.57,922.86 1122.65,923.11 1122.52,923.151ZM1125.82,922.86C1125.98,922.776 1126.11,922.735 1126.19,922.735C1126.27,922.735 1126.36,922.776 1126.36,922.86C1126.15,922.985 1126.02,923.068 1125.94,923.068C1125.86,923.068 1125.82,922.985 1125.82,922.86ZM1122.86,922.776C1122.57,922.901 1122.57,922.901 1122.32,922.776L1122.86,922.776ZM1124.98,922.86C1125.11,922.86 1125.23,922.901 1125.4,922.943C1125.44,923.151 1125.36,923.235 1125.15,923.235C1125.02,923.235 1124.9,923.193 1124.73,923.151C1124.69,922.943 1124.77,922.86 1124.98,922.86ZM1117.77,922.943C1118.15,923.026 1118.15,923.026 1118.15,923.36C1117.86,923.235 1117.86,923.235 1117.77,922.943ZM1118.48,923.401L1118.48,923.193L1118.9,923.61C1118.57,923.568 1118.48,923.568 1118.48,923.401ZM1121.27,923.943L1121.23,923.568C1121.48,923.693 1121.32,923.818 1121.27,923.943ZM1127.32,924.86C1127.82,924.401 1129.11,923.61 1129.52,923.568C1128.9,924.193 1128.15,924.526 1127.32,924.86ZM1125.73,924.026C1125.61,924.026 1125.52,923.985 1125.44,923.985L1126.02,923.776C1125.94,923.985 1125.82,924.026 1125.73,924.026ZM1126.11,924.36C1126.32,924.068 1126.61,923.901 1126.94,923.901C1127.07,923.901 1127.23,923.943 1127.36,923.985C1126.94,924.193 1126.57,924.318 1126.11,924.36ZM1122.48,924.443L1124.48,923.985C1123.98,924.276 1122.9,924.526 1122.48,924.443ZM1126.61,924.818L1126.44,924.818C1126.57,924.651 1126.77,924.568 1126.98,924.526C1127.11,924.693 1126.98,924.818 1126.61,924.818ZM1122.44,925.026C1122.44,924.86 1122.61,924.818 1122.86,924.818C1123.11,924.818 1123.36,924.86 1123.44,924.901L1122.44,925.026ZM1126.15,925.276C1126.07,925.11 1126.19,925.026 1126.48,925.068C1126.57,925.235 1126.44,925.318 1126.15,925.276ZM1120.57,925.276C1120.73,925.235 1120.86,925.235 1120.94,925.235C1121.11,925.235 1121.15,925.318 1121.23,925.526L1120.57,925.276ZM1125.11,925.651C1125.02,925.485 1125.15,925.401 1125.44,925.443C1125.48,925.61 1125.36,925.693 1125.11,925.651Z" style="fill:white;"/>
            <path d="M1148.57,901.485C1148.23,901.318 1147.9,901.068 1147.57,900.86C1147.19,900.651 1146.9,900.568 1146.48,900.443C1146.07,900.318 1145.65,900.11 1145.27,900.068C1145.07,900.026 1144.86,899.985 1144.82,900.151C1144.82,900.318 1144.77,900.526 1144.77,900.693C1144.65,900.651 1144.69,900.568 1144.69,900.485C1144.61,900.193 1144.4,900.568 1144.36,900.61C1144.15,900.943 1143.48,902.193 1143.36,902.526C1142.98,903.36 1142.52,904.11 1142.23,904.943C1141.57,906.651 1141.11,908.401 1140.52,910.151C1139.9,911.943 1139.32,913.776 1138.82,915.61C1138.82,915.693 1138.73,915.86 1138.73,915.943L1138.73,915.985C1138.82,916.151 1138.86,916.318 1138.86,916.526L1138.86,916.693C1138.86,916.818 1138.77,916.985 1138.77,917.11C1138.77,917.193 1138.82,917.235 1138.9,917.318L1139.52,917.693C1140.36,918.276 1141.19,918.818 1142.15,919.11C1142.15,918.36 1142.23,917.693 1142.48,917.068C1142.73,916.36 1142.82,915.61 1143.02,914.901L1144.73,910.36C1145.36,908.943 1145.98,907.568 1146.73,906.151L1148.36,903.318C1148.61,902.943 1148.86,902.485 1148.86,902.068C1148.86,901.818 1148.77,901.651 1148.57,901.485ZM1144.65,902.61C1144.57,902.318 1144.82,902.235 1144.9,902.068L1144.65,902.61ZM1146.4,902.526C1146.48,902.401 1146.52,902.276 1146.61,902.068C1146.69,902.401 1146.69,902.401 1146.4,902.526ZM1144.15,906.443C1144.07,906.651 1144.02,906.818 1143.98,907.026C1143.94,906.943 1143.94,906.818 1143.98,906.693C1144.02,906.526 1144.07,906.318 1144.15,906.11C1144.32,906.235 1144.19,906.318 1144.15,906.443ZM1143.4,908.526L1143.36,908.485L1143.27,908.485C1143.27,908.485 1143.27,908.443 1143.32,908.401C1143.27,908.36 1143.27,908.36 1143.32,908.36C1143.4,908.11 1143.44,907.776 1143.57,907.818C1143.52,907.985 1143.44,908.235 1143.4,908.443L1143.4,908.526ZM1143.32,908.36C1143.36,908.36 1143.4,908.401 1143.4,908.443C1143.4,908.443 1143.4,908.485 1143.36,908.485C1143.32,908.443 1143.32,908.443 1143.32,908.401L1143.32,908.36ZM1143.61,910.818L1143.73,910.485C1143.9,910.568 1143.69,911.026 1143.61,911.193L1143.61,910.818ZM1143.48,913.36C1143.48,913.193 1143.52,912.86 1143.61,912.693C1143.65,912.485 1143.65,912.068 1143.82,912.11C1143.73,912.526 1143.61,912.943 1143.48,913.36ZM1142.44,914.526C1142.4,914.151 1142.61,913.276 1142.86,912.943C1142.73,913.526 1142.61,913.985 1142.44,914.526ZM1141.48,914.985C1141.4,915.235 1141.36,915.276 1141.36,915.443L1141.36,915.61C1141.32,915.526 1141.32,915.485 1141.32,915.568C1141.32,915.068 1141.32,914.693 1141.57,914.36C1141.52,914.568 1141.52,914.776 1141.48,914.985ZM1141.82,916.901C1141.77,916.776 1141.77,916.61 1141.77,916.485C1141.77,916.235 1141.86,915.943 1141.98,915.818C1141.94,916.235 1141.9,916.526 1141.82,916.901ZM1141.82,917.526L1141.94,917.901C1141.73,917.693 1141.73,917.693 1141.82,917.526ZM1141.77,921.693C1141.65,921.193 1139.65,920.485 1138.82,920.485C1137.94,920.485 1137.36,921.11 1136.86,921.485C1136.61,921.776 1136.57,922.193 1136.48,922.401C1136.32,922.901 1136.15,923.276 1136.07,923.693C1136.02,923.901 1135.94,924.151 1135.94,924.443C1135.94,924.526 1135.94,924.651 1135.98,924.735C1136.94,926.193 1138.02,926.568 1140.15,926.568C1140.4,926.36 1140.61,925.193 1140.9,924.11C1141.02,923.651 1141.44,923.151 1141.73,922.818C1142.07,922.443 1142.19,922.193 1142.19,922.026C1142.19,921.776 1141.98,921.735 1141.77,921.693ZM1138.57,922.443C1138.48,922.401 1138.44,922.36 1138.44,922.36L1138.32,922.36C1138.4,922.193 1138.4,921.651 1138.69,921.651C1138.73,921.651 1138.77,921.693 1138.82,921.693C1138.73,922.026 1138.65,922.193 1138.57,922.443ZM1139.86,923.693C1139.82,923.776 1139.9,924.026 1139.65,923.943L1140.02,923.235C1140.02,923.276 1140.11,923.526 1139.86,923.693ZM1137.69,924.568C1137.52,924.568 1137.73,923.943 1137.94,923.526C1138.27,923.693 1137.86,924.401 1137.69,924.568ZM1138.98,925.11C1138.98,924.818 1139.11,924.526 1139.36,924.276C1139.23,924.568 1139.32,924.901 1138.98,925.11Z" style="fill:white;"/>
        </g>
    </g>
</svg>
